<svg xmlns="http://www.w3.org/2000/svg" viewBox="0 0 48.74 43.99"><defs><style>.cls-1{fill:#1c1c1b;}</style></defs><g id="圖層_2" data-name="圖層 2"><g id="Business_Card_Front_" data-name="Business Card (Front)"><path class="cls-1" d="M36.27,0a11.88,11.88,0,0,0-9.18,4.36c2.83,3.49,7.05,8.69,7.11,8.78a2.37,2.37,0,1,1-3.66,3c-.07-.07-3.76-4.61-6.55-8l-3.42-4a11,11,0,0,0-3.13-3,11.09,11.09,0,0,0-5-1.09C4.45.05-1.45,8.92.31,17.22c.88,4.14,3.85,7.5,6.21,10.75,3,4.15,8.88,10,13.06,14.05a6.82,6.82,0,0,0,9.58,0c4.19-4,10.05-9.9,13.07-14.05,2.35-3.25,5.32-6.61,6.2-10.75C50.19,8.92,44.29.05,36.27,0ZM23.5,20.92a2.37,2.37,0,0,1-2-1.07c-.12-.11-5.08-6.23-5.17-6.36A2.38,2.38,0,0,1,18,9.44a2.35,2.35,0,0,1,2,1.07c.12.11,5.08,6.22,5.17,6.36a2.38,2.38,0,0,1-1.68,4.05Z"/></g></g></svg>