<svg xmlns="http://www.w3.org/2000/svg" viewBox="0 0 1019.8 230.43"><defs><style>.cls-1{fill:#44bdcd;}.cls-2{fill:#fff;}.cls-3{fill:#15254b;}</style></defs><g id="圖層_2" data-name="圖層 2"><g id="圖層_1-2" data-name="圖層 1"><path class="cls-1" d="M40.57,171.22c6.54.26,890.71,11.85,890.71,11.85L0,203.86Z"/><polygon class="cls-2" points="685.47 135.94 687.98 167.78 629.9 167.15 627.25 133.73 607.96 163.87 606.02 166.89 565.2 166.44 526.08 166.02 436.32 165.04 453.55 138.11 464.91 120.36 444.4 120.13 410.71 119.77 403.7 119.69 399.81 125.76 375.08 164.37 334.25 163.93 295.13 163.5 228.2 162.78 227.8 161.99 218.59 143.73 206.95 161.91 206.55 162.54 67.6 161.03 98.5 133.06 120.94 112.74 105.37 112.57 155.98 33.39 192.86 12.03 246.04 12.61 331.05 13.53 346.49 13.7 283.7 114.02 302.08 114.22 364.91 13.9 372.17 13.98 443.31 14.75 492.85 15.29 517 15.55 603.2 16.49 674.24 17.27 741.18 17.99 755.94 47.25 717.8 106.9 691.27 124.39 684.89 128.59 685.47 135.94"/><path class="cls-3" d="M726.33,115.24,769.77,47.3,749,6.08l-73.85-.81-71-.77-86.2-.94L493.73,3.3l-49.54-.54L373.05,2l-41.12-.45-85-.92L190.33,0,147.67,24.71,84,124.34l6.73.07L37.38,172.7l175.31,1.91L217,167.9l3.43,6.79,73.84.81,39.12.42,47.84.52,28.62-44.68,33.69.36-28.58,44.69L525.2,178l39.11.42,47.85.52,5.82-9.09.73,9.17,82.36.89-3.61-45.65Zm-40.86,20.7L688,167.78l-58.08-.63-2.64-33.42L608,163.87l-1.94,3-40.82-.45L526.08,166l-89.75-1,17.22-26.93,11.36-17.75-20.51-.23-33.69-.36-7-.08-3.89,6.07-24.73,38.61-40.83-.44-39.11-.43-66.94-.72-.4-.79-9.21-18.26L207,161.91l-.4.63L67.6,161l30.9-28,22.44-20.32-15.57-.17L156,33.39,192.86,12l53.18.58,85,.92,15.44.17L283.7,114l18.38.2L364.91,13.9l7.25.08,71.15.77,49.54.54,24.15.26,86.2.94,71,.78,66.94.72,14.76,29.26L717.8,106.9l-26.53,17.49-6.38,4.21Z"/><polygon class="cls-3" points="368 23 305.83 120.06 271.72 119.69 333.79 22.63 285.94 22.11 281.98 22.07 194.76 21.12 162.27 39.95 121.53 103.68 194.27 104.47 185.15 118.75 128.09 118.13 90.45 152.21 201.91 153.42 242.1 90.6 231.91 70.39 182.12 69.85 191.24 55.57 255.22 56.26 283.42 24.92 287.83 33.66 223.89 133.56 234.09 153.77 322.59 154.73 406.62 23.43 368 23"/><path class="cls-3" d="M514.55,44.7,504.26,24.49l-96.16-1,9.73,19.29-14.2-.16L331.81,154.83l38.63.42,28.62-44.68,61.4.67,19.86-13.16Zm-59.41,32-34.21-.37,11.58-18.13,34.2.37Z"/><polygon class="cls-3" points="558.63 122.82 513 122.32 519.74 111.88 554.77 112.26 576.65 78.02 541.61 77.64 553.19 59.5 592.28 59.93 602.66 80.51 637.57 25.94 528.78 24.75 538.51 44.04 524.31 43.88 452.49 156.15 553.53 157.25 585.12 107.89 558.63 122.82"/><path class="cls-3" d="M745.49,47.21,735.29,27,639.14,26l9.72,19.29-14.29-.16L562.75,157.35l38.63.42L630,113.08l4.8,0,3.55,45,39.74.43-3.56-45,16.87.19,20-13.15Zm-59.41,32L652,78.84,663.54,60.7l34.12.38Z"/><polygon class="cls-2" points="946.13 151.42 944.89 148.97 935.67 130.69 924.04 148.9 907.97 174.06 879.94 173.75 872.92 173.68 869.03 179.75 844.31 218.36 803.29 217.91 764.27 217.49 657.33 216.33 688.22 188.36 710.67 168.04 695.09 167.87 745.71 88.69 782.58 67.33 841.39 67.97 920.78 68.83 998.41 69.67 946.13 151.42"/><path class="cls-3" d="M921.66,56.84,842.27,56l-62.21-.67L737.4,80l-63.69,99.63,6.73.07L627.1,228l136.29,1.48,39,.43,48,.52,28.62-44.69,35.05.38,20-31.24,10.45,20.71L1019.8,57.91Zm24.46,94.58L944.89,149l-9.22-18.28L924,148.9,908,174.06l-28-.31-7-.07L869,179.75l-24.72,38.61-41-.45-39-.42-106.94-1.16,30.89-28L710.67,168l-15.58-.17,50.62-79.18,36.87-21.36,58.81.64,79.39.86,77.63.84Z"/><polygon class="cls-1" points="821.63 125.69 771.85 125.15 780.96 110.86 844.94 111.56 875.67 77.41 784.49 76.42 751.99 95.24 711.25 158.97 783.99 159.76 774.88 174.05 717.81 173.43 680.17 207.5 791.63 208.72 831.83 145.9 821.63 125.69"/><polygon class="cls-3" points="877.33 77.43 887.06 96.71 872.77 96.56 800.95 208.82 839.67 209.24 868.29 164.55 903.32 164.94 925.19 130.69 890.16 130.31 901.74 112.18 936.95 112.56 947.34 133.14 982.24 78.57 877.33 77.43"/></g></g></svg>