<svg xmlns="http://www.w3.org/2000/svg" viewBox="0 0 1019.8 230.43"><defs><style>.cls-1{fill:#fff;}.cls-2{opacity:0.5;}.cls-3{fill:#231815;}</style></defs><g id="圖層_2" data-name="圖層 2"><g id="圖層_1-2" data-name="圖層 1"><path class="cls-1" d="M786.08,35.81c.21,2.57,2.22,4,6,4,3.15,0,5.77-.83,6.07-3.28.22-1.8-.93-2.71-5.26-3.81-6.77-1.72-9.16-3.52-8.72-7.14.58-4.69,5.16-8.22,12.55-8.22,9,0,10.83,4.49,10.63,7.63h-6.13c-.1-1.44-1-3.25-5.44-3.25-2.88,0-4.67,1.24-4.88,3S792,27,796.36,28c7.45,1.84,8.89,4.33,8.47,7.8-.57,4.71-5.14,8.44-13.82,8.44-7.4,0-11.32-2.9-11.11-8.45Z"/><path class="cls-1" d="M815.32,17.91h21.24l-1.69,4.8H819.76l-2,6H831.8l-1.69,4.84H816l-3.47,10.16h-6.13Z"/><path class="cls-1" d="M853.17,30.71A40.9,40.9,0,0,1,850.55,38c1.74,4,6,4.51,12.5,4.54,4.13,0,10.47-.22,14.87-.62a13.84,13.84,0,0,0-1.95,4c-4,.22-8.94.33-13.45.33-7.13,0-11.54-.73-14-4.62a19.85,19.85,0,0,1-5.2,5.35,11.29,11.29,0,0,0-2.61-2.89c3.42-2.13,6-5.79,7.66-10.7h-2.24a5,5,0,0,0-2.41.55,20.84,20.84,0,0,0-1.07-3.55,4.28,4.28,0,0,0,2.1-1.17,45.93,45.93,0,0,0,4-4.58h-4.77l.42-3.48h7.4l.6-.22,2.68,1.1c-1.59,2-4.29,5.46-6.52,8h2.08l.75-.11Zm-3.64-10.26a43,43,0,0,0-3.52-5.9l3.72-1.83a43.1,43.1,0,0,1,3.72,5.57Zm7.25.51h-3l.43-3.55h5.16a36.32,36.32,0,0,0-.73-4.1l4.09-.7a33.76,33.76,0,0,1,1,4.73l-.32.07h3.74l-.26,2.09a31.86,31.86,0,0,0,3.94-7l3.69,1c-.39,1-.89,1.9-1.39,2.85h7.32L880,19.94h-9c-.48.77-1,1.46-1.5,2.16h6.82l.76-.22,2.21,1.79A44.47,44.47,0,0,1,874.5,28l-.15,1.21h4.47l-.42,3.45h-4.47l-.55,4.46c-.21,1.72-.56,2.71-1.9,3.3s-2.85.66-5.05.66a10,10,0,0,0-.79-3.59c1.38,0,2.8,0,3.23,0s.59-.11.63-.48l.54-4.39h-4.28l.42-3.45h4.28l.25-2.05A16.18,16.18,0,0,0,873,25.28h-5.24l.27-2.19a22.69,22.69,0,0,0-2.47-1.94l.18-.19H860.4l-.34,2.86h6.2s-.16,1-.22,1.5c-1.53,9.71-2.28,13.33-3.35,14.5a3.64,3.64,0,0,1-2.44,1.36,23.12,23.12,0,0,1-3.32.11,9.44,9.44,0,0,0-.54-3.48,18,18,0,0,0,2.22.11,1.19,1.19,0,0,0,1-.48c.55-.69,1.16-3.18,2.27-10.11h-2.35c-.79,4.29-2.42,9.45-5.95,13.12A11.15,11.15,0,0,0,851.16,38c3.7-4.06,4.76-10,5.24-13.92Z"/><path class="cls-1" d="M887.41,28.58c-.63,5.16-2,13-5.16,18a13.72,13.72,0,0,0-2.8-2.31c2.71-4.54,3.65-11,4.22-15.64l1.21-9.93H892l.73-6H897l-.22,1.84h7.94l-.34,2.78h-7.94l-.16,1.35h5.81l.56-.1,2.68.43A54.23,54.23,0,0,1,903,24.77l-3.17-.55c.29-.73.64-1.76,1-2.82h-4.7l-.18,1.54,3.42-.26,0,2.16-3.74.33,0,.26c-.09.77-.05,1.1.79,1.1h2.78a13.09,13.09,0,0,0,2.72-.22c0,.92-.07,1.58,0,2.38a10.24,10.24,0,0,1-2.8.26H895c-2.85,0-3.28-1.21-3-3.48l-3.62.33V23.56l3.89-.29.22-1.87h-4.16Zm30-.26a44.43,44.43,0,0,1-6.47,10.77c.31,1.61.81,2.56,1.42,2.6s1.17-1.72,1.74-4.79a11,11,0,0,0,2.86,2.45c-1.71,6.08-3.76,7.47-5.26,7.43-2-.07-3.33-1.5-4.22-4a27.78,27.78,0,0,1-4,3.08,12.86,12.86,0,0,0-2.22-2.35l-.19,1.5c-5.68.48-11.63,1-16,1.21l0-3.15,4.19-.25a25.24,25.24,0,0,0-.55-2.75l3.15-.51a17.38,17.38,0,0,1,.71,3l2.09-.15a32.43,32.43,0,0,0,1.73-3.11l3.72.51c-.61.84-1.2,1.61-1.8,2.38l3.15-.22-.07.55a26.73,26.73,0,0,0,5.17-4.17,73.81,73.81,0,0,1-.19-11.69l-2.42.3-.08-3.81,2.7-.33q.35-4.68.87-10h4.2c-.4,3.29-.67,6.48-.89,9.48l7.56-1,0,3.77-7.83,1c-.1,2.75-.15,5.31-.1,7.44a39.64,39.64,0,0,0,3.79-7ZM887.69,39.24l.71-5.83h13.41l-.71,5.83Zm15.09-6.85H887.71l.33-2.67H903.1Zm-11.41,4.8h6.35l.21-1.69h-6.36Zm23.56-16.34a56.25,56.25,0,0,0-2.69-6l3.55-1.58a61.81,61.81,0,0,1,2.91,5.83Z"/><path class="cls-1" d="M930.54,44.88h-6.75l-.18,1.54h-3.7l1.54-12.64h10.44Zm3.69-22.71H921.67l.42-3.44h5.62a28.15,28.15,0,0,0-1.9-4.62l3.74-1.57a23.19,23.19,0,0,1,2.21,4.87l-2.66,1.32h5.55Zm-11.9,6.56h9.94l-.4,3.29h-9.94Zm10.14-1.61h-9.94l.4-3.3h9.94Zm-7.75,10.14-.5,4.1h3l.5-4.1Zm27.85,5.42c-.2,1.65-.47,2.6-1.47,3.22a6.41,6.41,0,0,1-3.63.7A15.88,15.88,0,0,0,947,43c.61,0,1.26,0,1.5,0s.32-.11.35-.4l.41-3.34h-2l-.8,6.56H943.4l.8-6.56h-1.88l-.8,6.56H938.4l.8-6.56h-1.89l-.93,7.62h-3.7l2.24-18.38H954.3Zm-3-27.94c-.28.4-.6.8-.92,1.21A18.05,18.05,0,0,0,958,22.76a20.76,20.76,0,0,0-3.6,3.88,16.38,16.38,0,0,1-3-1.69l-.19,1.58H938.47l.2-1.61A37.53,37.53,0,0,1,935,27,15.85,15.85,0,0,0,932.74,23a32.46,32.46,0,0,0,13.61-10.51Zm-10,21,.44-3.66h-1.88l-.45,3.66Zm9.16-12.89a20.75,20.75,0,0,1-3-3.7,45.54,45.54,0,0,1-4.23,3.7Zm-4.15,12.89.44-3.66H943.2l-.45,3.66Zm5.08,0,.45-3.66h-2l-.45,3.66Z"/><path class="cls-1" d="M970.87,38.29c-3.89,1.53-8,3.07-11.47,4.28l-.95-4.47c1.23-.33,2.71-.77,4.35-1.28l1.38-11.32h-3.51l.51-4.13h3.51l1-8.17H970l-1,8.17h2.82l-.51,4.13h-2.81l-1.21,9.89,3.25-1.06Zm22.77,4.76-.4,3.22h-26l.39-3.22Zm2.68-24.25H971.39l.39-3.15h9.94a13.89,13.89,0,0,0-1.16-1.87l3.86-1.64a14.81,14.81,0,0,1,2.15,3.51h10.17ZM971.5,42l1.12-9.23h19L990.45,42Zm21.55-10.25H971.59L973,19.83H994.5Zm-2.74-9.45H976.44l-.85,7h13.87ZM975.9,39.72h10.48l.15-1.29H976.05Zm.42-3.45h10.47L987,35H976.47Zm11.64-8H977.25l.6-4.91h10.71Zm-2.7-3.08h-4.7l-.15,1.25h4.7Z"/><g class="cls-2"><path class="cls-1" d="M40.57,171.22c6.54.26,890.71,11.85,890.71,11.85L0,203.86Z"/></g><polygon class="cls-1" points="685.47 135.94 687.98 167.78 629.9 167.15 627.25 133.73 607.96 163.87 606.02 166.89 565.2 166.44 526.08 166.02 436.32 165.04 453.55 138.11 464.91 120.36 444.4 120.13 410.71 119.77 403.7 119.69 399.81 125.76 375.08 164.37 334.25 163.93 295.13 163.5 228.2 162.78 227.8 161.99 218.59 143.73 206.95 161.91 206.55 162.54 67.6 161.03 98.5 133.06 120.94 112.74 105.37 112.57 155.98 33.39 192.86 12.03 246.04 12.61 331.05 13.53 346.49 13.7 283.7 114.02 302.08 114.22 364.91 13.9 372.17 13.98 443.31 14.75 492.85 15.29 517 15.55 603.2 16.49 674.24 17.27 741.18 17.99 755.94 47.25 717.8 106.9 691.27 124.39 684.89 128.59 685.47 135.94"/><path class="cls-3" d="M726.33,115.24,769.77,47.3,749,6.08l-73.85-.81-71-.77-86.2-.94L493.73,3.3l-49.54-.54L373.05,2l-41.12-.45-85-.92L190.33,0,147.67,24.71,84,124.34l6.73.07L37.38,172.7l175.31,1.91L217,167.9l3.43,6.79,73.84.81,39.12.42,47.84.52,28.62-44.68,33.69.36-28.58,44.69L525.2,178l39.11.42,47.85.52,5.82-9.09.73,9.17,82.36.89-3.61-45.65Zm-40.86,20.7L688,167.78l-58.08-.63-2.64-33.42L608,163.87l-1.94,3-40.82-.45L526.08,166l-89.75-1,17.22-26.93,11.36-17.75-20.51-.23-33.69-.36-7-.08-3.89,6.07-24.73,38.61-40.83-.44-39.11-.43-66.94-.72-.4-.79-9.21-18.26L207,161.91l-.4.63L67.6,161l30.9-28,22.44-20.32-15.57-.17L156,33.39,192.86,12l53.18.58,85,.92,15.44.17L283.7,114l18.38.2L364.91,13.9l7.25.08,71.15.77,49.54.54,24.15.26,86.2.94,71,.78,66.94.72,14.76,29.26L717.8,106.9l-26.53,17.49-6.38,4.21Z"/><polygon class="cls-3" points="368 23 305.83 120.06 271.72 119.69 333.79 22.63 285.94 22.11 281.98 22.07 194.76 21.12 162.27 39.95 121.53 103.68 194.27 104.47 185.15 118.75 128.09 118.13 90.45 152.21 201.91 153.42 242.1 90.6 231.91 70.39 182.12 69.85 191.24 55.57 255.22 56.26 283.42 24.92 287.83 33.66 223.89 133.56 234.09 153.77 322.59 154.73 406.62 23.43 368 23"/><path class="cls-3" d="M514.55,44.7,504.26,24.49l-96.16-1,9.73,19.29-14.2-.16L331.81,154.83l38.63.42,28.62-44.68,61.4.67,19.86-13.16Zm-59.41,32-34.21-.37,11.58-18.13,34.2.37Z"/><polygon class="cls-3" points="558.63 122.82 513 122.32 519.74 111.88 554.77 112.26 576.65 78.02 541.61 77.64 553.19 59.5 592.28 59.93 602.66 80.51 637.57 25.94 528.78 24.75 538.51 44.04 524.31 43.88 452.49 156.15 553.53 157.25 585.12 107.89 558.63 122.82"/><path class="cls-3" d="M745.49,47.21,735.29,27,639.14,26l9.72,19.29-14.29-.16L562.75,157.35l38.63.42L630,113.08l4.8,0,3.55,45,39.74.43-3.56-45,16.87.19,20-13.15Zm-59.41,32L652,78.84,663.54,60.7l34.12.38Z"/><polygon class="cls-1" points="946.13 151.42 944.89 148.97 935.67 130.69 924.04 148.9 907.97 174.06 879.94 173.75 872.92 173.68 869.03 179.75 844.31 218.36 803.29 217.91 764.27 217.49 657.33 216.33 688.22 188.36 710.67 168.04 695.09 167.87 745.71 88.69 782.58 67.33 841.39 67.97 920.78 68.83 998.41 69.67 946.13 151.42"/><path class="cls-3" d="M921.66,56.84,842.27,56l-62.21-.67L737.4,80l-63.69,99.63,6.73.07L627.1,228l136.29,1.48,39,.43,48,.52,28.62-44.69,35.05.38,20-31.24,10.45,20.71L1019.8,57.91Zm24.46,94.58L944.89,149l-9.22-18.28L924,148.9,908,174.06l-28-.31-7-.07L869,179.75l-24.72,38.61-41-.45-39-.42-106.94-1.16,30.89-28L710.67,168l-15.58-.17,50.62-79.18,36.87-21.36,58.81.64,79.39.86,77.63.84Z"/><polygon class="cls-3" points="821.63 125.69 771.85 125.15 780.96 110.86 844.94 111.56 875.67 77.41 784.49 76.42 751.99 95.24 711.25 158.97 783.99 159.76 774.88 174.05 717.81 173.43 680.17 207.5 791.63 208.72 831.83 145.9 821.63 125.69"/><polygon class="cls-3" points="877.33 77.43 887.06 96.71 872.77 96.56 800.95 208.82 839.67 209.24 868.29 164.55 903.32 164.94 925.19 130.69 890.16 130.31 901.74 112.18 936.95 112.56 947.34 133.14 982.24 78.57 877.33 77.43"/></g></g></svg>