<?xml version="1.0" encoding="utf-8"?>
<!-- Generator: Adobe Illustrator 25.4.2, SVG Export Plug-In . SVG Version: 6.00 Build 0)  -->
<svg version="1.1" id="Layer_1" xmlns="http://www.w3.org/2000/svg" xmlns:xlink="http://www.w3.org/1999/xlink" x="0px" y="0px"
	 viewBox="0 0 16 16" style="enable-background:new 0 0 16 16;" xml:space="preserve">
<style type="text/css">
	.st0{opacity:0.5;}
</style>
<desc>Created with Sketch.</desc>
<g class="st0">
	<g>
		<path d="M13.4,6.4c0.2,0.5,0.2,1.1,0.2,1.6c0,3-2.5,5.6-5.6,5.6S2.4,11,2.4,8S5,2.4,8,2.4c0.6,0,1.1,0.1,1.6,0.2V1.1
			C9.1,1,8.6,0.9,8,0.9C4,0.9,0.9,4,0.9,8S4,15.1,8,15.1S15.1,12,15.1,8c0-0.6-0.1-1.1-0.2-1.6H13.4z"/>
		<g>
			<path d="M7,5.4v5.1H5.6V7.2C5.4,7.3,5.2,7.5,4.9,7.6C4.7,7.7,4.4,7.8,4.1,7.9V6.8c0.4-0.2,0.8-0.4,1-0.6C5.5,6,5.7,5.7,5.9,5.4H7
				z"/>
			<path d="M8.6,7.8C8.4,7.7,8.3,7.6,8.2,7.4C8,7.2,7.9,7,7.9,6.8c0-0.4,0.2-0.8,0.6-1c0.3-0.2,0.7-0.3,1.2-0.3
				c0.7,0,1.2,0.1,1.5,0.4c0.3,0.3,0.5,0.6,0.5,1c0,0.2-0.1,0.4-0.2,0.6c-0.1,0.1-0.2,0.3-0.4,0.4c0.3,0.1,0.5,0.3,0.6,0.5
				S12,8.8,12,9.1c0,0.2-0.1,0.5-0.2,0.7c-0.1,0.2-0.3,0.4-0.4,0.5c-0.2,0.1-0.4,0.2-0.6,0.3c-0.2,0.1-0.5,0.1-0.8,0.1
				c-0.5,0-0.9-0.1-1.2-0.2C8.4,10.3,8.2,10.1,8,9.8C7.9,9.6,7.8,9.3,7.8,9S7.9,8.5,8,8.3C8.1,8.1,8.3,7.9,8.6,7.8z M9.2,9
				c0,0.2,0.1,0.4,0.2,0.5c0.1,0.1,0.3,0.2,0.5,0.2s0.3-0.1,0.4-0.2c0.1-0.1,0.2-0.3,0.2-0.5s-0.1-0.4-0.2-0.5
				C10.1,8.3,10,8.2,9.8,8.2S9.5,8.3,9.4,8.4C9.2,8.6,9.2,8.7,9.2,9z M9.2,6.8c0,0.2,0.1,0.3,0.2,0.4c0.1,0.1,0.3,0.2,0.4,0.2
				c0.2,0,0.3-0.1,0.4-0.2c0.1-0.1,0.2-0.2,0.2-0.4c0-0.2-0.1-0.3-0.2-0.4C10.1,6.3,10,6.3,9.8,6.3S9.5,6.4,9.4,6.5
				C9.3,6.5,9.2,6.7,9.2,6.8z"/>
		</g>
	</g>
	<g>
		<path d="M10.4,2.7c0.5,0,1.1,0,1.6,0c0-0.5,0-1.1,0-1.6c0.4,0,0.8,0,1.2,0c0,0.5,0,1.1,0,1.6c0.6,0,1.1,0,1.6,0c0,0.4,0,0.8,0,1.2
			c-0.5,0-1.1,0-1.6,0c0,0.6,0,1.1,0,1.6c-0.4,0-0.8,0-1.2,0c0-0.5,0-1.1,0-1.6c-0.6,0-1.1,0-1.6,0C10.4,3.5,10.4,3.1,10.4,2.7z"/>
	</g>
</g>
</svg>
