<?xml version="1.0" encoding="UTF-8"?>
<svg width="16px" height="16px" viewBox="0 0 16 16" version="1.1" xmlns="http://www.w3.org/2000/svg" xmlns:xlink="http://www.w3.org/1999/xlink">
    <!-- Generator: Sketch 63.1 (92452) - https://sketch.com -->
    <title>guild_icon_public_16px</title>
    <desc>Created with Sketch.</desc>
    <g id="guild_icon_public_16px" stroke="none" stroke-width="1" fill="none" fill-rule="evenodd">
        <g id="Icon-24px">
            <polygon id="Shape" points="0 0 16 0 16 16 0 16"></polygon>
            <path d="M8.92544,13.25056 C8.9152,13.19552 8.9088,13.15072 8.91008,13.11744 C8.90368,13.07264 8.92416,13.01248 8.96768,12.93824 C9.01248,12.86272 9.03424,12.8064 9.03424,12.768 C8.94592,12.74496 8.91264,12.67328 8.9344,12.5504 C8.94592,12.46848 9.02656,12.35712 9.17632,12.2176 C9.28128,12.12288 9.31456,11.98976 9.27616,11.81824 C9.25952,11.74528 9.24544,11.63904 9.23392,11.5008 C9.2224,11.36128 9.21216,11.264 9.20064,11.20896 C9.20064,11.2256 9.22752,11.24096 9.28,11.25376 C9.33248,11.26784 9.36448,11.28704 9.376,11.3088 C9.38624,11.29216 9.4016,11.26144 9.41696,11.21664 C9.4336,11.17312 9.45152,11.13984 9.46688,11.1168 C9.4784,11.10016 9.50272,11.07968 9.53856,11.05408 C9.5744,11.02976 9.59744,11.0144 9.60896,11.00928 C9.6192,11.00288 9.6448,10.98496 9.6832,10.95424 C9.72288,10.9248 9.75488,10.90048 9.7792,10.88384 C9.8048,10.8672 9.83808,10.8544 9.88032,10.84672 C9.92128,10.83776 9.95072,10.85056 9.96736,10.88384 C9.99424,10.91712 9.9904,10.9696 9.95072,11.03744 C9.91232,11.10784 9.91232,11.15648 9.95072,11.18464 C9.95584,11.168 9.96224,11.13216 9.96736,11.07584 C9.97248,11.0208 9.9904,10.97856 10.01728,10.9504 C10.05056,10.91712 10.08256,10.89792 10.11328,10.89152 C10.144,10.8864 10.17216,10.89024 10.19648,10.90432 C10.22208,10.91968 10.25024,10.9376 10.28352,10.9632 C10.3168,10.98752 10.34752,11.00288 10.37568,11.00928 C10.45888,11.03744 10.55872,11.0976 10.6752,11.19232 C10.67008,11.1872 10.67008,11.17952 10.6752,11.17184 C10.6816,11.16288 10.69184,11.15392 10.70976,11.14624 C10.72512,11.13856 10.74048,11.1296 10.75456,11.12192 C10.76864,11.11296 10.784,11.10656 10.80064,11.10016 L10.82496,11.0912 C10.86464,11.0912 10.89152,11.08992 10.90816,11.0848 C10.9248,11.0784 10.94912,11.0848 10.97856,11.10016 C11.00928,11.1168 11.03104,11.1296 11.04128,11.13856 C11.0528,11.14624 11.072,11.1616 11.10016,11.18464 C11.12832,11.20512 11.14752,11.22304 11.15776,11.23456 C11.1744,11.2448 11.20512,11.264 11.24992,11.29216 C11.29472,11.31904 11.32928,11.34208 11.3536,11.35744 C11.3792,11.37536 11.40224,11.40096 11.42016,11.43296 C11.43936,11.46624 11.44704,11.50336 11.44192,11.54176 C11.4752,11.54816 11.54176,11.56992 11.6416,11.60832 C11.65824,11.61984 11.6928,11.6288 11.74656,11.63776 C11.79904,11.64544 11.8336,11.65824 11.85024,11.67616 C11.04512,12.52608 10.06976,13.05088 8.92544,13.25056 M8.80128,11.36768 C8.74496,11.3024 8.72576,11.24608 8.7424,11.2 C8.73728,11.22944 8.71808,11.25376 8.6848,11.27552 C8.65664,11.24352 8.60672,11.2 8.53376,11.15008 C8.46208,11.10016 8.41216,11.0592 8.384,11.02592 C8.37248,11.00928 8.3584,10.98496 8.3392,10.95552 C8.31872,10.9248 8.2944,10.88384 8.26368,10.83392 C8.23296,10.784 8.2112,10.74176 8.19712,10.70592 C8.18304,10.6688 8.18176,10.64832 8.19328,10.6432 C8.08704,10.68672 7.93472,10.65728 7.73504,10.55104 C7.69536,10.52928 7.63776,10.4704 7.55968,10.37568 C7.4816,10.28224 7.40096,10.24 7.31776,10.25024 C7.2896,10.25664 7.25248,10.26688 7.20512,10.28096 C7.15776,10.29376 7.11808,10.30016 7.0848,10.30016 C7.05152,10.30016 7.00672,10.28992 6.95168,10.26816 C6.90688,10.25024 6.84672,10.21952 6.7712,10.17216 C6.69696,10.1248 6.64576,10.09536 6.6176,10.08384 C6.54592,10.04544 6.51008,10.02496 6.51008,10.02496 L6.37568,9.95968 C6.3424,9.94304 6.30784,9.91744 6.272,9.88032 C6.23616,9.84448 6.21184,9.80736 6.2016,9.76768 C6.19008,9.7344 6.176,9.66784 6.15936,9.568 C6.14272,9.46816 6.12096,9.3952 6.0928,9.3504 C6.05952,9.29536 6.01216,9.24032 5.95072,9.184 C5.89056,9.12896 5.83424,9.1008 5.78432,9.1008 C5.82912,9.1008 5.82912,9.06368 5.78432,8.98816 C5.7408,8.91264 5.70112,8.85888 5.66784,8.8256 C5.65632,8.81536 5.62304,8.77952 5.568,8.71808 C5.51168,8.65664 5.46432,8.60416 5.42592,8.55936 C5.38752,8.51456 5.35424,8.46336 5.32608,8.40576 C5.2992,8.34688 5.2928,8.29824 5.30944,8.25984 C5.31456,8.25472 5.30944,8.24576 5.2928,8.23424 C5.27616,8.22272 5.25568,8.2112 5.23008,8.20096 C5.20576,8.18944 5.18144,8.18048 5.15968,8.17152 C5.13792,8.16256 5.12,8.15872 5.10976,8.15872 C5.12,8.18176 5.1328,8.22144 5.14688,8.28032 C5.16096,8.33792 5.17632,8.38144 5.19296,8.4096 C5.20448,8.43136 5.25056,8.512 5.33504,8.65024 C5.47968,8.88448 5.54496,9.05728 5.53472,9.16864 C5.50144,9.17888 5.47968,9.17248 5.46816,9.152 C5.45664,9.12896 5.44896,9.09824 5.44256,9.05984 C5.43744,9.02016 5.43232,8.99328 5.42592,8.97664 C5.40928,8.94336 5.36704,8.90624 5.29664,8.86784 C5.22752,8.82944 5.184,8.79104 5.16736,8.75008 C5.17376,8.75008 5.18016,8.74752 5.18912,8.74368 C5.1968,8.73728 5.20448,8.73472 5.2096,8.73472 C5.216,8.6848 5.18656,8.6208 5.12256,8.54272 C5.05856,8.46592 5.03168,8.4096 5.0432,8.37504 C4.9984,8.34304 4.96,8.27648 4.92544,8.18048 C4.89344,8.0832 4.86528,8.02048 4.84352,7.9936 C4.82048,7.95904 4.79232,7.93088 4.76032,7.90528 C4.72576,7.88096 4.6848,7.8528 4.63488,7.82208 C4.58496,7.79136 4.55168,7.77088 4.53504,7.75936 C4.52352,7.75424 4.50048,7.72992 4.46848,7.68384 C4.28544,7.4624 4.22912,7.34336 4.3008,7.32672 C4.22912,7.34336 4.16896,7.2896 4.12288,7.16288 C4.07424,7.03872 4.06016,6.94272 4.07552,6.87616 L4.06016,6.86848 C4.06528,6.84544 4.06784,6.78016 4.06784,6.67136 C4.06784,6.56256 4.07424,6.46528 4.08832,6.37568 C4.1024,6.28736 4.12928,6.24256 4.16768,6.24256 C4.12928,6.24768 4.09984,6.21312 4.08064,6.1376 C4.06144,6.06336 4.06016,6.01216 4.07552,5.984 C4.08192,5.96864 4.10624,5.97888 4.15104,6.01856 C4.19584,6.05696 4.22016,6.08128 4.22656,6.0928 C4.29824,6.05312 4.3264,6.00448 4.30976,5.94304 C4.29824,5.92 4.24064,5.8624 4.1344,5.76768 C3.89504,5.61152 3.77344,5.53728 3.76832,5.54368 C3.8016,5.48224 3.79264,5.42976 3.74272,5.38368 C3.68768,5.41824 3.65568,5.42592 3.64672,5.40928 C3.63904,5.39264 3.63136,5.36192 3.62624,5.3184 C3.61984,5.2736 3.60704,5.248 3.58528,5.24288 C3.55712,5.23648 3.52384,5.216 3.48544,5.17504 C3.97952,4.38656 4.63232,3.77088 5.44256,3.32544 C5.47584,3.32032 5.53728,3.31776 5.6256,3.31776 C5.6704,3.32288 5.71264,3.33696 5.75104,3.35872 C5.78944,3.38176 5.8304,3.4112 5.87136,3.45088 C5.9136,3.48928 5.9456,3.51744 5.96736,3.53408 C5.97888,3.5008 5.9648,3.45088 5.9264,3.38432 C5.93792,3.35104 5.99808,3.31776 6.10944,3.28448 C6.23744,3.26784 6.32064,3.2704 6.35904,3.29344 C6.32576,3.24352 6.27072,3.17312 6.19264,3.0848 L6.15168,3.12576 C6.10688,3.08736 5.9904,3.10656 5.80096,3.18464 C5.79072,3.18976 5.76256,3.20512 5.71776,3.23072 C5.67296,3.25376 5.63712,3.27296 5.61024,3.28448 C5.57568,3.296 5.5424,3.29856 5.5104,3.29216 C5.77664,3.14752 6.03776,3.03488 6.29248,2.9504 C6.30912,2.96192 6.33728,2.98496 6.37568,3.02208 C6.41536,3.05792 6.44608,3.0848 6.46784,3.10016 C6.4512,3.08992 6.43968,3.09504 6.43456,3.1168 C6.4128,3.18464 6.4128,3.23968 6.43456,3.28448 C6.46272,3.32288 6.49984,3.34592 6.5472,3.35104 C6.59456,3.35616 6.65088,3.3536 6.71744,3.34208 C6.784,3.33184 6.8288,3.32544 6.85056,3.32544 L6.93504,3.3344 C7.11168,3.35104 7.18208,3.3344 7.1424,3.28448 C7.16032,3.30624 7.17952,3.35232 7.20128,3.42144 C7.22304,3.49056 7.24864,3.5392 7.27552,3.56736 C7.30368,3.5456 7.31008,3.5072 7.29344,3.45088 C7.27552,3.39584 7.27552,3.35616 7.29344,3.3344 C7.29856,3.32288 7.3152,3.31136 7.34336,3.30112 C7.37024,3.2896 7.40224,3.2768 7.43808,3.26272 C7.4752,3.24992 7.49824,3.23968 7.50976,3.23456 C7.54304,3.21152 7.52,3.17312 7.4432,3.1168 C7.43168,3.11168 7.40736,3.10272 7.3728,3.0912 C7.33568,3.08224 7.30368,3.07072 7.27552,3.0592 C7.24864,3.04768 7.2192,3.0336 7.18848,3.01312 C7.15904,2.99392 7.14368,2.97216 7.14752,2.94656 C7.15008,2.92224 7.16544,2.88896 7.19232,2.85056 C7.2256,2.82368 7.28064,2.81216 7.35488,2.81728 C7.4304,2.82368 7.48672,2.83648 7.5264,2.85952 C7.67616,2.94144 7.6992,3.01696 7.59296,3.0848 C7.648,3.08992 7.71584,3.11168 7.79264,3.15008 C7.87072,3.18976 7.90144,3.23072 7.8848,3.27552 C7.9296,3.19232 7.97312,3.15008 8.01792,3.15008 C8.04608,3.1552 8.07168,3.19488 8.09728,3.26272 C8.12288,3.33312 8.13696,3.37024 8.14336,3.37536 C8.18688,3.4368 8.23168,3.45088 8.27648,3.41632 C8.32,3.38432 8.36608,3.33568 8.41344,3.27168 C8.4608,3.20768 8.48768,3.17824 8.4928,3.18464 C8.43776,3.1616 8.43136,3.13984 8.47616,3.1168 C8.55936,3.06688 8.63488,3.0528 8.70144,3.07584 C8.71808,3.08736 8.73984,3.11168 8.768,3.15008 C8.81792,3.2512 8.80896,3.29856 8.7424,3.29216 C8.79232,3.33696 8.81408,3.392 8.80512,3.45984 C8.79744,3.52512 8.75392,3.55712 8.67584,3.55072 C8.64896,3.55072 8.608,3.53664 8.55424,3.50976 C8.50176,3.4816 8.46208,3.46496 8.43392,3.46368 C8.40704,3.46112 8.36736,3.4752 8.31744,3.50976 C8.29568,3.53664 8.26624,3.584 8.2304,3.65056 C8.19328,3.7184 8.16128,3.76448 8.1344,3.79136 C8.0512,3.87584 7.91168,3.90656 7.71712,3.8848 C7.73376,3.8848 7.73248,3.90016 7.71328,3.93472 C7.69408,3.96672 7.6672,4.00384 7.63392,4.04736 C7.60064,4.08832 7.58144,4.11136 7.57504,4.11648 C7.52512,4.1728 7.49184,4.2368 7.4752,4.30976 C7.4752,4.32 7.47264,4.3584 7.46752,4.4224 C7.46112,4.48512 7.45088,4.53376 7.43424,4.56704 C7.5008,4.5504 7.55328,4.58368 7.59168,4.66688 C7.62496,4.74496 7.62496,4.7872 7.59168,4.7936 C7.776,4.76416 7.93728,4.77568 8.07552,4.8256 C8.2752,4.89856 8.3904,4.97024 8.41728,5.0432 C8.45056,4.992 8.5312,4.98944 8.6592,5.03424 C8.70912,5.0624 8.75392,5.1456 8.79232,5.28384 C8.81536,5.36704 8.85248,5.43872 8.90496,5.50016 C8.95744,5.5616 9.01504,5.57824 9.07648,5.55008 L9.1008,5.53472 C9.12256,5.5232 9.14048,5.51296 9.15456,5.504 C9.16864,5.49632 9.184,5.48608 9.20064,5.472 C9.21728,5.45792 9.22752,5.44512 9.23008,5.43488 C9.23264,5.42336 9.2288,5.41184 9.21728,5.40032 C9.17888,5.36704 9.14944,5.32224 9.13024,5.26336 C9.11104,5.20576 9.11488,5.15328 9.14176,5.10976 C9.15968,5.08672 9.2032,5.05344 9.27616,5.00992 C9.34784,4.96384 9.39264,4.92032 9.40928,4.87552 C9.43232,4.80256 9.40416,4.74368 9.32608,4.69632 C9.248,4.64896 9.2096,4.60672 9.2096,4.56704 C9.2096,4.53888 9.22752,4.5056 9.26336,4.4672 C9.2992,4.42752 9.31456,4.39168 9.30944,4.35968 C9.30944,4.34176 9.2992,4.30848 9.28,4.25472 C9.2608,4.20224 9.24928,4.16256 9.24672,4.13824 C9.24416,4.11264 9.25696,4.08448 9.28384,4.0512 C9.32352,4.02816 9.4144,4.02944 9.55904,4.05376 C9.70368,4.07936 9.7984,4.10496 9.84192,4.1344 C9.85856,4.14464 9.89568,4.16128 9.95072,4.18432 C10.00576,4.20608 10.0544,4.22912 10.09664,4.25472 C10.1376,4.27904 10.16192,4.30336 10.16704,4.32512 L10.12608,4.32512 C10.16448,4.35968 10.1888,4.39808 10.19648,4.4416 C10.20544,4.4864 10.18368,4.51968 10.13376,4.54144 C10.16704,4.53632 10.21184,4.544 10.26688,4.56704 C10.35648,4.60032 10.35904,4.63104 10.27584,4.6592 C10.29248,4.6528 10.31552,4.64768 10.34624,4.64128 C10.37696,4.63744 10.4,4.62848 10.41792,4.61696 C10.42816,4.61184 10.44224,4.6016 10.45888,4.58752 C10.47552,4.57472 10.48832,4.56576 10.49728,4.5632 C10.50496,4.56064 10.51776,4.5568 10.5344,4.55424 C10.55104,4.55168 10.56768,4.55552 10.58304,4.56704 C10.58944,4.56704 10.60224,4.55296 10.62144,4.52608 C10.64064,4.49792 10.66112,4.46976 10.68416,4.4416 C10.70592,4.41472 10.72512,4.40064 10.74176,4.40064 C10.7584,4.40064 10.77376,4.40704 10.78784,4.4224 C10.80192,4.4352 10.81344,4.45056 10.82112,4.4672 C10.83008,4.48384 10.83776,4.50176 10.84544,4.52224 C10.8544,4.54016 10.8608,4.55552 10.8672,4.56704 C10.87744,4.59392 10.90432,4.62464 10.94656,4.65408 C10.98752,4.68608 11.0144,4.71424 11.02464,4.7424 C11.03104,4.75904 11.04128,4.8 11.0592,4.86656 C11.07456,4.9344 11.0976,4.9792 11.12448,5.0048 C11.15264,5.02912 11.1936,5.05088 11.24992,5.06624 C11.26144,5.07264 11.28576,5.0688 11.32544,5.05984 C11.36384,5.04832 11.39584,5.04448 11.42144,5.05088 C11.44576,5.056 11.45856,5.07776 11.45856,5.11744 C11.49184,5.08416 11.50848,5.0624 11.50848,5.05088 C11.5136,5.12256 11.53152,5.18016 11.56224,5.22496 C11.59296,5.26976 11.6416,5.28896 11.70816,5.28384 L11.69152,5.46688 C11.67488,5.49376 11.63392,5.51552 11.56608,5.5296 C11.49952,5.54368 11.45856,5.5552 11.44192,5.56672 C11.42528,5.57312 11.38432,5.60512 11.32032,5.66656 C11.25632,5.728 11.23072,5.76384 11.24224,5.77536 C11.14752,5.66912 11.00544,5.63968 10.81728,5.68448 C10.6048,5.71648 10.46144,5.75104 10.38336,5.78432 C10.29376,5.82784 10.23232,5.8688 10.20032,5.90976 C10.19392,5.91488 10.18496,5.93408 10.17088,5.96736 C10.1568,6.00064 10.14272,6.03008 10.12864,6.05952 C10.11456,6.0864 10.10304,6.10048 10.09152,6.10048 C10.1248,6.09536 10.16192,6.06848 10.20416,6.0224 C10.2464,5.97376 10.272,5.94816 10.28352,5.94176 C10.42816,5.84832 10.5472,5.81376 10.64192,5.8432 C10.7648,5.8752 10.784,5.92 10.7008,5.97632 C10.68928,5.98656 10.65984,5.99168 10.61248,5.98912 C10.5664,5.98528 10.53312,5.98656 10.51776,5.99296 C10.56768,6.00448 10.60864,6.01984 10.64192,6.03776 C10.6752,6.05824 10.68416,6.08384 10.66752,6.1184 C10.75584,6.16832 10.77248,6.22336 10.71744,6.2848 C10.64448,6.35648 10.55872,6.3872 10.45888,6.37568 C10.47552,6.37568 10.47552,6.3872 10.45888,6.40896 L10.3168,6.50112 C10.30656,6.50624 10.26944,6.52032 10.208,6.54336 C10.14784,6.56384 10.1056,6.59072 10.08384,6.6176 C10.0672,6.64064 10.05824,6.67264 10.05824,6.71744 C10.05824,6.76224 10.05568,6.79552 10.05056,6.81856 C10.04544,6.84032 10.0224,6.84544 9.984,6.83392 C9.96736,6.86848 9.91616,6.89408 9.8304,6.91328 C9.74336,6.93248 9.68704,6.96192 9.65888,7.00032 C9.69216,7.04512 9.6896,7.0912 9.64992,7.13472 C9.58336,7.19104 9.52576,7.18464 9.47584,7.11808 C9.44768,7.1296 9.4272,7.15648 9.41312,7.2 C9.39904,7.24608 9.37856,7.2768 9.3504,7.29344 C9.39008,7.35488 9.38368,7.3984 9.33376,7.42528 C9.33888,7.42528 9.35168,7.43168 9.37216,7.4432 C9.39136,7.45472 9.41184,7.46752 9.4336,7.48416 C9.45664,7.50208 9.46944,7.50976 9.47584,7.50976 C9.45408,7.55968 9.42336,7.584 9.38368,7.584 C9.41696,7.6736 9.376,7.77088 9.25952,7.87584 C9.23648,7.8976 9.20192,7.92064 9.15456,7.94368 C9.1072,7.96544 9.06368,7.98336 9.02528,7.99744 C8.9856,8.01024 8.96384,8.02048 8.95872,8.0256 C8.9024,8.0768 8.86144,8.128 8.83328,8.18048 C8.8064,8.23296 8.80128,8.28416 8.82048,8.33408 C8.84096,8.384 8.89216,8.41856 8.97536,8.43392 L8.98304,8.50176 L8.98304,8.65024 L8.992,8.71808 C8.99712,8.75648 9.00224,8.79232 9.0048,8.82176 C9.00736,8.85248 9.00736,8.89216 9.0048,8.93952 C9.00224,8.9856 8.98944,9.0112 8.96768,9.0176 C8.94464,9.02272 8.91392,9.0176 8.87552,9.00096 C8.83072,8.9792 8.77824,8.85632 8.7168,8.63488 C8.70656,8.57984 8.672,8.51328 8.61696,8.43392 C8.5888,8.46208 8.56576,8.48 8.54656,8.48768 C8.52608,8.49664 8.51328,8.49792 8.50432,8.4928 C8.49664,8.4864 8.48128,8.47488 8.45824,8.45568 C8.43648,8.4352 8.41728,8.42112 8.40064,8.4096 C8.37248,8.39296 8.32384,8.37888 8.25472,8.36864 C8.1856,8.35712 8.14208,8.34304 8.12544,8.3264 C7.99232,8.42624 7.91168,8.40192 7.88352,8.25216 C7.872,8.27904 7.87456,8.31744 7.88736,8.3648 C7.90144,8.41216 7.90912,8.43776 7.90912,8.44288 C7.86944,8.51584 7.808,8.52096 7.72608,8.45952 C7.6928,8.42624 7.616,8.4224 7.49568,8.44672 C7.37664,8.47232 7.29728,8.47744 7.25888,8.45952 C7.264,8.45952 7.27552,8.46848 7.29216,8.48384 C7.3088,8.49536 7.32032,8.50432 7.32544,8.50944 C7.32032,8.5312 7.31136,8.54784 7.29984,8.55936 C7.2896,8.57088 7.27808,8.57472 7.26656,8.57216 C7.25632,8.5696 7.24352,8.5696 7.22944,8.57216 C7.21536,8.57472 7.20256,8.57984 7.19232,8.58368 C7.16928,8.6016 7.14112,8.63104 7.10912,8.672 C7.07584,8.71424 7.05024,8.74112 7.0336,8.75008 C7.06688,8.84096 7.08224,8.90752 7.07968,8.95616 C7.07712,9.00352 7.06816,9.07136 7.05408,9.16352 C7.04,9.25568 7.0336,9.32992 7.0336,9.38368 C7.0336,9.47328 7.0592,9.57696 7.11296,9.69344 C7.16544,9.80992 7.22816,9.89056 7.29984,9.93408 C7.33952,9.95712 7.40608,9.96992 7.5008,9.97504 C7.59424,9.98144 7.66208,9.97504 7.70048,9.95968 C7.73376,9.94304 7.75808,9.92256 7.776,9.9008 C7.79136,9.87904 7.80544,9.84704 7.81696,9.80608 C7.82848,9.76384 7.83616,9.7344 7.84128,9.71776 C7.88096,9.61152 7.95264,9.55648 8.05888,9.55136 C8.12544,9.54496 8.17408,9.55264 8.2048,9.57184 C8.23424,9.59232 8.24704,9.61792 8.24192,9.6512 C8.23552,9.68448 8.22528,9.71904 8.20864,9.75616 C8.192,9.792 8.17152,9.83168 8.14592,9.87648 C8.1216,9.92 8.10624,9.95456 8.09984,9.97632 C8.0896,10.02112 8.07936,10.08256 8.07168,10.16448 C8.06272,10.24384 8.05632,10.29248 8.04992,10.3104 C8.06144,10.31552 8.1024,10.31808 8.17536,10.31808 C8.17536,10.30656 8.1792,10.28992 8.18816,10.26432 C8.19584,10.23872 8.20096,10.22464 8.20096,10.21824 C8.22784,10.26304 8.27264,10.28864 8.33408,10.29248 C8.39424,10.29888 8.43904,10.27712 8.4672,10.2272 C8.47872,10.24256 8.512,10.28608 8.56704,10.35136 C8.62336,10.41792 8.65408,10.47424 8.6592,10.51776 C8.66432,10.5408 8.67584,10.57664 8.69248,10.62656 C8.70912,10.67648 8.71424,10.71232 8.70912,10.73024 C8.704,10.75072 8.67584,10.76096 8.62592,10.76096 C8.60416,10.76096 8.5888,10.76864 8.58368,10.78528 C8.57856,10.80192 8.57856,10.82368 8.58368,10.848 C8.59008,10.8736 8.59648,10.89536 8.60544,10.9184 C8.61312,10.94016 8.62464,10.96448 8.63744,10.9888 C8.6528,11.0144 8.6592,11.02976 8.6592,11.03488 C8.75904,11.21792 8.89472,11.26784 9.06752,11.18592 C9.06752,11.34592 9.02912,11.43424 8.95104,11.45216 C8.90624,11.46368 8.85632,11.43424 8.80128,11.36768 M13.5424,4.78848 C12.97024,3.808 12.19328,3.03232 11.2128,2.45888 C10.23232,1.88672 9.16224,1.6 8,1.6 C6.84032,1.6 5.76896,1.88672 4.78848,2.45888 C3.80672,3.03104 3.03104,3.80672 2.45888,4.78848 C1.88672,5.76768 1.6,6.83904 1.6,8 C1.6,9.16224 1.88672,10.23232 2.45888,11.2128 C3.03104,12.19328 3.80672,12.96896 4.78848,13.5424 C5.76896,14.11456 6.83904,14.4 8,14.4 C9.16224,14.4 10.23232,14.11456 11.2128,13.5424 C12.19328,12.97024 12.97024,12.19328 13.5424,11.2128 C14.11456,10.23232 14.4,9.16224 14.4,8 C14.4,6.83904 14.11456,5.76768 13.5424,4.78848" id="Fill-1" fill-opacity="0.5" fill="#1A1A1A"></path>
        </g>
    </g>
</svg>