<?xml version="1.0" encoding="utf-8"?>
<!-- Generator: Adobe Illustrator 25.4.2, SVG Export Plug-In . SVG Version: 6.00 Build 0)  -->
<svg version="1.1" id="Layer_1" xmlns="http://www.w3.org/2000/svg" xmlns:xlink="http://www.w3.org/1999/xlink" x="0px" y="0px"
	 viewBox="0 0 16 16" style="enable-background:new 0 0 16 16;" xml:space="preserve">
<style type="text/css">
	.st0{opacity:0.5;}
</style>
<desc>Created with Sketch.</desc>
<g class="st0">
	<g>
		<g>
			<path d="M13.3,6.4c0.2,0.5,0.2,1.1,0.2,1.6c0,3.1-2.5,5.6-5.6,5.6S2.4,11.1,2.4,8S4.9,2.4,8,2.4c0.6,0,1.1,0.1,1.6,0.2V1.1
				C9.1,1,8.6,0.9,8,0.9C4.1,0.9,0.9,4.1,0.9,8s3.2,7.1,7.1,7.1s7.1-3.2,7.1-7.1c0-0.6-0.1-1.1-0.2-1.6H13.3z"/>
		</g>
		<g>
			<path d="M10.4,2.7c0.5,0,1.1,0,1.6,0c0-0.6,0-1.1,0-1.6c0.4,0,0.8,0,1.2,0c0,0.5,0,1.1,0,1.6c0.6,0,1.1,0,1.6,0
				c0,0.4,0,0.8,0,1.2c-0.5,0-1.1,0-1.6,0c0,0.6,0,1.1,0,1.6c-0.4,0-0.8,0-1.2,0c0-0.5,0-1.1,0-1.6c-0.6,0-1.1,0-1.6,0
				C10.4,3.5,10.4,3.2,10.4,2.7z"/>
		</g>
	</g>
	<g>
		<path d="M7,5.4v5.1H5.6V7.2C5.4,7.4,5.1,7.5,4.9,7.6C4.7,7.7,4.4,7.8,4.1,7.9V6.8C4.6,6.6,5,6.5,5.2,6.2C5.5,6,5.7,5.8,5.8,5.4H7z
			"/>
		<path d="M11.9,10.6H7.7c0-0.4,0.2-0.8,0.4-1.2C8.4,9,8.8,8.6,9.5,8.1c0.4-0.3,0.7-0.5,0.8-0.7c0.1-0.2,0.2-0.3,0.2-0.4
			c0-0.2-0.1-0.3-0.2-0.4C10.2,6.5,10,6.4,9.9,6.4c-0.2,0-0.3,0.1-0.4,0.2C9.3,6.7,9.2,6.9,9.2,7.2L7.8,7.1C7.9,6.7,8,6.4,8.1,6.1
			c0.1-0.2,0.4-0.4,0.6-0.5C9,5.5,9.4,5.4,9.8,5.4c0.5,0,0.9,0.1,1.1,0.2c0.3,0.1,0.5,0.3,0.6,0.5c0.2,0.2,0.2,0.5,0.2,0.8
			c0,0.3-0.1,0.6-0.3,0.9c-0.2,0.3-0.5,0.6-1,0.9C10.3,8.9,10.1,9,10,9.1C9.9,9.2,9.8,9.3,9.7,9.4h2.2V10.6z"/>
	</g>
</g>
</svg>
