<?xml version="1.0" encoding="UTF-8"?>
<svg width="16px" height="16px" viewBox="0 0 16 16" version="1.1" xmlns="http://www.w3.org/2000/svg" xmlns:xlink="http://www.w3.org/1999/xlink">
    <!-- Generator: Sketch 63.1 (92452) - https://sketch.com -->
    <title>guild_icon_noeye</title>
    <desc>Created with Sketch.</desc>
    <defs>
        <path d="M7.79411765,2.59893048 C9.56524064,2.59893048 11.0026738,4.03636364 11.0026738,5.80748663 C11.0026738,6.13475936 10.9385027,6.44919786 10.8486631,6.74438503 L12.8122995,8.70802139 C13.7042781,7.91871658 14.4101604,6.93048128 14.8529412,5.80106952 C13.7427807,2.99037433 11.0026738,0.994652406 7.79411765,0.994652406 C6.97914439,0.994652406 6.19625668,1.12299465 5.45828877,1.36042781 L6.85080214,2.75294118 C7.15240642,2.6631016 7.46684492,2.59893048 7.79411765,2.59893048 Z M2.28823529,0 L1.38342246,0.911229947 L3.10320856,2.63101604 C2.05721925,3.45240642 1.22941176,4.54331551 0.735294118,5.80748663 C1.84545455,8.62459893 4.5855615,10.6203209 7.79411765,10.6203209 C8.76951872,10.6203209 9.7,10.4278075 10.559893,10.0941176 L12.7609626,12.2951872 L13.6657754,11.3903743 L2.28823529,0 Z M7.79411765,9.01604278 C6.02299465,9.01604278 4.5855615,7.57860963 4.5855615,5.80748663 C4.5855615,5.31336898 4.70106952,4.84491979 4.9,4.4342246 L5.90748663,5.44171123 C5.88823529,5.55721925 5.86898396,5.67914439 5.86898396,5.80748663 C5.86898396,6.87272727 6.72887701,7.73262032 7.79411765,7.73262032 C7.92245989,7.73262032 8.03796791,7.71336898 8.15989305,7.68770053 L9.16737968,8.69518717 C8.75026738,8.90053476 8.28823529,9.01604278 7.79411765,9.01604278 Z M9.7,5.59572193 C9.60374332,4.6973262 8.89786096,3.99786096 8.00588235,3.90160428 L9.7,5.59572193 Z" id="path-1"></path>
    </defs>
    <g id="guild_icon_noeye" stroke="none" stroke-width="1" fill="none" fill-rule="evenodd">
        <g id="Icon-24px">
            <polygon id="Shape" points="0 0 16 0 16 16 0 16"></polygon>
            <g id="群組-9" transform="translate(0.000000, 2.000000)">
                <mask id="mask-2" fill="white">
                    <use xlink:href="#path-1"></use>
                </mask>
                <use id="icon/action/visibility_off_24px" fill-opacity="0.5" fill="#1A1A1A" fill-rule="nonzero" xlink:href="#path-1"></use>
            </g>
        </g>
    </g>
</svg>