<?xml version="1.0" encoding="utf-8"?>
<!-- Generator: Adobe Illustrator 22.0.1, SVG Export Plug-In . SVG Version: 6.00 Build 0)  -->
<svg version="1.1" id="圖層_1" xmlns="http://www.w3.org/2000/svg" xmlns:xlink="http://www.w3.org/1999/xlink" x="0px" y="0px"
	 viewBox="0 0 60 60" style="enable-background:new 0 0 60 60;" xml:space="preserve">
<style type="text/css">
	.st0{fill:url(#SVGID_1_);stroke:#4D4D4D;}
	.st1{fill:#B3B3B3;}
	.st2{fill:url(#SVGID_2_);stroke:#FFFFFF;stroke-width:0.25;}
	.st3{fill:url(#SVGID_3_);}
	.st4{fill:#006934;}
	.st5{opacity:0.3;fill:#FFFFFF;}
	.st6{fill:#231815;}
	.st7{fill:none;stroke:#231815;stroke-width:3;}
	.st8{fill:#FFFFFF;}
</style>
<g>
	<linearGradient id="SVGID_1_" gradientUnits="userSpaceOnUse" x1="30" y1="4.8207" x2="30" y2="57.2309">
		<stop  offset="0.4396" style="stop-color:#F2F2F2"/>
		<stop  offset="1" style="stop-color:#B3B3B3"/>
	</linearGradient>
	<path class="st0" d="M47,2.6c-4.5,1-10.7,1.6-17,1.7c-6.3,0-12.6-0.6-17-1.7c0,0-23.9,39.3,17,54.9C70.9,41.8,47,2.6,47,2.6z"/>
	<path class="st1" d="M30.2,4.7C30.2,4.7,30.2,4.7,30.2,4.7l0,52.4c0,0,0,0,0,0C70.4,41.6,46.9,3,46.9,3C42.6,4,36.4,4.6,30.2,4.7z"
		/>
	<linearGradient id="SVGID_2_" gradientUnits="userSpaceOnUse" x1="30.0001" y1="51.376" x2="30.0001" y2="9.6016">
		<stop  offset="0" style="stop-color:#4D4D4D"/>
		<stop  offset="1" style="stop-color:#B3B3B3"/>
	</linearGradient>
	<path class="st2" d="M43.6,8.1C40,8.9,35,9.4,30,9.4c-5,0-10-0.5-13.6-1.3c0,0-19,31.3,13.6,43.8C62.6,39.5,43.6,8.1,43.6,8.1z"/>
	<linearGradient id="SVGID_3_" gradientUnits="userSpaceOnUse" x1="30.0981" y1="11.5069" x2="30.0981" y2="8.39">
		<stop  offset="0" style="stop-color:#4D4D4D"/>
		<stop  offset="1" style="stop-color:#808080"/>
	</linearGradient>
	<path class="st3" d="M43.4,8.4C40,9.2,35,9.7,30.1,9.8c-4.8,0-10.2-0.6-13.6-1.4c0,0,0.4,0.6,0.3,0.6l1,1.6L41,11.5l1.5-1.6
		l1.2-1.7C43.7,8.3,43.4,8.4,43.4,8.4z"/>
	<path class="st4" d="M42.5,9.9c-3.3,0.7-7.9,1.2-12.5,1.2c-4.6,0-9.2-0.5-12.5-1.2c0,0-17.5,28.8,12.5,40.2
		C60,38.7,42.5,9.9,42.5,9.9z"/>
	<path class="st5" d="M29.9,11.1c-4.6,0-9.1-0.5-12.4-1.2c0,0-17.4,28.7,12.4,40.2V11.1z"/>
	<g>
		<g>
			<path class="st6" d="M26.2,37.3h-9.5v-2.9h2.7V23.9h-2.7V21h9.5v2.9h-2.7v10.6h2.7V37.3z"/>
			<path class="st6" d="M44.4,21l-5.9,16.4h-4.7L27.8,21h4.4l3.9,11.5L40.1,21H44.4z"/>
		</g>
		<g>
			<path class="st7" d="M26.2,37.3h-9.5v-2.9h2.7V23.9h-2.7V21h9.5v2.9h-2.7v10.6h2.7V37.3z"/>
			<path class="st7" d="M44.4,21l-5.9,16.4h-4.7L27.8,21h4.4l3.9,11.5L40.1,21H44.4z"/>
		</g>
		<g>
			<path class="st8" d="M26.2,37.3h-9.5v-2.9h2.7V23.9h-2.7V21h9.5v2.9h-2.7v10.6h2.7V37.3z"/>
			<path class="st8" d="M44.4,21l-5.9,16.4h-4.7L27.8,21h4.4l3.9,11.5L40.1,21H44.4z"/>
		</g>
	</g>
</g>
</svg>
