<?xml version="1.0" encoding="UTF-8"?>
<svg width="16px" height="16px" viewBox="0 0 16 16" version="1.1" xmlns="http://www.w3.org/2000/svg" xmlns:xlink="http://www.w3.org/1999/xlink">
    <!-- Generator: Sketch 63.1 (92452) - https://sketch.com -->
    <title>guild_icon_lock_16px</title>
    <desc>Created with Sketch.</desc>
    <defs>
        <polygon id="path-1" points="0 0 16 0 16 16 0 16"></polygon>
    </defs>
    <g id="guild_icon_lock_16px" stroke="none" stroke-width="1" fill="none" fill-rule="evenodd" opacity="0.504487537">
        <g>
            <mask id="mask-2" fill="white">
                <use xlink:href="#path-1"></use>
            </mask>
            <g id="Clip-2"></g>
            <path d="M10.1765716,6.53506892 L5.82324919,6.53506892 L5.82324919,5.12034622 C5.82324919,4.02909355 6.79980723,3.14136525 8.00008977,3.14136525 C9.20019292,3.14136525 10.1765716,4.02909355 10.1765716,5.12034622 L10.1765716,6.53506892 Z M8.67184619,11.0070604 L8.67184619,12.5714501 C8.67184619,12.7080707 8.54996141,12.8187616 8.39964582,12.8187616 L7.60017496,12.8187616 C7.44985937,12.8187616 7.32810913,12.7080707 7.32810913,12.5714501 L7.32810913,11.0070604 C7.03088606,10.8154816 6.83662379,10.500451 6.83662379,10.1438757 C6.83662379,9.55988466 7.35739197,9.08625833 7.99991039,9.08625833 C8.64242882,9.08625833 9.16319699,9.55988466 9.16319699,10.1438757 C9.16319699,10.500451 8.9691141,10.8154816 8.67184619,11.0070604 L8.67184619,11.0070604 Z M12.902387,6.53506892 L12.1654728,6.53506892 L12.1654728,5.12034622 C12.1654728,3.03214213 10.2967523,1.33333333 8.00008977,1.33333333 C5.70324784,1.33333333 3.83452731,3.03214213 3.83452731,5.12034622 L3.83452731,6.53506892 L3.09761321,6.53506892 C2.85953879,6.53506892 2.66666667,6.71042115 2.66666667,6.92686964 L2.66666667,14.2748659 C2.66666667,14.4911514 2.85953879,14.6666667 3.09761321,14.6666667 L12.902387,14.6666667 C13.140282,14.6666667 13.3333335,14.4911514 13.3333335,14.2748659 L13.3333335,6.92686964 C13.3331541,6.71042115 13.140282,6.53506892 12.902387,6.53506892 L12.902387,6.53506892 Z" id="Fill-1" fill="#1A1A1A" mask="url(#mask-2)"></path>
        </g>
    </g>
</svg>