<?xml version="1.0" encoding="utf-8"?>
<!-- Generator: Adobe Illustrator 25.4.2, SVG Export Plug-In . SVG Version: 6.00 Build 0)  -->
<svg version="1.1" id="Layer_1" xmlns="http://www.w3.org/2000/svg" xmlns:xlink="http://www.w3.org/1999/xlink" x="0px" y="0px"
	 viewBox="0 0 16 16" style="enable-background:new 0 0 16 16;" xml:space="preserve">
<style type="text/css">
	.st0{opacity:0.5;}
	.st1{fill:#1A1A1A;}
</style>
<desc>Created with Sketch.</desc>
<g class="st0">
	<path class="st1" d="M0.9,9.2c0-0.1,0-0.3,0-0.4c0,0,0-0.1,0-0.1C1,8.3,1.3,7.9,1.7,7.7c0.2-0.1,0.2-0.2,0.2-0.4
		C1.8,6.6,1.7,6,1.8,5.4c0.2-1.9,1.6-2.8,3-2.9c0.1,0,0.2-0.1,0.3-0.1c0.8-0.6,1.7-1,2.8-1c0.6,0,1.2,0,1.8,0.2
		c1.1,0.2,2.1,0.6,2.9,1.3c1.1,0.8,1.6,1.9,1.6,3.2c0,0.5-0.1,1-0.1,1.5c0,0.1,0,0.1,0.1,0.2c0.4,0.2,0.7,0.5,0.8,1
		c0,0.1,0,0.2,0.1,0.3c0,0.1,0,0.3,0,0.4c0,0,0,0,0,0.1c-0.2,0.8-0.6,1.2-1.4,1.4c0,0-0.1,0.1-0.1,0.1c-0.1,0.3-0.3,0.6-0.4,0.9
		c-1.5,2.7-4.9,3.8-7.7,2.5c-1.5-0.7-2.5-1.8-3-3.3c0-0.1-0.1-0.1-0.2-0.1C1.6,10.5,1.2,10.1,1,9.5C0.9,9.4,0.9,9.3,0.9,9.2z
		 M5.9,5.8C5.7,6,5.6,6.2,5.4,6.4C5,6.9,4.4,7.2,3.7,7.4c-0.1,0-0.1,0.1-0.1,0.1C3.4,8.2,3.2,8.8,3,9.5c0,0,0,0.1,0,0.1
		c0.5,2.6,2.9,4.5,5.6,4.1c2.1-0.3,3.9-1.9,4.3-4c0-0.1,0-0.2,0-0.4c-0.2-0.6-0.3-1.1-0.5-1.7c0-0.1-0.1-0.1-0.2-0.1
		c-0.9,0-1.9-0.1-2.8-0.2C8.2,7.1,6.9,6.7,5.9,5.8z"/>
	<path class="st1" d="M8,12.6c-0.7,0-1.2-0.2-1.7-0.7C6,11.7,6,11.5,6.2,11.3c0.2-0.2,0.4-0.2,0.7,0c0.7,0.6,1.6,0.6,2.3,0
		c0.2-0.2,0.4-0.2,0.6,0c0.2,0.1,0.2,0.4,0.1,0.6c0,0.1-0.1,0.1-0.1,0.1C9.3,12.4,8.7,12.6,8,12.6z"/>
	<path class="st1" d="M11.3,9c0,0.5-0.4,0.9-0.9,0.9C9.9,9.9,9.5,9.5,9.5,9c0-0.5,0.4-0.9,0.9-0.9C10.9,8.1,11.3,8.5,11.3,9z"/>
	<path class="st1" d="M5.6,8.1c0.5,0,0.9,0.4,0.9,0.9c0,0.5-0.4,0.9-0.9,0.9C5.1,9.9,4.7,9.5,4.7,9C4.7,8.5,5.1,8.1,5.6,8.1z"/>
</g>
</svg>
