<?xml version="1.0" encoding="utf-8"?>
<!-- Generator: Adobe Illustrator 15.1.0, SVG Export Plug-In  -->
<!DOCTYPE svg PUBLIC "-//W3C//DTD SVG 1.1//EN" "http://www.w3.org/Graphics/SVG/1.1/DTD/svg11.dtd" [
	<!ENTITY ns_flows "http://ns.adobe.com/Flows/1.0/">
]>
<svg version="1.1"
	 xmlns="http://www.w3.org/2000/svg" xmlns:xlink="http://www.w3.org/1999/xlink" xmlns:a="http://ns.adobe.com/AdobeSVGViewerExtensions/3.0/"
	 x="0px" y="0px" width="130px" height="31px" viewBox="0.081 0.136 130 31" enable-background="new 0.081 0.136 130 31"
	 xml:space="preserve">
<defs>
</defs>
<g>
	<g>
		<g>
			<path fill="none" stroke="#91000A" stroke-width="0.2835" stroke-linecap="round" stroke-linejoin="round" d="M3.573,7.11
				c0.016,0.027,5.414-3.162,5.429-3.135c0.014,0.024-4.537,3.106-4.523,3.13c0.016,0.027,5.416-3.163,5.432-3.136
				c0.013,0.022-4.153,3.107-4.14,3.129c0.016,0.027,5.418-3.165,5.434-3.137c0.013,0.023-4.339,3.108-4.326,3.132
				C6.895,7.12,12.3,3.927,12.316,3.954c0.015,0.025-5.024,3.111-5.009,3.137c0.016,0.027,5.423-3.167,5.438-3.14
				c0.013,0.022-3.976,3.11-3.963,3.132c0.016,0.028,5.426-3.169,5.442-3.142c0.012,0.021-3.853,3.112-3.84,3.134
				c0.016,0.027,5.43-3.171,5.445-3.144c0.014,0.025-4.838,3.116-4.824,3.141C11.022,7.1,16.438,3.9,16.453,3.928
				c0.015,0.025-4.967,3.117-4.953,3.143c0.016,0.027,5.433-3.173,5.448-3.146c0.013,0.022-4.037,3.116-4.024,3.138
				c0.016,0.027,5.436-3.175,5.452-3.147c0.015,0.025-4.976,3.12-4.96,3.145c0.016,0.027,5.437-3.175,5.453-3.148
				c0.012,0.021-3.817,3.119-3.805,3.14c0.016,0.028,5.442-3.178,5.458-3.15c0.014,0.025-4.855,3.123-4.841,3.147
				c0.016,0.027,5.442-3.179,5.458-3.151c0.014,0.024-4.545,3.123-4.531,3.147c0.016,0.027,5.445-3.18,5.46-3.153
				c0.012,0.021-3.787,3.123-3.775,3.145c0.016,0.027,5.45-3.183,5.465-3.155c0.015,0.026-5.024,3.127-5.009,3.153
				c0.016,0.027,5.45-3.183,5.466-3.156c0.013,0.023-4.229,3.127-4.216,3.15c0.016,0.027,5.453-3.186,5.469-3.158
				c0.013,0.022-4.255,3.128-4.242,3.151c0.013,0.022,4.521-2.64,4.534-2.617c0.011,0.02-3.78,2.593-3.769,2.613
				c0.011,0.019,3.76-2.196,3.771-2.177c0.011,0.019-3.375,2.745-3.365,2.764c0.01,0.017,3.36-1.962,3.37-1.945
				c0.011,0.019-3.375,2.694-3.364,2.712c0.01,0.017,3.359-1.962,3.369-1.945c0.01,0.018-3.377,2.193-3.367,2.21
				s3.359-1.961,3.369-1.945c0.011,0.019-3.375,2.36-3.365,2.378c0.01,0.017,3.358-1.961,3.368-1.944
				c0.01,0.018-3.376,2.205-3.366,2.222c0.01,0.017,3.357-1.96,3.367-1.944c0.011,0.019-3.373,2.785-3.362,2.804
				c0.01,0.017,3.357-1.96,3.367-1.944c0.01,0.017-3.375,2.092-3.365,2.109s3.356-1.96,3.366-1.943
				c0.01,0.019-3.373,2.481-3.363,2.499c0.01,0.017,3.356-1.959,3.366-1.943c0.01,0.017-3.375,2.083-3.365,2.1
				c0.01,0.017,3.356-1.96,3.366-1.943c0.01,0.018-3.373,2.324-3.363,2.342c0.01,0.017,3.355-1.96,3.365-1.943
				c0.011,0.019-3.371,2.744-3.359,2.763c0.01,0.017,3.354-1.959,3.364-1.942c0.01,0.018-3.371,2.588-3.36,2.606
				c0.01,0.017,3.354-1.959,3.364-1.942c0.01,0.018-3.37,2.528-3.359,2.546c0.01,0.017,3.353-1.958,3.363-1.941
				c0.01,0.019-3.369,2.488-3.359,2.506c0.01,0.017,3.352-1.958,3.362-1.941c0.011,0.019-3.368,2.65-3.357,2.669
				c0.01,0.017,3.352-1.958,3.361-1.941c0.01,0.019-3.367,2.564-3.357,2.583c0.01,0.017,3.351-1.957,3.36-1.94
				c0.01,0.017-3.37,2.006-3.36,2.023c0.009,0.016,3.351-1.957,3.36-1.94c0.011,0.019-3.365,2.89-3.354,2.909
				c0.01,0.017,3.349-1.957,3.359-1.939c0.01,0.017-3.368,2.152-3.358,2.169s3.35-1.956,3.359-1.939
				c0.01,0.018-3.367,2.188-3.357,2.205s3.349-1.956,3.359-1.939c0.011,0.019-3.364,2.737-3.354,2.756
				c0.01,0.017,3.349-1.956,3.358-1.939c0.011,0.018-3.365,2.406-3.354,2.424c0.01,0.017,3.348-1.955,3.357-1.938
				c0.01,0.018-3.365,2.313-3.354,2.332c0.009,0.016,3.347-1.956,3.357-1.938c0.01,0.018-3.364,2.306-3.354,2.324
				c0.01,0.017,3.346-1.955,3.356-1.938s-3.366,1.988-3.356,2.005s3.346-1.955,3.356-1.938c0.01,0.018-3.364,2.246-3.354,2.264
				c0.01,0.017,3.346-1.955,3.356-1.938c0.01,0.017-3.365,2.009-3.355,2.026c0.01,0.017,3.346-1.955,3.356-1.938
				c0.01,0.018-3.364,2.322-3.354,2.339c0.01,0.017,3.346-1.954,3.355-1.937c0.01,0.017-3.365,1.996-3.355,2.013
				c0.01,0.017,3.346-1.955,3.355-1.938c0.01,0.018-3.364,2.117-3.354,2.135c0.009,0.017,3.345-1.954,3.355-1.937
				c0.01,0.018-3.361,2.533-3.351,2.551c0.01,0.017,3.345-1.953,3.354-1.937c0.01,0.017-3.364,1.938-3.354,1.955
				s3.345-1.954,3.354-1.937c0.01,0.018-3.363,2.173-3.353,2.19c0.01,0.017,3.344-1.954,3.354-1.937
				c0.01,0.018-3.363,2.09-3.353,2.107c0.01,0.017,3.344-1.953,3.354-1.937c0.01,0.018-3.36,2.489-3.35,2.507
				c0.01,0.017,3.344-1.952,3.353-1.936c0.01,0.018-3.361,2.17-3.351,2.188c0.009,0.017,3.343-1.953,3.353-1.936
				c0.011,0.018-3.359,2.515-3.349,2.533c0.01,0.017,3.343-1.952,3.353-1.936c0.01,0.017-3.362,1.958-3.352,1.975
				c0.01,0.017,3.342-1.953,3.352-1.936s-3.361,1.959-3.352,1.976c0.01,0.017,3.342-1.952,3.352-1.935
				c0.01,0.017-3.361,1.989-3.352,2.005c0.01,0.017,3.342-1.952,3.352-1.935s-3.361,2.172-3.351,2.19
				c0.01,0.017,3.342-1.952,3.352-1.935c0.01,0.017-3.361,2.013-3.351,2.03s3.342-1.952,3.352-1.935
				c0.011,0.018-3.357,2.574-3.347,2.593c0.01,0.017,3.341-1.951,3.351-1.935c0.01,0.017-3.36,2.012-3.351,2.029
				c0.009,0.017,3.341-1.952,3.351-1.935c0.011,0.019-3.355,2.735-3.345,2.753c0.01,0.017,3.34-1.951,3.349-1.934"/>
			<path fill="none" stroke="#91000A" stroke-width="0.2835" stroke-linecap="round" stroke-linejoin="round" d="M3.511,28.185
				c0.016,0.027,5.522-3.226,5.538-3.198c0.015,0.025-5.007,3.168-4.992,3.194c0.016,0.028,5.521-3.225,5.537-3.197
				c0.013,0.023-4.375,3.166-4.362,3.189c0.016,0.028,5.518-3.222,5.534-3.195c0.014,0.025-4.773,3.165-4.759,3.19
				c0.016,0.028,5.515-3.221,5.531-3.193c0.014,0.024-4.592,3.163-4.578,3.187c0.016,0.027,5.513-3.22,5.529-3.192
				c0.015,0.025-4.938,3.163-4.924,3.188c0.016,0.028,5.511-3.219,5.527-3.191c0.013,0.023-4.204,3.16-4.191,3.183
				c0.016,0.028,5.507-3.217,5.523-3.189c0.015,0.027-5.31,3.161-5.294,3.188c0.016,0.027,5.507-3.216,5.523-3.189
				c0.016,0.027-5.409,3.161-5.393,3.188c0.016,0.028,5.506-3.216,5.522-3.188c0.015,0.025-4.938,3.159-4.924,3.184
				c0.016,0.028,5.505-3.215,5.521-3.188c0.015,0.025-4.963,3.159-4.949,3.184c0.016,0.027,5.504-3.214,5.52-3.187
				c0.016,0.027-5.514,3.159-5.498,3.187c0.016,0.027,5.504-3.214,5.52-3.187c0.013,0.021-3.888,3.154-3.875,3.176
				c0.016,0.027,5.499-3.212,5.515-3.184c0.013,0.022-4.056,3.152-4.043,3.174c0.016,0.028,5.495-3.209,5.511-3.182
				c0.012,0.021-3.82,3.149-3.808,3.171c0.016,0.027,5.491-3.207,5.506-3.179c0.013,0.022-4.136,3.147-4.124,3.17
				c0.016,0.027,5.487-3.205,5.503-3.177c0.015,0.025-5.003,3.148-4.989,3.174c0.025,0.043,8.669-5.063,8.694-5.02
				c0.024,0.041-8.062,4.975-8.038,5.015s8.017-4.682,8.04-4.642c0.021,0.036-6.891,4.599-6.87,4.635
				c0.02,0.034,6.854-4.003,6.874-3.969c0.017,0.029-5.451,3.93-5.434,3.959c0.016,0.027,5.423-3.167,5.438-3.14
				c0.016,0.027-5.383,3.113-5.367,3.14s5.352-3.125,5.367-3.099c0.013,0.021-3.887,3.068-3.874,3.089
				c0.011,0.02,3.868-2.259,3.879-2.24c0.01,0.018-3.419,2.475-3.409,2.493c0.01,0.018,3.402-1.986,3.412-1.969
				c0.011,0.019-3.408,2.499-3.397,2.517c0.01,0.017,3.391-1.98,3.4-1.963c0.01,0.018-3.402,2.296-3.392,2.313
				c0.01,0.017,3.384-1.976,3.394-1.959c0.01,0.018-3.393,2.394-3.382,2.412c0.01,0.017,3.375-1.971,3.385-1.955
				c0.01,0.018-3.388,2.249-3.377,2.266c0.01,0.017,3.369-1.967,3.379-1.951c0.011,0.019-3.371,2.68-3.359,2.699
				c0.009,0.017,3.354-1.959,3.364-1.942c0.007,0.013-2.258,1.985-2.251,1.998c0.007,0.012,2.248-1.313,2.255-1.302
				c0.006,0.01-1.979,1.286-1.974,1.296c0.006,0.01,1.969-1.15,1.974-1.14c0.005,0.009-1.706,1.125-1.701,1.135
				c0.005,0.008,1.697-0.992,1.703-0.983c0.002,0.003-0.145,0.945-0.142,0.95c0,0.001,0.146-0.085,0.146-0.085"/>
			<path fill="none" stroke="#91000A" stroke-width="0.2835" stroke-linecap="round" stroke-linejoin="round" d="M0.142,4.098
				c0,0,0.142-0.083,0.143-0.083c0.002,0.004-0.142,0.947-0.14,0.952C0.149,4.976,1.8,4,1.805,4.008
				C1.811,4.018,0.141,5.49,0.146,5.5c0.007,0.013,2.583-1.509,2.591-1.496c0.007,0.013-2.598,1.541-2.591,1.554
				C0.154,5.572,2.831,3.99,2.838,4.004S0.139,5.713,0.147,5.727c0.009,0.015,2.979-1.74,2.987-1.725
				c0.009,0.016-2.995,2.028-2.986,2.044C0.159,6.064,3.684,3.982,3.694,4C3.705,4.019,0.139,6.481,0.15,6.5
				c0.013,0.021,4.324-2.525,4.336-2.503C4.5,4.019,0.139,7.129,0.152,7.153c0.016,0.027,5.46-3.189,5.477-3.162
				C5.646,4.02,0.138,7.752,0.154,7.781c0.019,0.033,6.555-3.828,6.574-3.795c0.02,0.034-6.592,4.129-6.573,4.163
				C0.176,8.185,7.35,3.947,7.371,3.983C7.392,4.02,0.136,8.53,0.157,8.567C0.18,8.606,8.08,3.94,8.103,3.979
				c0.023,0.04-7.969,4.644-7.945,4.684c0.023,0.041,8.09-4.725,8.113-4.684C8.294,4.02,0.134,8.786,0.158,8.827
				c0.024,0.042,8.375-4.891,8.399-4.849C8.582,4.021,0.135,9.269,0.16,9.312C0.168,9.328,3.289,7.484,3.298,7.5
				C3.307,7.516,0.15,9.31,0.159,9.325c0.009,0.016,3.13-1.828,3.139-1.812c0.01,0.018-3.146,2.665-3.136,2.683
				c0.009,0.016,3.133-1.83,3.142-1.814c0.01,0.017-3.149,2.219-3.14,2.235c0.009,0.016,3.134-1.831,3.143-1.815
				c0.01,0.018-3.15,2.488-3.141,2.506c0.009,0.016,3.136-1.832,3.146-1.816c0.009,0.016-3.154,1.954-3.145,1.97
				c0.009,0.016,3.136-1.832,3.146-1.816c0.01,0.018-3.153,2.62-3.143,2.637c0.009,0.016,3.14-1.833,3.148-1.818
				c0.01,0.017-3.156,2.327-3.146,2.344c0.009,0.016,3.141-1.834,3.15-1.818c0.009,0.016-3.159,1.881-3.15,1.897
				c0.009,0.016,3.142-1.834,3.15-1.819c0.01,0.018-3.158,2.508-3.148,2.525c0.009,0.016,3.144-1.836,3.153-1.82
				c0.009,0.016-3.162,1.938-3.152,1.954s3.144-1.836,3.153-1.82c0.009,0.017-3.162,2.116-3.152,2.132
				c0.009,0.016,3.146-1.837,3.155-1.821c0.009,0.016-3.163,1.876-3.154,1.892c0.009,0.016,3.146-1.837,3.155-1.821
				c0.01,0.018-3.162,2.608-3.152,2.626c0.009,0.016,3.148-1.838,3.157-1.823c0.009,0.016-3.167,1.822-3.157,1.837
				c0.009,0.016,3.148-1.838,3.157-1.823c0.009,0.016-3.166,2.128-3.156,2.145c0.009,0.016,3.149-1.839,3.158-1.824
				c0.01,0.018-3.166,2.573-3.156,2.59c0.009,0.016,3.152-1.84,3.161-1.825c0.009,0.016-3.169,1.905-3.161,1.921
				c0.009,0.016,3.152-1.84,3.161-1.825c0.01,0.017-3.169,2.407-3.159,2.424c0.009,0.016,3.153-1.842,3.163-1.826
				c0.01,0.017-3.171,2.25-3.161,2.267c0.009,0.016,3.156-1.843,3.165-1.827c0.01,0.018-3.173,2.414-3.163,2.431
				c0.009,0.016,3.157-1.844,3.167-1.829c0.01,0.017-3.174,2.372-3.165,2.389c0.009,0.016,3.16-1.845,3.168-1.83
				c0.01,0.017-3.177,2.126-3.168,2.143c0.009,0.016,3.161-1.846,3.17-1.83c0.01,0.017-3.177,2.27-3.167,2.287
				c0.009,0.016,3.162-1.847,3.171-1.831s-3.18,2.161-3.17,2.177c0.009,0.016,3.163-1.848,3.172-1.832
				c0.009,0.017-3.181,2.139-3.171,2.155c0.009,0.016,3.164-1.848,3.173-1.832c0.01,0.016-3.182,2.189-3.172,2.206
				c0.009,0.016,3.166-1.848,3.175-1.833c0.01,0.017-3.183,2.33-3.173,2.346c0.009,0.016,3.167-1.849,3.176-1.833
				c0.009,0.017-3.185,2.084-3.175,2.101c0.009,0.016,3.168-1.85,3.177-1.834c0.01,0.017-3.186,2.316-3.176,2.333
				c0.009,0.016,3.17-1.851,3.179-1.835c0.01,0.017-3.188,1.925-3.178,1.941s3.17-1.851,3.179-1.835
				c0.011,0.019-3.187,2.723-3.176,2.741c0.009,0.016,3.173-1.853,3.182-1.837c0.01,0.017-3.191,2.058-3.181,2.075
				c0.009,0.016,3.174-1.854,3.183-1.838c0.011,0.018-3.19,2.746-3.18,2.764c0.009,0.016,3.177-1.855,3.186-1.84
				c0.01,0.017-3.195,2.199-3.185,2.216c0.009,0.016,3.178-1.856,3.188-1.84s-3.196,1.937-3.187,1.953s3.179-1.856,3.188-1.84
				c0.01,0.017-3.196,2.188-3.187,2.205c0.009,0.016,3.18-1.856,3.189-1.841c0.009,0.016-3.198,1.838-3.188,1.854
				s3.18-1.857,3.189-1.841c0.01,0.018-3.197,2.645-3.186,2.663c0.009,0.016,3.183-1.859,3.192-1.843
				c0.009,0.017-3.201,2.071-3.191,2.087c0.009,0.016,3.183-1.859,3.192-1.843c0.01,0.017-3.201,2.064-3.191,2.081
				c0.009,0.016,3.184-1.86,3.193-1.844c0.01,0.018-3.201,2.599-3.191,2.617c0.009,0.016,3.187-1.861,3.196-1.845
				c0.01,0.017-3.204,2.221-3.194,2.238s3.301-1.928,3.311-1.912c0.01,0.018-3.32,2.256-3.31,2.273
				c0.011,0.02,3.931-2.296,3.942-2.276c0.012,0.02-3.954,2.473-3.942,2.494c0.013,0.021,4.31-2.517,4.322-2.496
				c0.013,0.022-4.334,2.863-4.321,2.885c0.014,0.025,4.989-2.914,5.003-2.889c0.015,0.026-5.017,3.363-5.001,3.389
				c0.017,0.029,5.861-3.423,5.877-3.394c0.018,0.03-5.894,3.769-5.876,3.799c0.019,0.032,6.567-3.835,6.586-3.803
				c0.02,0.035-6.604,4.694-6.583,4.729c0.024,0.041,8.183-4.779,8.206-4.738c0.024,0.042-8.229,5.058-8.205,5.1
				c0.009,0.016,3.13-1.828,3.14-1.813c0.01,0.018-3.147,2.641-3.137,2.658c0.009,0.016,3.148-1.839,3.158-1.823
				C3.4,29.128,0.291,31,0.3,31.016c0.009,0.015,3.085-1.802,3.094-1.786c0.007,0.012-2.248,1.755-2.241,1.768
				c0.006,0.011,2.246-1.312,2.252-1.3c0.003,0.006-0.51,1.256-0.507,1.262c0.001,0.002,0.529-0.309,0.531-0.306
				c0.001,0.001-0.141,0.296-0.14,0.298c0,0,0.145-0.085,0.146-0.084"/>
			<path fill="none" stroke="#91000A" stroke-width="0.2835" stroke-linecap="round" stroke-linejoin="round" d="M56.472,24.942
				c0.014,0.024,4.704-2.747,4.717-2.723c0.01,0.018-3.115,2.684-3.105,2.702c0.012,0.021,4.179-2.44,4.191-2.419
				c0.009,0.016-2.675,2.384-2.666,2.399c0.008,0.013,2.681-1.565,2.688-1.552c0.005,0.009-1.293,1.524-1.288,1.534
				c0.003,0.006,1.304-0.762,1.308-0.755c0.002,0.004-0.73,0.743-0.728,0.747c0.002,0.003,0.734-0.429,0.737-0.425
				c0.001,0.003-0.617,0.42-0.615,0.424c0.001,0.003,0.614-0.359,0.616-0.355c0.001,0.001-0.137,0.347-0.136,0.349
				c0,0,0.143-0.084,0.144-0.083"/>
			<path fill="none" stroke="#91000A" stroke-width="0.2835" stroke-linecap="round" stroke-linejoin="round" d="M53.337,17.446
				c0,0.001,0.146-0.085,0.146-0.084c0.002,0.003-0.137,0.777-0.135,0.78c0.004,0.007,1.399-0.817,1.403-0.81
				c0.005,0.009-1.396,1.585-1.39,1.594c0.008,0.014,2.811-1.642,2.819-1.627c0.009,0.016-2.818,2.204-2.81,2.219
				c0.008,0.015,2.931-1.711,2.939-1.697c0.009,0.017-2.939,2.302-2.93,2.318c0.009,0.015,2.931-1.711,2.939-1.697
				c0.009,0.016-2.939,2.219-2.93,2.235c0.008,0.015,2.93-1.711,2.938-1.697c0.009,0.015-2.943,1.991-2.934,2.006
				c0.008,0.014,2.93-1.712,2.939-1.697c0.009,0.016-2.936,2.481-2.926,2.498c0.008,0.015,2.93-1.711,2.938-1.697
				c0.009,0.016-2.942,2.047-2.933,2.063c0.008,0.014,2.93-1.711,2.938-1.697"/>
			<path fill="none" stroke="#91000A" stroke-width="0.2835" stroke-linecap="round" stroke-linejoin="round" d="M43.122,22.41
				c0,0,0.14-0.082,0.141-0.081c0.001,0.002-0.129,0.566-0.128,0.569c0.003,0.005,0.988-0.577,0.991-0.572
				c0.004,0.007-0.976,1.277-0.972,1.285c0.006,0.011,2.225-1.3,2.231-1.288c0.007,0.012-2.228,1.675-2.221,1.687
				c0.009,0.015,2.918-1.704,2.926-1.689c0.01,0.017-2.912,2.584-2.902,2.601c0.013,0.022,4.519-2.639,4.532-2.616
				c0.013,0.022-4.544,2.637-4.531,2.66c0.014,0.023,4.596-2.684,4.609-2.661c0.013,0.022-4.386,2.661-4.374,2.683
				c0.014,0.023,4.639-2.709,4.653-2.687c0.011,0.02-3.636,2.658-3.625,2.677c0.014,0.023,4.646-2.713,4.659-2.689
				c0.013,0.021-4.166,2.664-4.154,2.685c0.014,0.023,4.648-2.715,4.662-2.691c0.011,0.019-3.561,2.662-3.549,2.681
				c0.013,0.023,4.654-2.718,4.667-2.695c0.011,0.02-3.606,2.666-3.595,2.685c0.013,0.023,4.66-2.721,4.673-2.698
				c0.012,0.021-4.057,2.671-4.045,2.692c0.014,0.024,4.664-2.724,4.677-2.7c0.01,0.018-3.088,2.668-3.078,2.686
				c0.02,0.035,6.968-4.07,6.988-4.035c0.02,0.034-6.854,3.999-6.833,4.033c0.02,0.034,6.815-3.98,6.834-3.946
				c0.017,0.028-5.329,3.903-5.312,3.932c0.016,0.027,5.31-3.101,5.326-3.075c0.013,0.022-4.197,3.042-4.184,3.064
				c0.013,0.023,4.534-2.648,4.547-2.625c0.011,0.019-3.383,2.714-3.372,2.733c0.014,0.023,4.753-2.776,4.767-2.752
				c0.014,0.025-4.776,3.15-4.762,3.175c0.016,0.027,5.501-3.213,5.517-3.186c0.016,0.028-5.532,3.295-5.516,3.323
				c0.017,0.029,5.745-3.355,5.761-3.326c0.018,0.031-5.769,4.104-5.751,4.135c0.021,0.036,7.175-4.19,7.195-4.154
				c0.021,0.037-7.213,4.398-7.192,4.435c0.009,0.015,2.936-1.715,2.944-1.7c0.01,0.017-2.943,2.496-2.934,2.513
				c0.008,0.015,2.936-1.715,2.944-1.7c0.008,0.015-2.952,1.82-2.943,1.834c0.008,0.015,2.936-1.714,2.944-1.7
				c0.009,0.015-2.95,1.99-2.941,2.006c0.008,0.015,2.937-1.715,2.945-1.7c0.009,0.015-2.951,1.875-2.942,1.89
				c0.009,0.015,2.936-1.715,2.944-1.7c0.01,0.017-2.942,2.611-2.933,2.628c0.008,0.015,2.936-1.714,2.944-1.7
				c0.009,0.016-2.953,1.734-2.944,1.75c0.008,0.014,2.937-1.715,2.945-1.7c0.009,0.016-2.948,2.178-2.938,2.194
				c0.008,0.015,2.936-1.715,2.945-1.7c0.009,0.015-2.952,1.801-2.943,1.816c0.008,0.015,2.936-1.714,2.944-1.7
				c0.009,0.016-2.948,2.11-2.939,2.126c0.009,0.015,2.937-1.715,2.945-1.7c0.009,0.015-2.952,1.765-2.943,1.78
				c0.008,0.015,2.936-1.715,2.945-1.7c0.01,0.017-2.943,2.638-2.933,2.655c0.008,0.015,2.936-1.715,2.945-1.7
				c0.008,0.013-2.244,2.099-2.236,2.112c0.007,0.012,2.239-1.308,2.246-1.296c0.005,0.009-1.627,1.273-1.622,1.282
				c0.005,0.009,1.621-0.947,1.625-0.938c0.003,0.006-0.939,0.917-0.936,0.922c0.003,0.005,0.938-0.548,0.941-0.543
				c0.001,0.002-0.142,0.522-0.141,0.524c0,0.001,0.146-0.085,0.146-0.084"/>
			<path fill="none" stroke="#91000A" stroke-width="0.2835" stroke-linecap="round" stroke-linejoin="round" d="M54.401,6.05
				c0.012,0.021,4.251-2.483,4.264-2.461c0.011,0.02-3.766,2.437-3.754,2.456c0.012,0.021,4.259-2.487,4.271-2.466
				c0.01,0.017-3.125,2.436-3.116,2.453c0.012,0.021,4.276-2.498,4.288-2.476c0.012,0.02-3.923,2.451-3.912,2.472
				c0.012,0.021,4.281-2.501,4.294-2.479c0.011,0.02-3.862,2.455-3.851,2.474c0.012,0.021,4.082-2.384,4.094-2.364
				c0.01,0.017-3.189,2.336-3.179,2.354c0.009,0.016,3.174-1.854,3.184-1.838c0.01,0.017-2.919,2.639-2.909,2.656
				c0.009,0.015,2.909-1.699,2.917-1.684c0.009,0.015-2.917,2.023-2.909,2.039c0.009,0.015,2.903-1.695,2.912-1.681
				c0.009,0.015-2.918,1.743-2.91,1.758c0.009,0.015,2.902-1.694,2.91-1.68c0.009,0.016-2.915,1.822-2.906,1.836
				c0.008,0.015,2.899-1.693,2.907-1.679c0.009,0.016-2.901,2.31-2.892,2.326c0.008,0.014,2.889-1.688,2.897-1.673
				c0.009,0.015-2.897,2.051-2.888,2.066c0.008,0.015,2.883-1.684,2.891-1.669c0.009,0.016-2.889,2.134-2.88,2.15
				c0.008,0.014,2.876-1.68,2.884-1.666"/>
			<path fill="none" stroke="#91000A" stroke-width="0.2835" stroke-linecap="round" stroke-linejoin="round" d="M54.215,11.316
				c0.02,0.034,6.775-3.958,6.795-3.923c0.019,0.033-6.671,3.888-6.651,3.921c0.019,0.034,6.633-3.874,6.652-3.84
				c0.017,0.029-5.637,3.801-5.62,3.831c0.016,0.028,5.608-3.275,5.624-3.247c0.016,0.028-5.604,3.219-5.587,3.247
				s5.571-3.254,5.587-3.226c0.014,0.024-4.634,3.193-4.62,3.217c0.013,0.023,4.611-2.692,4.625-2.67
				c0.013,0.023-4.603,2.647-4.59,2.67c0.013,0.022,4.577-2.673,4.59-2.65c0.01,0.018-3.153,2.618-3.143,2.636
				c0.009,0.016,3.14-1.834,3.149-1.818c0.009,0.015-2.961,1.824-2.952,1.839c0.008,0.015,2.944-1.72,2.953-1.705
				c0.01,0.017-2.943,2.52-2.934,2.536c0.008,0.015,2.932-1.712,2.941-1.698c0.009,0.016-2.935,2.331-2.926,2.347
				c0.008,0.014,2.922-1.707,2.931-1.692c0.009,0.016-2.924,2.367-2.915,2.384c0.008,0.015,2.912-1.701,2.92-1.686
				c0.009,0.016-2.919,2.105-2.91,2.121c0.008,0.015,2.905-1.697,2.914-1.682c0.008,0.015-2.919,1.799-2.91,1.814
				c0.008,0.015,2.903-1.695,2.911-1.681c0.009,0.015-2.916,1.869-2.907,1.884c0.008,0.014,2.9-1.694,2.908-1.679"/>
			<path fill="none" stroke="#91000A" stroke-width="0.2835" stroke-linecap="round" stroke-linejoin="round" d="M52.271,16.799
				c0.012,0.021,4.242-2.478,4.254-2.456c0.009,0.016-2.779,2.43-2.77,2.446c0.012,0.021,4.251-2.483,4.263-2.461
				c0.011,0.018-3.367,2.438-3.356,2.456c0.018,0.032,6.374-3.723,6.393-3.69c0.015,0.026-5.004,3.655-4.989,3.682
				c0.015,0.025,4.98-2.909,4.995-2.884c0.011,0.02-3.52,2.855-3.508,2.875c0.01,0.018,3.505-2.047,3.515-2.029
				c0.008,0.014-2.659,2.009-2.651,2.024c0.008,0.013,2.647-1.546,2.655-1.533c0.005,0.009-1.49,1.516-1.485,1.525
				c0.004,0.007,1.485-0.868,1.49-0.86c0.002,0.004-0.138,0.848-0.136,0.852c0,0.001,0.142-0.083,0.143-0.082"/>
			<path fill="none" stroke="#91000A" stroke-width="0.2835" stroke-linecap="round" stroke-linejoin="round" d="M47.73,11.343
				c0.019,0.032,6.377-3.724,6.396-3.692c0.017,0.029-5.644,3.654-5.627,3.683c0.017,0.028,5.612-3.278,5.629-3.25
				c0.015,0.025-4.97,3.216-4.955,3.242c0.014,0.025,4.953-2.893,4.967-2.868c0.013,0.022-4.241,2.836-4.228,2.859
				c0.012,0.021,4.251-2.483,4.264-2.462c0.01,0.019-3.437,2.434-3.426,2.452c0.012,0.02,3.931-2.295,3.942-2.276
				s-3.724,2.593-3.712,2.613c0.013,0.022,4.516-2.638,4.529-2.615c0.014,0.024-4.611,2.99-4.598,3.014
				c0.015,0.026,5.208-3.042,5.223-3.016c0.016,0.027-5.321,3.468-5.305,3.496c0.018,0.03,6.042-3.529,6.059-3.499
				c0.018,0.031-6.118,3.707-6.1,3.738c0.019,0.032,6.457-3.771,6.476-3.739s-6.574,3.961-6.555,3.995
				c0.02,0.035,6.902-4.031,6.922-3.996c0.022,0.039-7.337,5.024-7.315,5.063c0.01,0.018,3.476-2.03,3.485-2.012
				c0.011,0.018-3.561,2.17-3.55,2.188c0.01,0.017,3.512-2.051,3.521-2.033"/>
			<path fill="none" stroke="#91000A" stroke-width="0.2835" stroke-linecap="round" stroke-linejoin="round" d="M47.712,6.074
				c0.016,0.027,5.376-3.14,5.392-3.113c0.013,0.022-4.014,3.075-4.001,3.097c0.012,0.021,4.196-2.45,4.208-2.43
				c0.012,0.02-3.908,2.407-3.897,2.427c0.012,0.021,4.194-2.45,4.206-2.428c0.009,0.016-2.776,2.396-2.767,2.412
				c0.012,0.021,4.182-2.443,4.194-2.422c0.011,0.02-3.763,2.544-3.752,2.564c0.013,0.022,4.437-2.591,4.449-2.569
				c0.014,0.024-4.436,3.447-4.421,3.471c0.017,0.03,6.014-3.513,6.032-3.482c0.019,0.032-6.024,4.305-6.006,4.337
				c0.008,0.014,2.768-1.617,2.775-1.603c0.009,0.016-2.773,2.312-2.764,2.328c0.008,0.014,2.767-1.616,2.775-1.602
				c0.008,0.015-2.783,1.856-2.774,1.87s2.77-1.617,2.777-1.604"/>
			<path fill="none" stroke="#91000A" stroke-width="0.2835" stroke-linecap="round" stroke-linejoin="round" d="M50.468,0.569
				c0,0.001,0.141-0.082,0.142-0.082c0.001,0.002-0.221,0.497-0.219,0.5c0.002,0.004,0.786-0.459,0.788-0.455
				c0.002,0.004-0.799,0.495-0.796,0.499s0.854-0.499,0.856-0.494c0.003,0.006-0.949,0.969-0.945,0.975
				c0.005,0.008,1.596-0.932,1.601-0.924c0.005,0.008-1.61,0.941-1.605,0.949c0.005,0.008,1.635-0.955,1.64-0.947
				c0.007,0.012-1.901,1.976-1.894,1.987c0.009,0.016,3.247-1.896,3.256-1.88c0.011,0.019-3.458,2.533-3.448,2.552
				c0.012,0.021,4.149-2.424,4.161-2.403c0.013,0.021-4.246,2.632-4.233,2.653c0.012,0.021,4.113-2.402,4.125-2.382"/>
			<path fill="none" stroke="#91000A" stroke-width="0.2835" stroke-linecap="round" stroke-linejoin="round" d="M44.646,3.741
				c0,0,0.144-0.084,0.144-0.083c0,0.001-0.145,0.248-0.144,0.25c0.001,0.002,0.437-0.255,0.438-0.253
				c0.003,0.005-0.438,1.189-0.435,1.195c0.006,0.01,2.098-1.225,2.104-1.215c0.006,0.011-2.109,1.441-2.103,1.452
				c0.007,0.013,2.516-1.47,2.523-1.457c0.008,0.014-2.53,1.764-2.522,1.778c0.009,0.016,3.082-1.8,3.091-1.785
				c0.01,0.017-3.099,2.162-3.089,2.179c0.011,0.019,3.776-2.206,3.788-2.187c0.011,0.02-3.798,2.573-3.786,2.592
				c0.013,0.023,4.492-2.623,4.505-2.601c0.013,0.022-4.518,2.635-4.504,2.658s4.593-2.683,4.606-2.66
				c0.015,0.025-4.618,3.542-4.603,3.567c0.025,0.044,8.843-5.165,8.869-5.121c0.026,0.045-8.894,5.364-8.868,5.409
				c0.025,0.043,8.672-5.065,8.697-5.021c0.025,0.044-8.722,5.12-8.696,5.164c0.025,0.043,8.581-5.011,8.605-4.969
				c0.026,0.045-8.628,5.74-8.603,5.785c0.008,0.014,2.771-1.618,2.778-1.604c0.009,0.015-2.786,2.129-2.777,2.145
				c0.008,0.014,2.782-1.625,2.79-1.61c0.009,0.015-2.796,2.168-2.787,2.184c0.008,0.014,2.792-1.631,2.801-1.617
				c0.009,0.016-2.807,2.542-2.798,2.559c0.008,0.014,2.812-1.642,2.82-1.628c0.009,0.016-2.827,2.233-2.817,2.249
				c0.01,0.018,3.535-2.065,3.545-2.047c0.01,0.018-3.555,2.064-3.545,2.082c0.01,0.018,3.597-2.101,3.608-2.083
				c0.011,0.02-3.617,2.774-3.605,2.794c0.014,0.024,4.851-2.833,4.865-2.809c0.015,0.026-4.877,3.503-4.862,3.528
				c0.018,0.031,6.119-3.573,6.137-3.543c0.019,0.033-6.153,4.329-6.134,4.361c0.008,0.014,2.764-1.614,2.772-1.6
				s-2.78,1.626-2.772,1.64c0.008,0.014,2.765-1.614,2.772-1.601c0.009,0.015-2.779,2.039-2.771,2.054
				c0.008,0.014,2.773-1.62,2.781-1.606c0.008,0.014-2.789,1.753-2.781,1.768c0.008,0.014,2.777-1.622,2.785-1.608
				c0.009,0.015-2.792,2.017-2.783,2.031c0.008,0.014,2.785-1.626,2.793-1.612c0.009,0.015-2.8,2.038-2.792,2.053
				c0.008,0.014,2.794-1.631,2.802-1.618c0.008,0.015-2.81,1.864-2.801,1.879c0.008,0.014,2.799-1.634,2.807-1.621
				c0.009,0.015-2.814,1.916-2.806,1.93c0.008,0.014,2.805-1.638,2.813-1.624s-2.82,1.908-2.812,1.923
				c0.008,0.014,2.811-1.642,2.819-1.627c0.009,0.015-2.826,2.09-2.817,2.105c0.009,0.016,3.207-1.873,3.216-1.857
				s-2.751,2.445-2.742,2.461c0.013,0.021,4.278-2.499,4.291-2.477c0.011,0.02-3.832,2.448-3.821,2.468
				c0.012,0.021,4.272-2.495,4.284-2.473c0.01,0.017-3.197,2.436-3.187,2.453c0.02,0.035,6.913-4.037,6.933-4.002
				c0.017,0.03-5.716,3.95-5.698,3.98c0.016,0.028,5.51-3.218,5.526-3.191c0.017,0.03-5.486,3.985-5.469,4.015
				c0.017,0.028,5.616-3.28,5.632-3.251c0.024,0.042-8.189,5.398-8.165,5.441c0.027,0.047,9.418-5.501,9.446-5.454
				c0.031,0.053-10.23,6.66-10.2,6.713c0.021,0.037,7.366-4.303,7.387-4.266c0.021,0.036-6.984,4.5-6.963,4.536
				c0.019,0.032,6.373-3.722,6.391-3.69c0.018,0.032-6.329,3.725-6.31,3.757c0.018,0.031,6.166-3.602,6.184-3.57
				c0.018,0.03-6.057,3.664-6.039,3.695c0.017,0.029,5.791-3.383,5.808-3.354c0.017,0.029-5.621,3.499-5.604,3.527
				c0.016,0.027,5.264-3.074,5.279-3.048c0.015,0.026-4.973,3.297-4.958,3.323c0.011,0.02,3.968-2.318,3.98-2.298
				c0.011,0.02-3.653,2.567-3.642,2.587c0.006,0.011,2.104-1.229,2.11-1.218"/>
			<path fill="none" stroke="#91000A" stroke-width="0.2835" stroke-linecap="round" stroke-linejoin="round" d="M36.594,27.458
				c0.016,0.028,5.653-3.301,5.669-3.273c0.013,0.022-4.028,3.228-4.015,3.25c0.012,0.021,4.011-2.342,4.022-2.322
				c0.008,0.015-2.478,2.287-2.469,2.301c0.007,0.012,2.468-1.442,2.476-1.429c0.007,0.012-2.402,1.416-2.395,1.428
				c0.007,0.012,2.388-1.395,2.395-1.382c0.005,0.008-1.298,1.359-1.294,1.368c0.004,0.006,1.294-0.756,1.298-0.75
				c0.001,0.003-0.142,0.73-0.14,0.733c0,0.001,0.144-0.084,0.145-0.083"/>
			<path fill="none" stroke="#91000A" stroke-width="0.2835" stroke-linecap="round" stroke-linejoin="round" d="M36.688,15.256
				c0.014,0.024,4.737-2.767,4.751-2.743c0.011,0.019-3.477,2.707-3.465,2.726c0.012,0.021,4.192-2.449,4.205-2.428
				c0.009,0.016-2.784,2.394-2.775,2.41c0.008,0.014,2.773-1.62,2.781-1.605c0.009,0.015-2.558,2.284-2.55,2.298
				c0.007,0.013,2.549-1.488,2.556-1.476c0.009,0.016-2.556,2.375-2.547,2.39c0.007,0.013,2.547-1.488,2.554-1.475
				c0.008,0.014-2.558,1.829-2.55,1.842c0.007,0.013,2.546-1.487,2.553-1.474s-2.56,1.559-2.552,1.572
				c0.007,0.013,2.545-1.487,2.553-1.474c0.008,0.014-2.555,2.037-2.547,2.051c0.008,0.013,2.544-1.486,2.552-1.473
				c0.008,0.014-2.555,1.948-2.546,1.962c0.007,0.013,2.542-1.486,2.55-1.473c0.008,0.014-2.555,1.773-2.547,1.787
				c0.007,0.013,2.542-1.485,2.549-1.472c0.008,0.013-2.555,1.692-2.547,1.706c0.007,0.013,2.542-1.484,2.549-1.472
				c0.009,0.015-2.549,2.354-2.54,2.369c0.007,0.013,2.539-1.484,2.547-1.471c0.008,0.015-2.549,2.191-2.54,2.206
				c0.007,0.013,2.538-1.482,2.545-1.47c0.008,0.013-2.551,1.676-2.543,1.689c0.007,0.013,2.538-1.482,2.545-1.469
				c0.009,0.015-2.544,2.406-2.536,2.421c0.007,0.013,2.535-1.48,2.542-1.468c0.009,0.015-2.543,2.155-2.535,2.17
				c0.007,0.013,2.534-1.48,2.541-1.467c0.008,0.013-2.546,1.618-2.539,1.631c0.007,0.013,2.533-1.479,2.541-1.467
				s-2.548,1.51-2.541,1.523c0.007,0.013,2.533-1.479,2.541-1.467c0.007,0.013-2.546,1.661-2.539,1.674
				c0.007,0.013,2.533-1.479,2.54-1.467c0.009,0.015-2.54,2.268-2.532,2.282c0.007,0.013,2.531-1.478,2.538-1.465
				c0.008,0.014-2.542,1.976-2.533,1.99c0.007,0.013,2.53-1.478,2.537-1.465c0.008,0.014-2.541,1.879-2.533,1.893
				c0.007,0.013,2.528-1.477,2.536-1.464"/>
			<path fill="none" stroke="#91000A" stroke-width="0.2835" stroke-linecap="round" stroke-linejoin="round" d="M33.918,18.519
				c0.007,0.013,2.498-1.458,2.505-1.446c0.008,0.014-2.511,1.95-2.503,1.964c0.007,0.013,2.501-1.46,2.508-1.448
				c0.008,0.015-2.513,2.171-2.505,2.186c0.007,0.013,2.505-1.463,2.512-1.45c0.008,0.014-2.519,2.069-2.51,2.083
				c0.007,0.013,2.509-1.465,2.517-1.453c0.007,0.013-2.523,1.685-2.516,1.698c0.007,0.013,2.511-1.466,2.518-1.454
				c0.009,0.015-2.523,2.282-2.515,2.296c0.007,0.013,2.516-1.469,2.523-1.457c0.009,0.015-2.529,2.356-2.52,2.372
				c0.007,0.012,2.522-1.473,2.529-1.46c0.008,0.013-2.536,1.802-2.528,1.815c0.007,0.013,2.524-1.474,2.531-1.461
				c0.008,0.013-2.538,1.73-2.53,1.744c0.007,0.013,2.525-1.475,2.533-1.462c0.009,0.015-2.539,2.261-2.53,2.276
				c0.007,0.013,2.531-1.478,2.538-1.465c0.007,0.013-2.545,1.733-2.538,1.746s2.533-1.479,2.54-1.466
				c0.009,0.015-2.545,2.393-2.537,2.408c0.007,0.013,2.539-1.482,2.546-1.47c0.008,0.014-2.553,1.808-2.545,1.822
				c0.007,0.013,2.541-1.484,2.548-1.471c0.008,0.014-2.554,1.986-2.546,2c0.007,0.013,2.543-1.486,2.551-1.473
				c0.009,0.015-2.557,2.421-2.548,2.437c0.011,0.019,3.82-2.231,3.831-2.212s-3.841,2.453-3.83,2.472
				c0.012,0.021,4.28-2.5,4.292-2.479c0.013,0.023-4.304,3.169-4.291,3.192c0.016,0.028,5.542-3.236,5.558-3.208
				c0.017,0.03-5.572,3.88-5.555,3.91c0.024,0.041,8.282-4.837,8.306-4.796c0.025,0.043-8.329,5.19-8.305,5.233
				c0.007,0.012,2.489-1.454,2.497-1.441c0.008,0.014-2.502,2.246-2.494,2.261c0.007,0.013,2.508-1.464,2.515-1.452
				c0.005,0.01-1.533,1.643-1.528,1.653c0.004,0.007,1.543-0.902,1.548-0.894c0.003,0.006-1.068,0.875-1.064,0.881
				c0.003,0.005,1.068-0.624,1.071-0.619c0.002,0.003-0.282,0.594-0.281,0.597c0.001,0.001,0.291-0.169,0.292-0.168
				c0,0.001-0.145,0.164-0.145,0.165c0,0.001,0.146-0.085,0.146-0.084"/>
			<path fill="none" stroke="#91000A" stroke-width="0.2835" stroke-linecap="round" stroke-linejoin="round" d="M38.659,4.965
				c0.012,0.021,4.228-2.469,4.24-2.448c0.012,0.02-4.065,2.424-4.053,2.445c0.012,0.02,4.044-2.362,4.056-2.341
				c0.009,0.017-2.996,2.31-2.987,2.326c0.009,0.016,2.993-1.748,3.001-1.733c0.008,0.014-2.565,1.713-2.557,1.727
				c0.007,0.013,2.556-1.493,2.563-1.48c0.004,0.007-1.071,1.451-1.067,1.459c0.003,0.005,1.084-0.633,1.087-0.628
				c0.002,0.003-0.131,0.612-0.13,0.614c0,0.001,0.143-0.083,0.144-0.083"/>
			<path fill="none" stroke="#91000A" stroke-width="0.2835" stroke-linecap="round" stroke-linejoin="round" d="M31.722,2.29
				c0,0.001,0.143-0.083,0.144-0.083c0.002,0.004-0.143,0.948-0.141,0.953c0.005,0.008,1.668-0.975,1.673-0.966
				c0.006,0.01-1.677,1.489-1.671,1.499c0.007,0.013,2.603-1.52,2.61-1.507c0.007,0.013-2.618,1.551-2.61,1.564
				c0.008,0.014,2.704-1.58,2.712-1.566c0.008,0.014-2.719,1.721-2.711,1.734c0.009,0.016,3-1.751,3.008-1.737
				c0.009,0.016-3.017,2.042-3.007,2.057c0.01,0.018,3.561-2.08,3.571-2.062c0.011,0.019-3.581,2.496-3.57,2.515
				c0.012,0.021,4.355-2.544,4.368-2.522c0.012,0.02-3.766,2.802-3.754,2.822c0.014,0.024,4.892-2.857,4.906-2.833
				c0.012,0.02-3.791,2.791-3.779,2.811c0.014,0.024,4.872-2.845,4.886-2.821c0.013,0.022-4.239,2.787-4.227,2.809
				c0.014,0.024,4.859-2.839,4.874-2.814c0.013,0.021-4.136,2.778-4.123,2.799c0.014,0.024,4.847-2.831,4.861-2.806
				c0.014,0.023-4.702,2.779-4.688,2.803s4.843-2.829,4.857-2.805c0.013,0.023-4.577,2.776-4.563,2.799
				c0.014,0.024,4.838-2.826,4.852-2.801c0.014,0.024-4.676,3.153-4.662,3.178c0.016,0.027,5.501-3.213,5.517-3.186
				c0.016,0.028-5.536,3.173-5.52,3.201c0.016,0.027,5.528-3.229,5.544-3.201c0.018,0.031-5.761,4.157-5.743,4.188
				c0.021,0.036,7.257-4.238,7.278-4.202c0.022,0.038-7.396,4.642-7.374,4.68c0.022,0.038,7.632-4.458,7.654-4.419
				c0.023,0.041-7.835,5.162-7.812,5.202c0.009,0.017,3.26-1.903,3.269-1.888c0.01,0.017-3.314,2.046-3.304,2.063
				c0.009,0.016,3.255-1.901,3.265-1.885c0.011,0.02-3.48,2.806-3.469,2.825c0.009,0.016,3.247-1.896,3.256-1.88
				c0.011,0.019-3.464,2.502-3.454,2.521c0.01,0.017,3.308-1.932,3.317-1.916c0.01,0.017-3.356,1.994-3.346,2.011
				c0.009,0.017,3.316-1.937,3.326-1.92c0.011,0.02-3.602,2.76-3.59,2.78c0.01,0.017,3.397-1.984,3.407-1.967
				c0.01,0.018-3.467,2.112-3.458,2.13c0.01,0.017,3.414-1.993,3.423-1.977c0.011,0.019-3.55,2.337-3.54,2.356
				c0.01,0.017,3.447-2.013,3.457-1.996c0.01,0.017-3.494,2.064-3.484,2.082s3.45-2.015,3.459-1.997
				c0.012,0.021-3.775,2.958-3.763,2.979c0.01,0.017,3.482-2.034,3.492-2.016c0.01,0.017-3.511,2.018-3.5,2.036
				c0.01,0.017,3.485-2.036,3.495-2.018c0.011,0.019-3.688,2.426-3.677,2.445c0.01,0.018,3.558-2.079,3.568-2.06
				c0.013,0.021-4.015,3.057-4.002,3.079c0.011,0.019,3.733-2.18,3.744-2.162c0.011,0.019-3.809,2.271-3.798,2.29
				c0.011,0.019,3.754-2.193,3.765-2.174c0.013,0.022-4.116,2.947-4.104,2.969c0.011,0.02,3.89-2.272,3.901-2.252
				c0.013,0.022-4.165,2.818-4.152,2.84c0.012,0.02,3.994-2.332,4.005-2.313c0.014,0.024-4.582,3.218-4.568,3.242
				c0.016,0.028,5.615-3.279,5.631-3.251c0.019,0.032-6.172,4.083-6.154,4.115c0.021,0.036,7.122-4.16,7.143-4.124
				c0.021,0.038-7.457,4.569-7.436,4.606c0.023,0.041,7.965-4.651,7.988-4.611c0.024,0.041-8.061,5.056-8.037,5.097
				c0.025,0.044,8.816-5.148,8.841-5.104c0.025,0.044-8.732,5.33-8.707,5.375c0.027,0.046,9.292-5.426,9.318-5.38
				s-9.22,5.585-9.193,5.631c0.015,0.025,5.001-2.92,5.015-2.896c0.015,0.025-4.911,3.177-4.896,3.202
				c0.014,0.024,4.856-2.836,4.871-2.812s-4.723,3.209-4.708,3.233c0.014,0.023,4.699-2.745,4.713-2.721
				c0.014,0.023-4.643,2.916-4.629,2.939s4.618-2.697,4.632-2.674s-4.505,3.069-4.491,3.092c0.013,0.022,4.483-2.618,4.496-2.596
				c0.013,0.023-4.479,2.663-4.466,2.685c0.006,0.01,1.912-1.117,1.917-1.107c0.006,0.011-1.688,1.868-1.682,1.878
				c0.002,0.003,0.648-0.379,0.65-0.375c0.002,0.004-0.601,0.58-0.599,0.583c0,0.001,0.328-0.191,0.329-0.19
				c0.001,0.002-0.295,0.329-0.294,0.331c0,0,0.111-0.064,0.111-0.064"/>
			<path fill="none" stroke="#91000A" stroke-width="0.2835" stroke-linecap="round" stroke-linejoin="round" d="M66.04,28.508
				c0,0,0.106-0.063,0.107-0.062c0,0.001-0.06,0.176-0.06,0.177s0.292-0.171,0.293-0.169c0.002,0.004,0.011,0.916,0.014,0.92
				c0.004,0.008,1.537-0.897,1.541-0.89c0.005,0.009-1.301,1.72-1.295,1.729c0.017,0.029,5.829-3.404,5.846-3.375
				c0.017,0.029-5.856,3.37-5.839,3.399c0.017,0.029,5.822-3.4,5.839-3.371c0.017,0.03-5.736,3.839-5.718,3.869
				c0.017,0.029,5.703-3.331,5.72-3.303c0.017,0.03-5.628,3.831-5.611,3.86c0.016,0.028,5.576-3.256,5.592-3.229
				c0.016,0.027-5.38,3.355-5.364,3.382c0.016,0.027,5.326-3.11,5.341-3.083c0.012,0.02-3.586,2.957-3.575,2.977
				c0.01,0.017,3.429-2.003,3.439-1.985c0.009,0.016-3.21,1.937-3.201,1.954c0.009,0.016,3.139-1.833,3.148-1.818
				c0.006,0.012-2.095,1.665-2.088,1.677c0.005,0.009,1.849-1.08,1.854-1.07c0.003,0.006-1.117,0.798-1.113,0.805
				c0.001,0.003,0.65-0.38,0.652-0.377"/>
			<path fill="none" stroke="#91000A" stroke-width="0.2835" stroke-linecap="round" stroke-linejoin="round" d="M72.782,18.767
				c0.009,0.016,3.203-1.871,3.212-1.854c0.002,0.003-0.185,0.868-0.182,0.872c0,0.001,0.308-0.181,0.309-0.179"/>
			<path fill="none" stroke="#91000A" stroke-width="0.2835" stroke-linecap="round" stroke-linejoin="round" d="M75.729,15.225
				c0.004,0.008,1.488-0.869,1.493-0.862s-1.085,1.3-1.081,1.308c0,0.001,0.159-0.093,0.159-0.092"/>
			<path fill="none" stroke="#91000A" stroke-width="0.2835" stroke-linecap="round" stroke-linejoin="round" d="M89.784,22.346
				c0.014,0.025,4.829-2.82,4.843-2.796c0.012,0.021-3.976,2.763-3.963,2.784c0.013,0.022,4.465-2.608,4.479-2.585
				c0.01,0.018-3.205,2.549-3.194,2.567c0.009,0.016,3.203-1.87,3.212-1.854c0.008,0.014-2.5,1.831-2.493,1.845
				c0.007,0.013,2.496-1.458,2.503-1.445c0.004,0.007-0.864,1.415-0.86,1.421c0.002,0.004,0.88-0.514,0.883-0.51
				c0.002,0.004-0.807,0.504-0.805,0.509c0.002,0.004,0.804-0.469,0.806-0.465c0.001,0.003-0.527,0.458-0.525,0.461
				c0.001,0.003,0.528-0.308,0.529-0.306c0.001,0.001-0.139,0.299-0.138,0.3c0,0.001,0.143-0.083,0.143-0.083"/>
			<path fill="none" stroke="#91000A" stroke-width="0.2835" stroke-linecap="round" stroke-linejoin="round" d="M89.761,15.683
				c0.014,0.024,4.83-2.82,4.844-2.796c0.013,0.022-4.344,2.767-4.332,2.789c0.014,0.024,4.83-2.82,4.844-2.796
				c0.011,0.02-3.693,2.76-3.682,2.78c0.011,0.019,3.718-2.171,3.729-2.153c0.01,0.018-3.36,2.13-3.35,2.147
				c0.01,0.017,3.346-1.954,3.356-1.938c0.009,0.015-2.919,1.916-2.91,1.931c0.008,0.015,2.908-1.698,2.917-1.684
				c0.006,0.011-2.003,1.66-1.997,1.671c0.006,0.01,2.003-1.17,2.009-1.16c0.002,0.004-0.278,1.13-0.275,1.135
				c0,0.001,0.299-0.175,0.3-0.173c0,0.001-0.142,0.169-0.141,0.17s0.143-0.083,0.143-0.083"/>
			<path fill="none" stroke="#91000A" stroke-width="0.2835" stroke-linecap="round" stroke-linejoin="round" d="M89.738,9.087
				c0.015,0.025,5.005-2.923,5.019-2.898c0.015,0.025-4.888,2.872-4.874,2.896c0.014,0.025,5.004-2.922,5.019-2.897
				c0.012,0.021-3.991,2.862-3.979,2.884c0.014,0.023,4.67-2.728,4.683-2.704c0.014,0.023-4.66,2.68-4.646,2.704
				c0.013,0.023,4.633-2.707,4.646-2.683c0.012,0.02-3.683,2.65-3.672,2.67c0.011,0.019,3.675-2.146,3.685-2.128
				c0.011,0.019-3.661,2.109-3.65,2.127c0.011,0.019,3.641-2.126,3.651-2.108c0.008,0.013-2.201,2.076-2.194,2.088
				c0.006,0.011,2.208-1.289,2.214-1.278c0.006,0.01-1.981,1.265-1.976,1.275s1.973-1.152,1.979-1.142
				c0.003,0.005-0.489,1.117-0.485,1.123c0.001,0.002,0.504-0.294,0.505-0.292c0,0.001-0.139,0.286-0.139,0.287
				c0,0,0.143-0.084,0.144-0.083"/>
			<path fill="none" stroke="#91000A" stroke-width="0.2835" stroke-linecap="round" stroke-linejoin="round" d="M89.42,5.897
				c0.004,0.006,1.288-0.752,1.292-0.746c0.001,0.003-0.575,0.42-0.573,0.423c0.002,0.003,0.604-0.353,0.605-0.35"/>
			<path fill="none" stroke="#91000A" stroke-width="0.2835" stroke-linecap="round" stroke-linejoin="round" d="M85.71,1.74
				c0.001,0.002,0.498-0.291,0.499-0.288c0.002,0.003-0.212,0.759-0.21,0.763c0.007,0.012,2.453-1.433,2.46-1.42
				c0.007,0.013-2.265,1.741-2.258,1.753c0.007,0.012,2.452-1.432,2.459-1.419c0.007,0.013-2.192,1.858-2.185,1.871
				c0.007,0.012,2.451-1.431,2.458-1.419c0.007,0.012-2.387,1.537-2.38,1.549c0.007,0.012,2.451-1.432,2.458-1.419
				c0.007,0.013-2.105,2.166-2.098,2.179c0.007,0.013,2.505-1.463,2.512-1.451s-2.329,1.841-2.321,1.854s2.515-1.469,2.522-1.457
				c0.008,0.013-2.292,1.964-2.284,1.977c0.007,0.013,2.534-1.48,2.542-1.467c0.008,0.013-2.417,1.803-2.41,1.816
				c0.007,0.013,2.569-1.5,2.577-1.488c0.008,0.014-2.371,2.036-2.363,2.049c0.007,0.013,2.605-1.521,2.613-1.509
				c0.008,0.013-2.471,1.892-2.463,1.905c0.008,0.013,2.624-1.532,2.631-1.519"/>
			<path fill="none" stroke="#91000A" stroke-width="0.2835" stroke-linecap="round" stroke-linejoin="round" d="M81.85,9.085
				c0.015,0.025,4.929-2.878,4.943-2.854c0.013,0.022-4.191,2.825-4.178,2.847c0.014,0.025,4.977-2.907,4.991-2.882
				c0.013,0.022-4.333,2.853-4.321,2.875c0.021,0.037,7.278-4.25,7.299-4.214C90.603,4.892,84,9.031,84.02,9.065
				c0.014,0.024,4.841-2.828,4.855-2.803c0.012,0.021-4.033,2.774-4.021,2.795c0.014,0.024,4.845-2.83,4.859-2.806
				c0.013,0.021-4.046,2.776-4.033,2.798c0.014,0.024,4.849-2.833,4.863-2.808c0.013,0.022-4.244,2.78-4.231,2.802
				c0.014,0.024,4.853-2.834,4.867-2.81c0.014,0.023-4.459,2.977-4.446,3c0.015,0.026,5.197-3.036,5.212-3.009
				s-5.224,3.196-5.208,3.223c0.016,0.028,5.574-3.256,5.59-3.228c0.017,0.028-5.603,3.407-5.586,3.436
				c0.017,0.03,5.941-3.47,5.959-3.44c0.018,0.032-5.962,4.239-5.943,4.271c0.021,0.038,7.408-4.326,7.429-4.289
				c0.022,0.039-7.441,4.811-7.419,4.85c0.008,0.014,2.824-1.649,2.832-1.635c0.01,0.017-2.824,2.527-2.815,2.543
				c0.008,0.014,2.824-1.649,2.833-1.635c0.009,0.016-2.83,2.275-2.82,2.291c0.008,0.014,2.824-1.649,2.833-1.635
				c0.008,0.015-2.836,1.866-2.828,1.88c0.008,0.014,2.824-1.649,2.832-1.635"/>
			<path fill="none" stroke="#91000A" stroke-width="0.2835" stroke-linecap="round" stroke-linejoin="round" d="M81.873,15.68
				c0.014,0.023,4.706-2.749,4.72-2.725c0.013,0.022-4.333,2.699-4.32,2.721c0.021,0.037,7.344-4.289,7.365-4.252
				c0.02,0.035-6.834,4.212-6.814,4.247c0.02,0.034,6.8-3.972,6.82-3.938c0.019,0.032-6.442,3.901-6.423,3.934
				c0.019,0.032,6.409-3.743,6.427-3.711c0.016,0.027-5.083,3.671-5.067,3.698c0.015,0.025,5.067-2.959,5.082-2.934
				c0.011,0.02-3.433,2.899-3.421,2.919c0.013,0.023,4.663-2.724,4.677-2.7c0.013,0.022-4.329,2.675-4.316,2.697
				c0.014,0.023,4.667-2.726,4.681-2.702c0.013,0.022-4.541,2.798-4.528,2.822c0.014,0.024,4.883-2.852,4.897-2.827
				c0.015,0.026-4.895,3.77-4.879,3.797c0.019,0.033,6.601-3.855,6.62-3.822c0.02,0.035-6.626,4.49-6.606,4.525
				c0.008,0.014,2.824-1.65,2.832-1.635c0.009,0.016-2.825,2.495-2.816,2.511c0.008,0.015,2.824-1.649,2.832-1.635
				c0.009,0.016-2.83,2.222-2.821,2.238c0.008,0.014,2.824-1.65,2.833-1.635c0.009,0.015-2.832,2.146-2.823,2.161
				c0.008,0.014,2.825-1.65,2.833-1.636c0.008,0.014-2.84,1.708-2.832,1.722c0.008,0.014,2.825-1.65,2.833-1.636"/>
			<path fill="none" stroke="#91000A" stroke-width="0.2835" stroke-linecap="round" stroke-linejoin="round" d="M81.896,22.344
				c0.014,0.023,4.708-2.75,4.722-2.727c0.013,0.023-4.7,2.703-4.687,2.726c0.014,0.023,4.714-2.753,4.728-2.729
				c0.013,0.022-4.31,2.704-4.297,2.726c0.021,0.037,7.279-4.251,7.301-4.215c0.021,0.037-7.263,4.178-7.242,4.214
				c0.021,0.036,7.221-4.218,7.242-4.181c0.021,0.036-7.089,4.144-7.068,4.18c0.021,0.035,7.05-4.118,7.071-4.083
				c0.019,0.032-6.307,4.042-6.289,4.075c0.018,0.031,6.278-3.667,6.296-3.635c0.018,0.031-6.225,3.603-6.207,3.634
				c0.018,0.031,6.19-3.616,6.208-3.584c0.014,0.025-4.539,3.543-4.524,3.569c0.013,0.023,4.653-2.718,4.667-2.695
				c0.011,0.019-3.32,2.664-3.31,2.682c0.014,0.023,4.666-2.725,4.68-2.702c0.013,0.023-4.423,2.761-4.41,2.783
				c0.014,0.024,4.817-2.813,4.831-2.789c0.015,0.026-4.83,3.685-4.814,3.711c0.019,0.033,6.451-3.767,6.469-3.735
				c0.02,0.034-6.477,4.345-6.458,4.379c0.022,0.038,7.59-4.433,7.612-4.395c0.022,0.039-7.632,4.499-7.61,4.537
				c0.008,0.014,2.826-1.65,2.834-1.636s-2.837,1.927-2.828,1.941c0.008,0.015,2.825-1.649,2.833-1.636
				c0.01,0.017-2.827,2.525-2.817,2.542c0.008,0.015,2.826-1.65,2.833-1.636c0.009,0.015-2.834,2.071-2.825,2.086
				c0.008,0.014,2.825-1.65,2.833-1.636c0.009,0.015-2.832,2.187-2.823,2.203c0.008,0.014,2.825-1.65,2.833-1.636"/>
			<path fill="none" stroke="#91000A" stroke-width="0.2835" stroke-linecap="round" stroke-linejoin="round" d="M81.783,29.277
				c0.014,0.025,4.967-2.901,4.981-2.876c0.012,0.02-3.613,2.846-3.601,2.866c0.019,0.032,6.514-3.804,6.532-3.771
				c0.019,0.032-6.241,3.737-6.223,3.769c0.018,0.032,6.208-3.625,6.226-3.595c0.015,0.026-4.812,3.559-4.797,3.584
				c0.015,0.025,4.896-2.86,4.911-2.835c0.013,0.022-4.226,2.808-4.213,2.83c0.014,0.025,4.903-2.863,4.917-2.838
				c0.011,0.019-3.316,2.808-3.305,2.827c0.014,0.024,4.917-2.872,4.931-2.847c0.011,0.019-3.416,2.815-3.405,2.835
				c0.014,0.024,4.929-2.879,4.944-2.854c0.011,0.02-3.671,2.824-3.659,2.844c0.014,0.024,4.94-2.885,4.955-2.86
				c0.012,0.021-3.98,2.832-3.967,2.853c0.014,0.024,4.948-2.89,4.963-2.865c0.011,0.02-3.682,2.835-3.67,2.855
				c0.012,0.02,4.05-2.365,4.062-2.345c0.008,0.014-2.354,2.317-2.345,2.332c0.007,0.012,2.362-1.38,2.369-1.368
				c0.005,0.008-1.158,1.351-1.154,1.358c0.003,0.006,1.167-0.682,1.171-0.676c0.001,0.003-0.129,0.665-0.127,0.668
				c0,0.001,0.142-0.082,0.142-0.082"/>
			<path fill="none" stroke="#91000A" stroke-width="0.2835" stroke-linecap="round" stroke-linejoin="round" d="M78.676,12.385
				c0.009,0.015,2.916-1.702,2.924-1.688c0.009,0.015-2.932,1.839-2.923,1.854c0.009,0.015,2.918-1.704,2.926-1.689
				c0.01,0.017-2.933,2.615-2.923,2.632c0.008,0.015,2.933-1.712,2.941-1.698c0.009,0.015-2.95,1.92-2.941,1.935
				c0.009,0.015,2.937-1.715,2.945-1.7c0.009,0.016-2.952,2.005-2.943,2.021c0.008,0.015,2.941-1.718,2.949-1.703
				c0.009,0.016-2.957,2.081-2.948,2.097c0.008,0.015,2.947-1.721,2.955-1.706c0.009,0.016-2.963,2.096-2.954,2.112
				s3.225-1.884,3.234-1.867c0.009,0.016-3.244,1.908-3.235,1.924c0.01,0.017,3.325-1.942,3.335-1.925
				c0.011,0.019-3.342,2.813-3.331,2.833c0.014,0.025,4.901-2.862,4.916-2.838c0.015,0.025-4.929,3.102-4.915,3.127
				c0.016,0.027,5.404-3.156,5.419-3.129c0.016,0.027-5.435,3.244-5.419,3.272c0.016,0.028,5.651-3.301,5.667-3.272
				c0.018,0.03-5.682,4.058-5.665,4.088c0.021,0.036,7.07-4.128,7.09-4.094c0.021,0.037-7.109,4.597-7.088,4.634
				c0.008,0.015,2.894-1.69,2.902-1.676c0.009,0.016-2.91,2.233-2.9,2.249c0.008,0.015,2.903-1.695,2.911-1.681
				c0.01,0.017-2.918,2.606-2.908,2.623c0.009,0.015,2.917-1.704,2.926-1.689c0.009,0.016-2.933,2.294-2.924,2.31
				c0.009,0.015,2.927-1.709,2.936-1.695c0.009,0.015-2.943,1.716-2.935,1.73c0.008,0.015,2.927-1.709,2.936-1.695
				c0.01,0.017-2.943,2.39-2.933,2.406c0.008,0.015,2.938-1.716,2.946-1.701c0.01,0.017-2.954,2.405-2.944,2.421
				c0.008,0.015,2.949-1.722,2.958-1.708c0.01,0.017-2.965,2.509-2.955,2.526c0.012,0.02,4.112-2.402,4.125-2.381
				c0.012,0.021-4.136,2.4-4.124,2.421c0.012,0.021,4.182-2.442,4.194-2.421c0.013,0.022-4.205,2.853-4.192,2.875
				c0.015,0.025,4.97-2.902,4.984-2.877c0.015,0.025-4.998,3.014-4.983,3.039c0.015,0.026,5.25-3.066,5.266-3.04
				c0.016,0.027-5.28,3.436-5.264,3.464c0.017,0.03,5.986-3.497,6.004-3.466c0.018,0.031-6.02,3.875-6.002,3.906
				c0.02,0.034,6.752-3.943,6.771-3.909c0.02,0.035-6.791,4.136-6.771,4.17c0.021,0.036,7.206-4.208,7.226-4.172
				c0.021,0.037-7.247,4.445-7.225,4.482c0.008,0.015,2.893-1.689,2.901-1.675c0.009,0.015-2.908,1.958-2.899,1.974
				c0.008,0.015,2.896-1.692,2.905-1.677c0.009,0.016-2.913,2.14-2.904,2.155c0.008,0.015,2.904-1.696,2.913-1.681
				c0.01,0.017-2.919,2.541-2.91,2.558c0.008,0.014,2.917-1.704,2.925-1.689c0.009,0.015-2.933,1.936-2.924,1.951
				c0.008,0.015,2.92-1.706,2.929-1.691c0.009,0.016-2.937,2.287-2.927,2.303c0.008,0.015,2.929-1.711,2.938-1.696
				c0.009,0.016-2.945,2.369-2.936,2.386c0.008,0.014,2.939-1.717,2.948-1.702c0.009,0.016-2.956,2.54-2.946,2.557
				c0.009,0.015,3.004-1.754,3.013-1.739c0.01,0.017-3.02,2.448-3.01,2.465c0.013,0.022,4.278-2.499,4.291-2.477
				c0.013,0.023-4.301,3.276-4.288,3.3c0.017,0.028,5.721-3.341,5.738-3.313c0.017,0.03-5.753,3.797-5.736,3.827
				c0.019,0.034,6.624-3.868,6.643-3.835c0.02,0.033-6.661,3.915-6.642,3.949c0.02,0.034,6.822-3.984,6.842-3.95
				c0.02,0.035-6.862,4.123-6.842,4.158c0.021,0.036,7.188-4.197,7.208-4.162c0.021,0.037-7.228,4.417-7.207,4.453
				c0.022,0.039,7.699-4.496,7.722-4.458c0.023,0.04-7.743,4.878-7.72,4.917c0.008,0.015,2.901-1.694,2.91-1.68
				c0.007,0.013-2.355,1.864-2.347,1.877c0.006,0.012,2.356-1.376,2.363-1.364c0.006,0.01-1.871,1.343-1.865,1.353
				c0.006,0.009,1.868-1.091,1.874-1.082s-1.826,1.072-1.821,1.081c0.005,0.009,1.817-1.061,1.822-1.052
				c0.003,0.005-0.524,1.016-0.521,1.021c0.002,0.003,0.542-0.316,0.543-0.313c0.001,0.001-0.139,0.303-0.139,0.304
				c0.001,0.001,0.145-0.084,0.146-0.084"/>
			<path fill="none" stroke="#91000A" stroke-width="0.2835" stroke-linecap="round" stroke-linejoin="round" d="M80.871,0.644
				c0,0,0.136-0.08,0.136-0.079c0.003,0.004-0.449,0.978-0.446,0.982c0.004,0.007,1.338-0.781,1.342-0.775
				c0.006,0.011-1.693,1.771-1.688,1.782c0.008,0.014,2.677-1.563,2.685-1.55c0.01,0.018-3.048,2.564-3.038,2.581
				c0.012,0.02,4.008-2.341,4.02-2.321c0.014,0.025-4.525,3.499-4.51,3.523c0.012,0.021,4.082-2.384,4.094-2.364
				c0.013,0.022-4.349,2.851-4.335,2.873c0.012,0.021,4.156-2.427,4.168-2.406c0.013,0.021-4.244,2.52-4.232,2.541
				c0.012,0.021,4.175-2.438,4.188-2.417c0.014,0.024-4.58,3.193-4.566,3.217c0.013,0.021,4.291-2.506,4.303-2.484
				c0.014,0.024-4.638,3.137-4.624,3.161c0.013,0.022,4.373-2.554,4.385-2.532c0.014,0.023-4.604,2.942-4.591,2.966
				c0.013,0.022,4.425-2.584,4.438-2.563c0.014,0.024-4.605,2.863-4.592,2.886c0.013,0.022,4.465-2.607,4.478-2.585
				c0.017,0.028-5.346,3.949-5.329,3.978c0.014,0.024,4.877-2.849,4.891-2.824c0.017,0.03-5.613,3.941-5.596,3.971
				c0.02,0.034,6.794-3.968,6.814-3.934c0.021,0.036-7.045,4.241-7.024,4.277c0.021,0.037,7.392-4.318,7.414-4.28
				c0.026,0.046-8.794,5.974-8.768,6.02c0.03,0.053,10.427-6.09,10.458-6.038c0.034,0.059-11.471,7.25-11.437,7.309
				c0.022,0.039,7.641-4.462,7.663-4.424s-7.561,4.479-7.539,4.517c0.021,0.038,7.521-4.392,7.542-4.354
				c0.022,0.038-7.521,4.349-7.499,4.387c0.021,0.038,7.479-4.368,7.5-4.33c0.021,0.037-7.366,4.411-7.345,4.448
				s7.328-4.279,7.349-4.243c0.021,0.036-6.795,4.696-6.774,4.732c0.02,0.034,6.77-3.954,6.79-3.92
				c0.019,0.034-6.481,4.224-6.462,4.257c0.009,0.016,3.204-1.871,3.213-1.855s-2.933,2.138-2.923,2.154
				c0.007,0.012,2.368-1.383,2.375-1.371"/>
			<path fill="none" stroke="#91000A" stroke-width="0.2835" stroke-linecap="round" stroke-linejoin="round" d="M65.138,18.041
				c0,0.001,0.249-0.146,0.25-0.144c0.001,0.002-0.135,0.593-0.133,0.596c0.005,0.009,1.829-1.068,1.834-1.059
				c0.006,0.01-1.675,1.692-1.669,1.703c0.021,0.035,7.073-4.13,7.093-4.095c0.021,0.036-6.972,4.611-6.951,4.647
				c0.02,0.035,6.94-4.053,6.96-4.019c0.021,0.035-6.926,4.197-6.906,4.232c0.02,0.035,7.047-4.116,7.067-4.081
				c0.021,0.037-6.899,4.779-6.878,4.815c0.034,0.059,11.774-6.876,11.808-6.817c0.029,0.05-9.538,6.358-9.509,6.407
				c0.022,0.039,7.662-4.475,7.685-4.437c0.019,0.033-6.329,3.967-6.31,3.999s6.351-3.709,6.369-3.677
				c0.019,0.033-6.384,3.925-6.365,3.958c0.019,0.032,6.394-3.734,6.412-3.702c0.02,0.034-6.421,4.477-6.401,4.511
				c0.008,0.015,2.958-1.728,2.967-1.713c0.009,0.016-2.972,1.977-2.963,1.992c0.009,0.015,2.956-1.726,2.964-1.711
				c0.01,0.017-2.962,2.631-2.952,2.647c0.009,0.015,2.947-1.721,2.955-1.706c0.009,0.016-2.959,2.041-2.95,2.057
				c0.009,0.015,2.943-1.719,2.952-1.704c0.009,0.016-2.954,2.214-2.945,2.23c0.008,0.014,2.938-1.716,2.947-1.701
				c0.01,0.017-2.944,2.642-2.935,2.659c0.009,0.015,2.929-1.711,2.938-1.696s-2.943,1.94-2.934,1.955
				c0.008,0.015,2.926-1.709,2.935-1.695c0.009,0.017-2.935,2.388-2.926,2.405c0.009,0.015,2.919-1.706,2.928-1.69
				c0.009,0.017-2.929,2.371-2.919,2.388c0.008,0.014,2.913-1.702,2.921-1.687c0.009,0.016-2.925,2.105-2.916,2.121
				c0.009,0.015,2.909-1.699,2.917-1.684c0.01,0.017-2.916,2.483-2.906,2.5c0.008,0.014,2.9-1.694,2.909-1.68
				c0.01,0.017-2.908,2.427-2.899,2.444c0.008,0.015,2.894-1.689,2.902-1.675c0.009,0.015-2.937,1.941-2.928,1.957
				s2.92-1.705,2.929-1.691c0.009,0.016-3.022,1.978-3.013,1.994c0.008,0.015,3.006-1.756,3.015-1.74"/>
			<path fill="none" stroke="#91000A" stroke-width="0.2835" stroke-linecap="round" stroke-linejoin="round" d="M72.574,9.757
				c0.01,0.018,3.493-2.04,3.503-2.023c0.009,0.016-2.953,1.997-2.944,2.012c0.008,0.014,2.943-1.719,2.952-1.704
				c0.006,0.01-1.755,1.669-1.749,1.68c0.005,0.009,1.76-1.028,1.765-1.019c0.003,0.006-0.976,0.998-0.972,1.003
				c0.003,0.005,0.98-0.572,0.983-0.567c0.001,0.002-0.135,0.548-0.134,0.551c0,0.001,0.145-0.084,0.145-0.084"/>
			<path fill="none" stroke="#91000A" stroke-width="0.2835" stroke-linecap="round" stroke-linejoin="round" d="M65.375,7.001
				c0,0.001,0.144-0.084,0.144-0.083c0.001,0.001-0.142,0.186-0.142,0.187c0.001,0.002,0.329-0.192,0.33-0.19
				c0.002,0.004-0.317,0.781-0.315,0.784c0.004,0.007,1.387-0.81,1.391-0.803c0.004,0.008-1.39,1.042-1.385,1.05
				c0.005,0.009,1.827-1.067,1.833-1.058c0.006,0.012-1.819,1.879-1.813,1.89c0.009,0.017,3.31-1.934,3.32-1.917
				c0.01,0.019-3.312,2.707-3.301,2.725c0.021,0.035,7.004-4.09,7.024-4.055c0.019,0.033-6.31,4.207-6.291,4.24
				c0.018,0.031,6.28-3.668,6.298-3.636c0.015,0.025-4.741,3.582-4.726,3.607c0.014,0.024,4.92-2.874,4.935-2.849
				c0.011,0.02-3.446,2.803-3.435,2.822c0.015,0.025,4.925-2.876,4.939-2.852c0.015,0.026-4.726,3.537-4.711,3.562
				c0.018,0.031,6.203-3.623,6.221-3.592c0.019,0.032-6.235,3.93-6.217,3.962c0.019,0.033,6.566-3.835,6.585-3.802
				s-6.604,3.823-6.584,3.855c0.019,0.033,6.567-3.835,6.586-3.802c0.02,0.034-6.599,4.315-6.579,4.35
				c0.019,0.033,6.573-3.839,6.592-3.806c0.02,0.034-6.609,3.948-6.59,3.981c0.008,0.015,2.937-1.715,2.945-1.701
				c0.01,0.018-2.944,2.656-2.934,2.673c0.008,0.015,2.94-1.717,2.949-1.703c0.009,0.016-2.954,2.029-2.945,2.045
				c0.009,0.015,2.942-1.718,2.951-1.703c0.01,0.017-2.95,2.525-2.94,2.542c0.009,0.015,2.945-1.72,2.954-1.706
				c0.009,0.015-2.962,1.737-2.953,1.752c0.008,0.015,2.945-1.72,2.954-1.706c0.01,0.017-2.953,2.58-2.943,2.597
				c0.008,0.015,2.949-1.722,2.958-1.708c0.01,0.017-2.958,2.507-2.948,2.524c0.009,0.015,2.953-1.724,2.961-1.709
				c0.009,0.016-2.966,1.976-2.958,1.992c0.009,0.015,2.954-1.725,2.962-1.71c0.009,0.016-2.966,2.156-2.957,2.172
				c0.008,0.015,2.955-1.726,2.964-1.711c0.009,0.016-2.968,2.096-2.959,2.112c0.008,0.015,2.957-1.727,2.965-1.712"/>
			<path fill="none" stroke="#91000A" stroke-width="0.2835" stroke-linecap="round" stroke-linejoin="round" d="M69.49,0.528
				c0,0.001,0.147-0.086,0.148-0.085c0.002,0.004-0.147,0.951-0.145,0.955c0.005,0.008,1.714-1.001,1.719-0.993
				c0.006,0.01-1.723,1.515-1.717,1.525c0.008,0.014,2.673-1.561,2.681-1.548s-2.689,1.592-2.681,1.606s2.778-1.623,2.786-1.608
				c0.008,0.014-2.793,1.763-2.785,1.777s2.893-1.689,2.901-1.675c0.009,0.015-2.909,1.979-2.9,1.995
				c0.008,0.015,2.896-1.691,2.904-1.676c0.009,0.016-2.911,2.114-2.902,2.129c0.008,0.014,2.9-1.694,2.908-1.679
				c0.009,0.016-2.916,2.316-2.906,2.332c0.009,0.015,2.906-1.697,2.914-1.682c0.01,0.016-2.921,2.294-2.912,2.311
				c0.008,0.015,2.912-1.7,2.92-1.686c0.009,0.016-2.928,2.038-2.919,2.053c0.009,0.015,2.915-1.702,2.923-1.688
				c0.009,0.016-2.93,2.091-2.921,2.106c0.008,0.014,2.918-1.705,2.927-1.69c0.009,0.015-2.935,1.771-2.927,1.786
				c0.009,0.015,2.92-1.705,2.928-1.69c0.009,0.015-2.936,1.839-2.928,1.854c0.009,0.015,2.921-1.706,2.93-1.691
				c0.009,0.016-2.937,2.162-2.928,2.177c0.008,0.015,2.925-1.708,2.934-1.694c0.009,0.015-2.942,1.692-2.934,1.708
				c0.008,0.014,2.926-1.709,2.934-1.694c0.01,0.017-2.94,2.548-2.931,2.565c0.008,0.015,2.933-1.713,2.941-1.698
				c0.009,0.015-2.95,1.82-2.941,1.836c0.009,0.015,2.935-1.714,2.943-1.699"/>
			<path fill="none" stroke="#91000A" stroke-width="0.2835" stroke-linecap="round" stroke-linejoin="round" d="M119.079,25.61
				c0.002,0.004,0.731-0.428,0.734-0.424c0.002,0.004-0.504,0.697-0.502,0.701c0.005,0.009,1.827-1.066,1.832-1.058
				c0.005,0.009-1.631,1.295-1.626,1.304c0.005,0.009,1.844-1.077,1.85-1.068s-1.749,1.186-1.743,1.195s1.854-1.083,1.859-1.073
				s-1.763,1.186-1.757,1.195s1.862-1.087,1.867-1.078s-1.529,1.513-1.524,1.522s1.902-1.111,1.908-1.102
				c0.005,0.009-1.62,1.496-1.615,1.505c0.006,0.01,1.919-1.121,1.925-1.111c0.005,0.01-1.592,1.567-1.587,1.577
				c0.006,0.01,1.938-1.132,1.944-1.122c0.005,0.01-1.853,1.276-1.847,1.286c0.006,0.01,1.958-1.144,1.964-1.134
				c0.006,0.01-1.958,1.145-1.952,1.155c0.005,0.01,1.959-1.145,1.965-1.135c0.006,0.01-1.885,1.27-1.879,1.28
				c0.005,0.01,1.967-1.149,1.973-1.139c0.004,0.008-1.111,1.583-1.106,1.591c0.004,0.007,1.556-0.909,1.56-0.901
				c0.004,0.007-1.365,0.791-1.361,0.798c0.004,0.006,1.362-0.796,1.367-0.789"/>
			<path fill="none" stroke="#91000A" stroke-width="0.2835" stroke-linecap="round" stroke-linejoin="round" d="M114.606,26.017
				c0.001,0.001,0.265-0.155,0.266-0.153c0.001,0.001-0.188,0.31-0.187,0.311c0.002,0.005,0.926-0.541,0.928-0.536
				c0.003,0.005-0.816,0.762-0.813,0.767c0.005,0.009,1.889-1.103,1.894-1.093c0.006,0.01-1.523,1.834-1.517,1.845
				c0.005,0.01,1.964-1.147,1.97-1.137c0.006,0.01-1.8,1.505-1.794,1.515s1.99-1.163,1.996-1.152
				c0.006,0.01-1.955,1.258-1.949,1.269c0.006,0.01,2.003-1.17,2.009-1.16s-1.877,1.489-1.871,1.5s2.031-1.186,2.037-1.176
				s-1.899,1.519-1.893,1.529c0.006,0.01,2.038-1.191,2.044-1.18c0.006,0.011-1.75,1.979-1.743,1.99
				c0.006,0.01,2.08-1.215,2.086-1.204s-1.961,1.644-1.955,1.655c0.006,0.011,2.118-1.237,2.124-1.227
				c0.006,0.011-2.07,1.422-2.064,1.433c0.006,0.011,2.129-1.244,2.136-1.233c0.006,0.011-2.137,1.241-2.13,1.252
				c0.006,0.01,2.13-1.245,2.137-1.234s-2.115,1.32-2.108,1.331s2.136-1.247,2.142-1.236c0.005,0.008-1.445,1.353-1.44,1.361
				c0.004,0.008,1.592-0.93,1.597-0.922c0.001,0.002-0.283,0.438-0.281,0.44c0.001,0.002,0.362-0.211,0.363-0.209"/>
			<path fill="none" stroke="#91000A" stroke-width="0.2835" stroke-linecap="round" stroke-linejoin="round" d="M110.267,26.252
				c0,0.001,0.173-0.102,0.174-0.1c0.002,0.004,0.004,0.962,0.006,0.966c0.006,0.011,2.123-1.239,2.128-1.229
				c0.006,0.011-2.092,1.422-2.086,1.433s2.127-1.242,2.133-1.231c0.007,0.012-2.011,1.921-2.004,1.934
				c0.006,0.011,2.157-1.26,2.164-1.249c0.007,0.013-2.07,1.957-2.063,1.969c0.007,0.011,2.215-1.293,2.221-1.283
				c0.007,0.013-2.148,1.842-2.141,1.854c0.006,0.011,2.226-1.3,2.232-1.289c0.007,0.012-2.213,1.527-2.206,1.539
				c0.006,0.012,2.239-1.308,2.246-1.296c0.007,0.012-2.24,1.489-2.233,1.501c0.007,0.011,2.258-1.318,2.265-1.308
				c0.007,0.013-2.226,2.042-2.218,2.056c0.007,0.012,2.322-1.356,2.329-1.344s-2.333,1.384-2.326,1.396
				c0.007,0.011,2.325-1.358,2.332-1.346c0.007,0.012-2.321,1.611-2.314,1.623c0.007,0.012,2.335-1.364,2.342-1.352
				s-2.345,1.402-2.338,1.414s2.337-1.365,2.344-1.354c0.003,0.006-0.697,1.095-0.694,1.1c0.002,0.004,0.76-0.444,0.763-0.44
				c0.001,0.001-0.161,0.345-0.16,0.347c0,0.001,0.185-0.108,0.185-0.107"/>
			<path fill="none" stroke="#91000A" stroke-width="0.2835" stroke-linecap="round" stroke-linejoin="round" d="M106.618,25.461
				c0,0.001,0.123-0.071,0.123-0.071c0.003,0.005-0.512,1.052-0.509,1.057c0.004,0.006,1.271-0.742,1.274-0.735
				c0.004,0.007-1.358,0.936-1.354,0.942c0.004,0.007,1.511-0.882,1.515-0.875c0.006,0.011-1.896,1.665-1.89,1.676
				c0.007,0.012,2.469-1.441,2.476-1.429c0.007,0.013-2.558,1.563-2.55,1.577s2.647-1.546,2.655-1.533s-2.748,1.686-2.74,1.7
				c0.008,0.014,2.85-1.665,2.858-1.65c0.008,0.015-2.946,1.792-2.938,1.807c0.009,0.015,3.04-1.775,3.049-1.76
				c0.013,0.022-3.981,3.229-3.968,3.25c0.012,0.02,3.896-2.275,3.908-2.256c0.013,0.022-4.084,2.896-4.071,2.917
				c0.011,0.019,3.783-2.21,3.794-2.191c0.01,0.018-3.302,2.436-3.292,2.454c0.008,0.015,2.938-1.715,2.946-1.701
				c0.008,0.014-2.651,1.846-2.644,1.859c0.007,0.012,2.423-1.415,2.43-1.403c0.007,0.012-2.341,1.441-2.334,1.453
				c0.006,0.011,2.26-1.32,2.267-1.309c0.006,0.01-1.989,1.446-1.983,1.457c0.005,0.009,1.777-1.038,1.783-1.029
				c0.005,0.008-1.628,1.104-1.623,1.113c0.004,0.008,1.465-0.855,1.469-0.848c0.003,0.006-0.804,1.192-0.801,1.199
				c0,0,0.147-0.086,0.147-0.085"/>
			<path fill="none" stroke="#91000A" stroke-width="0.2835" stroke-linecap="round" stroke-linejoin="round" d="M123.378,4.52
				c0.012,0.021,4.232-2.473,4.245-2.451c0.01,0.017-3.278,2.425-3.268,2.443c0.012,0.021,4.233-2.472,4.245-2.451
				c0.012,0.02-4.096,2.429-4.084,2.449c0.012,0.021,4.233-2.472,4.246-2.451c0.011,0.019-3.566,2.427-3.556,2.446
				c0.012,0.021,4.233-2.472,4.245-2.451c0.011,0.019-3.548,2.427-3.537,2.446c0.011,0.019,3.899-2.277,3.91-2.258
				c0.009,0.016-2.878,2.234-2.87,2.25c0.008,0.014,2.871-1.677,2.879-1.662c0.005,0.009-1.252,1.64-1.247,1.649
				c0.003,0.006,1.258-0.735,1.261-0.729c0.002,0.003-0.134,0.716-0.132,0.72c0,0,0.142-0.083,0.143-0.083"/>
			<path fill="none" stroke="#91000A" stroke-width="0.2835" stroke-linecap="round" stroke-linejoin="round" d="M120.191,0.256
				c0,0.001,0.143-0.083,0.143-0.083c0.001,0.002-0.137,0.427-0.136,0.429c0.002,0.004,0.754-0.44,0.756-0.437
				c0.002,0.004-0.758,0.456-0.755,0.46c0.002,0.003,0.795-0.464,0.797-0.46c0.003,0.004-0.796,0.654-0.793,0.659
				c0.003,0.005,1.146-0.669,1.149-0.663c0.004,0.007-1.14,1.35-1.136,1.357c0.007,0.012,2.373-1.386,2.38-1.374
				c0.007,0.012-2.385,1.455-2.378,1.466c0.007,0.013,2.537-1.481,2.544-1.469c0.008,0.014-2.544,1.847-2.537,1.86
				c0.009,0.016,2.988-1.745,2.997-1.73"/>
			<path fill="none" stroke="#91000A" stroke-width="0.2835" stroke-linecap="round" stroke-linejoin="round" d="M115.671,2.21
				c0,0,0.144-0.084,0.144-0.083s-0.144,0.224-0.144,0.226c0.001,0.001,0.394-0.23,0.395-0.228c0.003,0.005-0.395,1.149-0.392,1.154
				c0.006,0.01,2.021-1.181,2.027-1.171c0.007,0.013-2.031,2.138-2.024,2.15c0.011,0.019,3.743-2.186,3.753-2.167
				c0.011,0.019-3.765,2.176-3.753,2.195c0.011,0.019,3.792-2.215,3.804-2.196c0.01,0.018-3.272,2.433-3.262,2.451
				c0.021,0.035,6.985-4.08,7.006-4.044c0.018,0.031-5.929,4.003-5.912,4.034c0.017,0.03,5.906-3.449,5.923-3.419
				c0.016,0.028-5.436,3.387-5.419,3.414c0.016,0.027,5.409-3.159,5.425-3.132c0.013,0.021-3.828,3.094-3.815,3.116
				c0.012,0.021,4.16-2.43,4.172-2.409c0.011,0.02-3.997,2.386-3.986,2.406c0.012,0.021,4.159-2.429,4.171-2.408
				c0.011,0.019-3.589,2.519-3.578,2.537c0.013,0.022,4.393-2.565,4.406-2.543c0.013,0.022-4.415,2.75-4.401,2.772
				c0.014,0.024,4.794-2.8,4.808-2.776c0.014,0.024-4.82,2.875-4.806,2.898c0.014,0.025,5.009-2.925,5.023-2.9
				c0.015,0.025-5.035,3.005-5.021,3.03c0.015,0.026,5.237-3.058,5.252-3.032c0.017,0.028-5.253,3.839-5.237,3.867
				c0.02,0.034,6.699-3.913,6.718-3.879c0.02,0.034-6.737,3.881-6.718,3.915s6.763-3.949,6.782-3.916
				c0.02,0.034-6.8,3.987-6.78,4.021c0.02,0.035,6.946-4.058,6.966-4.022c0.021,0.036-6.939,4.395-6.918,4.431
				c0.008,0.015,2.949-1.723,2.958-1.708c0.007,0.012-2.216,1.686-2.209,1.697c0.006,0.011,2.211-1.291,2.217-1.28
				c0.004,0.006-0.779,1.255-0.775,1.261c0.002,0.004,0.788-0.46,0.79-0.457c0.001,0.002-0.138,0.446-0.137,0.448
				c0,0,0.144-0.084,0.144-0.083"/>
			<path fill="none" stroke="#91000A" stroke-width="0.2835" stroke-linecap="round" stroke-linejoin="round" d="M121.899,29.071
				c0,0,0.098-0.058,0.098-0.057c0.002,0.003,0.18,0.8,0.183,0.804c0.003,0.006,1.225-0.716,1.229-0.709
				c0.004,0.008-1.046,1.453-1.041,1.461c0.019,0.032,6.382-3.728,6.4-3.695c0.019,0.033-6.292,4.378-6.273,4.411
				c0.018,0.031,6.129-3.58,6.147-3.549c0.017,0.029-5.62,3.533-5.603,3.562c0.016,0.027,5.51-3.218,5.525-3.19
				s-5.42,3.162-5.404,3.189c0.016,0.027,5.372-3.137,5.388-3.111c0.014,0.024-4.581,3.08-4.567,3.104
				c0.013,0.022,4.444-2.596,4.457-2.573c0.012,0.021-4.363,2.55-4.35,2.572c0.012,0.022,4.323-2.524,4.335-2.503
				c0.01,0.017-3.035,2.434-3.025,2.451c0.008,0.014,2.725-1.591,2.733-1.578c0.005,0.009-1.518,1.354-1.513,1.363
				c0.003,0.006,1.084-0.633,1.087-0.628"/>
			<path fill="none" stroke="#91000A" stroke-width="0.2835" stroke-linecap="round" stroke-linejoin="round" d="M109.838,20.817
				c0.01,0.018,3.637-2.125,3.647-2.106c0.008,0.014-2.425,2.084-2.417,2.098c0.01,0.018,3.637-2.124,3.647-2.106
				c0.008,0.014-2.269,2.083-2.261,2.097c0.01,0.018,3.638-2.125,3.648-2.106c0.008,0.014-2.609,2.084-2.601,2.099
				c0.011,0.019,3.637-2.124,3.647-2.106c0.008,0.015-2.559,2.084-2.55,2.099c0.01,0.018,3.637-2.124,3.647-2.106
				c0.008,0.015-2.705,2.084-2.696,2.099c0.011,0.019,3.637-2.124,3.647-2.105c0.009,0.016-3.11,2.086-3.1,2.103
				c0.01,0.018,3.637-2.125,3.647-2.106c0.008,0.013-2.238,2.083-2.23,2.096c0.011,0.019,3.637-2.125,3.648-2.106
				c0.009,0.015-2.788,2.085-2.779,2.1c0.01,0.018,3.637-2.124,3.647-2.106c0.01,0.018-3.425,2.087-3.416,2.104
				c0.011,0.019,3.637-2.124,3.647-2.105c0.008,0.014-2.668,2.084-2.66,2.099c0.011,0.019,3.637-2.124,3.647-2.105
				c0.009,0.016-3.104,2.086-3.095,2.102c0.01,0.018,3.637-2.124,3.647-2.105c0.009,0.016-3.092,2.085-3.083,2.102
				c0.011,0.018,3.637-2.125,3.648-2.106c0.008,0.014-2.339,2.083-2.332,2.097c0.011,0.019,3.637-2.124,3.647-2.105
				c0.007,0.013-2.152,2.083-2.144,2.096c0.01,0.018,3.636-2.125,3.647-2.106c0.01,0.018-3.447,2.086-3.437,2.104
				c0.011,0.019,3.637-2.124,3.647-2.106c0.01,0.017-3.245,2.086-3.235,2.104c0.011,0.018,3.637-2.124,3.647-2.106
				c0.008,0.014-2.334,2.083-2.327,2.097c0.008,0.015,3.009-1.758,3.018-1.742c0.005,0.009-1.479,1.722-1.473,1.731
				c0.004,0.008,1.496-0.874,1.5-0.866c0.002,0.003-0.118,0.853-0.116,0.857c0,0.001,0.141-0.082,0.141-0.081"/>
			<path fill="none" stroke="#91000A" stroke-width="0.2835" stroke-linecap="round" stroke-linejoin="round" d="M120.149,13.305
				c0.009,0.016,3.112-1.817,3.121-1.802c0.007,0.012-2.256,1.781-2.249,1.793c0.009,0.016,3.118-1.821,3.127-1.806
				c0.006,0.012-1.861,1.783-1.854,1.794c0.009,0.016,3.128-1.827,3.137-1.811c0.008,0.013-2.431,1.791-2.423,1.804
				c0.009,0.016,3.133-1.83,3.142-1.814c0.006,0.011-1.52,1.789-1.514,1.799c0.009,0.016,3.145-1.836,3.154-1.821
				c0.009,0.016-3.084,1.805-3.076,1.82c0.009,0.016,3.145-1.836,3.154-1.821c0.009,0.015-2.915,1.821-2.907,1.836
				c0.009,0.015,3.021-1.764,3.029-1.749c0.01,0.016-3.018,2.305-3.008,2.321c0.009,0.015,3.008-1.757,3.017-1.742
				c0.009,0.016-3.016,2.007-3.007,2.023c0.009,0.015,3.002-1.754,3.011-1.738c0.01,0.016-2.999,2.34-2.989,2.357
				c0.009,0.015,2.989-1.746,2.998-1.73c0.009,0.016-2.995,2.049-2.986,2.064c0.009,0.015,2.982-1.741,2.991-1.727"/>
			<path fill="none" stroke="#91000A" stroke-width="0.2835" stroke-linecap="round" stroke-linejoin="round" d="M120.001,9.733
				c0.011,0.02,3.851-2.25,3.862-2.23c0.011,0.019-3.729,2.209-3.718,2.229c0.011,0.019,3.85-2.249,3.861-2.229
				c0.009,0.015-2.837,2.204-2.828,2.219c0.011,0.019,3.847-2.247,3.858-2.228c0.011,0.019-3.833,2.208-3.822,2.228
				c0.011,0.019,3.847-2.247,3.858-2.228c0.009,0.016-2.899,2.203-2.89,2.218c0.011,0.02,3.844-2.246,3.855-2.226
				c0.011,0.019-3.833,2.207-3.821,2.226c0.011,0.02,3.844-2.245,3.855-2.226c0.008,0.015-2.415,2.198-2.407,2.212
				c0.011,0.019,3.84-2.243,3.851-2.224c0.01,0.019-3.625,2.203-3.614,2.221c0.011,0.02,3.839-2.242,3.85-2.223
				c0.008,0.014-2.375,2.195-2.366,2.208c0.011,0.02,3.835-2.239,3.846-2.22c0.009,0.015-2.695,2.194-2.687,2.209
				s2.832-1.653,2.84-1.64c0.006,0.01-1.61,1.618-1.604,1.628c0.005,0.008,1.621-0.947,1.625-0.938
				c0.003,0.005-0.852,0.925-0.849,0.93s0.859-0.502,0.862-0.498c0.002,0.004-0.628,0.492-0.626,0.496
				c0.002,0.003,0.628-0.367,0.63-0.364c0.001,0.002-0.134,0.357-0.133,0.359c0,0,0.141-0.083,0.142-0.082"/>
			<path fill="none" stroke="#91000A" stroke-width="0.2835" stroke-linecap="round" stroke-linejoin="round" d="M112.501,9.728
				c0.011,0.02,3.925-2.293,3.937-2.273c0.008,0.015-2.452,2.245-2.444,2.259c0.011,0.019,3.733-2.181,3.744-2.162
				c0.009,0.015-2.841,2.137-2.832,2.153c0.011,0.019,3.731-2.179,3.742-2.16c0.008,0.014-2.337,2.133-2.329,2.146
				c0.011,0.019,3.727-2.176,3.737-2.158c0.009,0.016-2.856,2.476-2.847,2.493c0.013,0.021,4.326-2.526,4.338-2.505
				c0.013,0.023-4.334,2.966-4.321,2.989c0.015,0.025,5.173-3.021,5.188-2.995c0.016,0.027-5.179,3.622-5.164,3.648
				c0.019,0.032,6.318-3.69,6.337-3.659c0.019,0.033-6.345,3.901-6.327,3.934c0.007,0.013,2.595-1.516,2.603-1.503"/>
			<path fill="none" stroke="#91000A" stroke-width="0.2835" stroke-linecap="round" stroke-linejoin="round" d="M112.568,13.331
				c0.009,0.016,3.089-1.804,3.098-1.789c0.007,0.012-1.976,1.767-1.969,1.778c0.009,0.015,3.077-1.797,3.086-1.782
				c0.007,0.012-2.302,1.761-2.294,1.774c0.016,0.027,5.37-3.137,5.385-3.109c0.014,0.023-4.325,3.076-4.312,3.099
				c0.013,0.022,4.321-2.524,4.333-2.502c0.012,0.021-4.038,2.479-4.026,2.5s4.021-2.348,4.033-2.329
				c0.009,0.016-2.695,2.503-2.686,2.519c0.01,0.017,3.397-1.984,3.407-1.967c0.011,0.019-3.399,2.453-3.389,2.471
				c0.013,0.021,4.277-2.499,4.29-2.477c0.013,0.023-4.28,3.099-4.267,3.122c0.016,0.027,5.405-3.157,5.421-3.13
				c0.016,0.028-5.422,3.518-5.406,3.546c0.007,0.013,2.598-1.518,2.605-1.504c0.008,0.013-2.611,1.547-2.603,1.561
				s2.598-1.517,2.605-1.504"/>
			<path fill="none" stroke="#91000A" stroke-width="0.2835" stroke-linecap="round" stroke-linejoin="round" d="M109.825,17.078
				c0.009,0.016,3.204-1.872,3.213-1.855c0.008,0.013-2.46,1.837-2.452,1.85c0.009,0.016,3.199-1.869,3.208-1.853
				c0.008,0.014-2.549,1.834-2.541,1.848c0.009,0.016,3.196-1.867,3.206-1.851c0.008,0.014-2.481,1.833-2.474,1.846
				c0.009,0.016,3.192-1.864,3.201-1.848c0.007,0.013-2.378,1.829-2.371,1.842c0.009,0.016,3.187-1.861,3.196-1.845
				c0.007,0.013-2.381,1.826-2.374,1.839c0.009,0.016,3.182-1.858,3.191-1.842c0.008,0.014-2.569,1.825-2.562,1.838
				c0.017,0.028,5.602-3.271,5.618-3.243c0.015,0.025-4.874,3.213-4.859,3.238c0.014,0.024,4.86-2.838,4.874-2.814
				c0.014,0.023-4.508,2.788-4.495,2.811c0.013,0.022,4.489-2.622,4.502-2.599c0.012,0.021-4.145,2.576-4.133,2.597
				c0.012,0.021,4.128-2.412,4.141-2.391c0.009,0.016-2.678,2.365-2.669,2.38c0.009,0.016,3.162-1.847,3.171-1.831
				c0.007,0.012-2.186,1.812-2.178,1.824c0.009,0.016,3.156-1.843,3.166-1.828c0.006,0.011-1.562,1.807-1.556,1.817
				c0.009,0.016,3.146-1.837,3.155-1.822c0.007,0.012-2,1.802-1.993,1.814c0.009,0.016,3.139-1.833,3.148-1.817
				c0.006,0.01-1.576,1.796-1.57,1.807c0.016,0.027,5.417-3.164,5.433-3.137c0.014,0.025-4.797,3.108-4.783,3.132
				c0.014,0.024,4.774-2.788,4.788-2.764c0.012,0.02-3.709,2.737-3.698,2.757c0.01,0.018,3.696-2.159,3.707-2.14
				c0.008,0.014-2.43,2.117-2.422,2.131c0.007,0.012,2.425-1.417,2.433-1.404c0.006,0.01-1.886,1.39-1.88,1.4
				c0.005,0.01,1.879-1.097,1.884-1.088c0.003,0.005-0.456,1.073-0.453,1.079c0.001,0.002,0.463-0.271,0.464-0.269
				c0.001,0.001-0.14,0.265-0.139,0.266c0,0.001,0.142-0.083,0.142-0.082"/>
			<path fill="none" stroke="#91000A" stroke-width="0.2835" stroke-linecap="round" stroke-linejoin="round" d="M112.586,5.999
				c0.001,0.002,0.336-0.196,0.337-0.195c0.002,0.003,0.047,0.755,0.049,0.758c0.006,0.01,2.097-1.225,2.103-1.214
				c0.006,0.01-2.022,1.33-2.017,1.341c0.006,0.01,2.103-1.228,2.109-1.218c0.006,0.011-1.715,1.79-1.708,1.801
				c0.006,0.01,2.125-1.242,2.132-1.231c0.006,0.011-1.976,1.459-1.969,1.47c0.006,0.011,2.137-1.248,2.143-1.237"/>
			<path fill="none" stroke="#91000A" stroke-width="0.2835" stroke-linecap="round" stroke-linejoin="round" d="M105.042,9.753
				c0.011,0.019,3.739-2.184,3.75-2.165c0.009,0.015-2.737,2.14-2.729,2.155c0.011,0.019,3.728-2.177,3.738-2.158
				c0.011,0.018-3.559,2.139-3.549,2.157c0.011,0.019,3.726-2.176,3.737-2.158c0.009,0.015-2.649,2.133-2.641,2.147
				c0.011,0.019,3.714-2.169,3.725-2.151c0.008,0.015-2.506,2.125-2.498,2.139c0.011,0.019,3.701-2.161,3.712-2.143
				c0.009,0.016-2.982,2.121-2.973,2.136c0.011,0.019,3.693-2.157,3.704-2.139c0.011,0.019-3.361,2.631-3.35,2.65
				c0.018,0.031,6.27-3.662,6.288-3.63c0.019,0.033-6.289,4.094-6.27,4.126c0.019,0.033,6.475-3.782,6.494-3.749
				c0.02,0.033-6.5,4.063-6.481,4.095c0.019,0.034,6.619-3.865,6.638-3.832c0.02,0.034-6.648,4.057-6.628,4.09
				c0.007,0.013,2.562-1.496,2.569-1.483c0.007,0.013-2.575,1.52-2.567,1.533c0.007,0.013,2.562-1.497,2.569-1.483
				c0.007,0.013-2.574,1.562-2.566,1.575c0.007,0.013,2.562-1.496,2.569-1.483"/>
			<path fill="none" stroke="#91000A" stroke-width="0.2835" stroke-linecap="round" stroke-linejoin="round" d="M105.054,13.356
				c0.009,0.015,3.088-1.804,3.097-1.788c0.007,0.013-2.448,1.769-2.44,1.782c0.009,0.015,3.081-1.799,3.09-1.784
				c0.009,0.015-3.029,1.768-3.021,1.783c0.009,0.016,3.08-1.799,3.089-1.784c0.007,0.013-2.339,1.764-2.332,1.777
				c0.009,0.015,3.072-1.794,3.081-1.779c0.009,0.015-3.05,1.763-3.041,1.778s3.071-1.794,3.081-1.779
				c0.005,0.01-1.513,1.753-1.507,1.764c0.012,0.021,4.154-2.427,4.167-2.406c0.01,0.017-3.188,2.379-3.178,2.396
				c0.009,0.016,3.189-1.863,3.198-1.847c0.008,0.014-2.71,1.828-2.702,1.842c0.009,0.015,3.039-1.775,3.048-1.76
				s-3.027,1.872-3.018,1.888c0.01,0.016,3.261-1.905,3.271-1.889c0.01,0.018-3.255,2.618-3.245,2.636
				c0.013,0.023,4.561-2.664,4.574-2.641c0.013,0.023-4.583,2.712-4.57,2.735c0.014,0.024,4.726-2.76,4.739-2.736
				c0.015,0.025-4.727,3.471-4.712,3.497c0.007,0.013,2.564-1.498,2.572-1.485c0.008,0.013-2.576,1.553-2.569,1.565
				s2.564-1.498,2.572-1.485"/>
			<path fill="none" stroke="#91000A" stroke-width="0.2835" stroke-linecap="round" stroke-linejoin="round" d="M104.902,17.087
				c0.009,0.017,3.228-1.885,3.237-1.869c0.009,0.015-2.942,1.845-2.934,1.86c0.009,0.016,3.217-1.879,3.227-1.863
				c0.006,0.01-1.509,1.801-1.503,1.812c0.016,0.027,5.363-3.132,5.379-3.105s-5.367,3.3-5.352,3.327
				c0.016,0.027,5.344-3.121,5.359-3.094c0.016,0.027-5.372,3.386-5.355,3.414c0.016,0.027,5.352-3.125,5.367-3.099
				c0.016,0.028-5.378,3.463-5.362,3.491c0.015,0.027,5.36-3.131,5.376-3.104c0.016,0.028-5.388,3.48-5.372,3.508
				c0.016,0.027,5.423-3.168,5.438-3.14c0.016,0.027-5.454,3.169-5.438,3.197c0.016,0.028,5.522-3.225,5.538-3.197
				c0.018,0.03-5.544,4.071-5.527,4.101c0.008,0.014,2.721-1.589,2.729-1.576c0.008,0.015-2.734,1.849-2.726,1.863
				c0.008,0.014,2.729-1.594,2.737-1.58c0.008,0.014-2.744,1.708-2.735,1.722c0.008,0.014,2.733-1.596,2.741-1.583
				c0.009,0.016-2.74,2.379-2.731,2.395c0.009,0.016,3.167-1.85,3.177-1.834c0.01,0.017-3.181,2.354-3.171,2.372
				c0.012,0.021,4.107-2.399,4.119-2.378c0.012,0.021-4.125,2.927-4.113,2.949c0.015,0.025,5.105-2.981,5.12-2.956
				c0.016,0.028-5.125,3.865-5.109,3.893c0.008,0.013,2.679-1.564,2.687-1.551c0.009,0.015-2.688,2.154-2.68,2.169
				c0.008,0.014,2.695-1.574,2.703-1.561c0.008,0.014-2.711,1.583-2.703,1.596c0.008,0.014,2.697-1.575,2.705-1.562
				c0.009,0.016-2.705,2.254-2.696,2.27c0.008,0.014,2.716-1.586,2.724-1.572c0.008,0.014-2.564,2.183-2.556,2.197
				c0.01,0.018,3.622-2.115,3.632-2.097c0.007,0.013-2.204,2.075-2.196,2.088c0.011,0.018,3.623-2.116,3.633-2.098
				s-3.573,2.079-3.563,2.097s3.622-2.116,3.633-2.098c0.009,0.016-2.846,2.077-2.837,2.092c0.011,0.019,3.623-2.115,3.633-2.097
				c0.01,0.017-3.358,2.078-3.349,2.096c0.01,0.018,3.623-2.116,3.633-2.098c0.009,0.015-2.898,2.077-2.89,2.093
				c0.011,0.018,3.623-2.116,3.633-2.098c0.009,0.015-2.869,2.077-2.86,2.093c0.011,0.018,3.623-2.116,3.633-2.098
				c0.01,0.016-3.185,2.078-3.175,2.094c0.01,0.019,3.623-2.116,3.633-2.098c0.009,0.016-3.1,2.078-3.09,2.094
				c0.011,0.019,3.624-2.116,3.634-2.098c0.009,0.016-3.118,2.078-3.108,2.094c0.01,0.018,3.623-2.116,3.633-2.098
				c0.009,0.015-2.803,2.078-2.795,2.092c0.011,0.019,3.623-2.116,3.634-2.098c0.007,0.013-2.103,2.075-2.096,2.088
				c0.01,0.018,3.624-2.116,3.634-2.098c0.01,0.017-3.183,2.079-3.174,2.095c0.01,0.018,3.624-2.116,3.634-2.098
				c0.008,0.014-2.568,2.077-2.56,2.091c0.01,0.018,3.624-2.117,3.634-2.099c0.008,0.014-2.433,2.077-2.424,2.091
				c0.01,0.018,3.624-2.117,3.634-2.099c0.007,0.013-2.141,2.075-2.133,2.088c0.011,0.019,3.624-2.116,3.635-2.098
				c0.008,0.014-2.369,2.077-2.361,2.09c0.011,0.019,3.625-2.117,3.635-2.099c0.008,0.013-2.199,2.076-2.191,2.089
				c0.01,0.018,3.625-2.117,3.635-2.099c0.009,0.015-2.741,2.078-2.732,2.093c0.01,0.018,3.625-2.117,3.635-2.099
				c0.01,0.018-3.447,2.08-3.437,2.098c0.01,0.018,3.625-2.117,3.635-2.099c0.01,0.017-3.28,2.08-3.271,2.096
				c0.011,0.019,3.625-2.117,3.635-2.099c0.01,0.017-3.133,2.08-3.123,2.096c0.01,0.019,3.625-2.117,3.636-2.099
				c0.009,0.016-2.839,2.079-2.83,2.094c0.011,0.018,3.625-2.118,3.636-2.099c0.009,0.015-2.73,2.078-2.722,2.093
				c0.009,0.017,3.294-1.924,3.303-1.907c0.009,0.016-3.035,2.007-3.025,2.022c0.008,0.015,3.001-1.753,3.01-1.738
				c0.009,0.015-3.021,1.753-3.012,1.769c0.008,0.015,3.002-1.754,3.011-1.739c0.01,0.017-3.073,2.471-3.063,2.488
				c0.008,0.015,3.001-1.753,3.01-1.738c0.01,0.018-3.091,2.674-3.081,2.692c0.009,0.015,2.986-1.744,2.995-1.729
				c0.01,0.018-3.165,2.657-3.154,2.674c0.009,0.015,3.065-1.791,3.074-1.775c0.011,0.019-3.306,2.633-3.295,2.651
				c0.009,0.016,3.193-1.864,3.202-1.849c0.01,0.018-3.371,2.207-3.361,2.224s3.312-1.934,3.321-1.917
				c0.01,0.018-3.444,2.104-3.434,2.121c0.01,0.017,3.404-1.988,3.414-1.971"/>
			<path fill="none" stroke="#91000A" stroke-width="0.2835" stroke-linecap="round" stroke-linejoin="round" d="M101.951,7.693
				c0,0,0.142-0.083,0.143-0.082c0.001,0.002-0.143,0.597-0.141,0.6c0.003,0.005,1.042-0.608,1.045-0.603
				c0.004,0.007-1.046,1.333-1.042,1.341c0.007,0.011,2.323-1.357,2.33-1.345c0.007,0.013-2.335,1.964-2.328,1.978
				c0.01,0.017,3.423-1.999,3.433-1.982c0.01,0.018-3.442,2.209-3.432,2.227c0.011,0.019,3.848-2.248,3.859-2.229
				c0.012,0.021-3.869,3.05-3.856,3.071c0.015,0.027,5.312-3.103,5.328-3.076c0.017,0.028-5.341,3.962-5.325,3.991
				c0.008,0.014,2.796-1.633,2.804-1.619c0.009,0.015-2.812,1.959-2.803,1.974s2.808-1.64,2.816-1.625
				c0.009,0.015-2.823,1.893-2.814,1.908c0.008,0.015,2.817-1.645,2.825-1.631c0.009,0.016-2.832,2.429-2.823,2.445
				c0.008,0.015,2.844-1.661,2.852-1.646c0.009,0.015-2.859,1.913-2.851,1.927c0.008,0.015,2.999-1.752,3.008-1.737
				c0.01,0.017-3.015,2.661-3.005,2.678c0.014,0.024,4.636-2.707,4.649-2.684c0.014,0.024-4.662,3.012-4.648,3.036
				c0.015,0.026,5.247-3.064,5.262-3.038c0.016,0.027-5.276,3.54-5.261,3.568c0.008,0.014,2.794-1.632,2.802-1.618
				c0.01,0.017-2.824,2.573-2.815,2.59c0.008,0.014,2.841-1.659,2.849-1.645c0.009,0.015-2.862,1.893-2.853,1.908
				c0.008,0.014,2.854-1.667,2.862-1.652c0.009,0.016-2.881,2.357-2.872,2.374s3.192-1.865,3.202-1.849
				c0.01,0.018-3.223,2.54-3.212,2.557c0.013,0.022,4.437-2.591,4.45-2.569c0.013,0.023-4.486,2.997-4.473,3.021
				c0.015,0.026,5.23-3.054,5.245-3.028c0.016,0.029-5.32,3.855-5.304,3.883c0.008,0.014,2.87-1.676,2.878-1.662
				c0.01,0.017-2.943,2.447-2.933,2.464c0.008,0.015,2.884-1.685,2.893-1.67c0.008,0.015-2.92,1.932-2.912,1.947
				c0.008,0.014,2.889-1.688,2.897-1.673c0.009,0.016-2.938,2.11-2.929,2.125c0.008,0.014,2.897-1.692,2.906-1.678
				c0.009,0.015-2.936,1.954-2.927,1.969c0.008,0.014,2.904-1.696,2.913-1.682c0.01,0.017-3.068,2.611-3.058,2.629
				c0.008,0.015,2.989-1.746,2.998-1.731c0.009,0.016-3.035,1.898-3.026,1.914s2.998-1.75,3.006-1.736
				c0.01,0.017-3.11,2.331-3.1,2.348c0.009,0.015,3.026-1.767,3.035-1.752c0.009,0.016-3.07,1.909-3.061,1.924
				c0.009,0.015,3.033-1.771,3.042-1.756c0.009,0.017-3.119,2.18-3.11,2.196c0.009,0.015,3.054-1.784,3.063-1.768
				c0.011,0.018-3.247,2.673-3.236,2.691c0.009,0.016,3.129-1.828,3.139-1.812c0.01,0.018-3.373,2.589-3.362,2.607
				c0.01,0.017,3.25-1.898,3.26-1.882c0.011,0.019-3.474,2.587-3.463,2.606c0.01,0.017,3.322-1.94,3.332-1.924
				c0.011,0.019-3.533,2.581-3.522,2.6c0.01,0.017,3.389-1.979,3.399-1.962c0.012,0.021-3.751,2.869-3.739,2.89
				c0.01,0.018,3.57-2.085,3.581-2.067c0.013,0.021-4.018,2.936-4.006,2.958c0.011,0.019,3.83-2.236,3.84-2.217
				c0.012,0.02-3.906,2.312-3.895,2.332c0.011,0.019,3.853-2.25,3.864-2.231c0.014,0.025-4.481,3.527-4.467,3.552
				c0.012,0.021,4.088-2.387,4.1-2.367c0.011,0.02-3.885,2.447-3.874,2.467c0.011,0.019,3.775-2.205,3.786-2.186
				c0.011,0.018-3.536,2.284-3.526,2.302c0.01,0.018,3.416-1.995,3.426-1.978c0.009,0.016-2.707,2.362-2.698,2.377
				c0.007,0.012,2.332-1.361,2.338-1.35s-1.94,1.593-1.934,1.604c0.005,0.008,1.627-0.95,1.632-0.942
				c0.004,0.007-1.328,1.151-1.324,1.159c0.003,0.006,1.076-0.628,1.08-0.623c0.003,0.005-0.795,0.839-0.792,0.844
				c0.002,0.003,0.55-0.321,0.552-0.318s-0.502,0.354-0.501,0.357s0.458-0.267,0.459-0.265c0.001,0.002-0.271,0.409-0.27,0.411
				c0,0,0.111-0.065,0.112-0.064"/>
			<path fill="none" stroke="#91000A" stroke-width="0.2835" stroke-linecap="round" stroke-linejoin="round" d="M109.746,4.566
				c0.012,0.02,4.12-2.406,4.132-2.386c0.011,0.019-3.592,2.361-3.582,2.38c0.01,0.018,3.576-2.089,3.586-2.071
				c0.008,0.014-2.412,2.045-2.404,2.058c0.007,0.012,2.407-1.405,2.414-1.394c0.005,0.009-1.64,1.377-1.634,1.386
				c0.005,0.008,1.636-0.956,1.641-0.948c0.003,0.005-0.684,0.932-0.681,0.938c0.002,0.003,0.688-0.402,0.69-0.398
				c0.001,0.002-0.139,0.391-0.138,0.393c0,0,0.143-0.083,0.143-0.083"/>
			<path fill="none" stroke="#91000A" stroke-width="0.2835" stroke-linecap="round" stroke-linejoin="round" d="M106.592,0.303
				c0,0.001,0.144-0.083,0.144-0.083c0.001,0.001-0.142,0.186-0.142,0.187c0.001,0.002,0.327-0.191,0.328-0.189
				c0.002,0.003-0.319,0.781-0.317,0.785c0.004,0.007,1.381-0.807,1.385-0.799c0.004,0.007-1.384,1.04-1.38,1.046
				c0.005,0.009,1.819-1.062,1.824-1.053c0.007,0.011-1.814,1.875-1.808,1.885c0.009,0.015,2.955-1.726,2.963-1.711"/>
			<path fill="none" stroke="#91000A" stroke-width="0.2835" stroke-linecap="round" stroke-linejoin="round" d="M99.829,2.299
				c0,0,0.143-0.083,0.143-0.083c0.002,0.004-0.143,0.948-0.14,0.952c0.005,0.008,1.665-0.973,1.67-0.964
				c0.006,0.009-1.674,1.487-1.668,1.497c0.007,0.013,2.598-1.518,2.605-1.504c0.008,0.013-2.613,1.549-2.605,1.562
				c0.008,0.014,2.699-1.576,2.707-1.563c0.008,0.014-2.714,1.718-2.707,1.732c0.009,0.015,2.995-1.75,3.004-1.734
				s-3.012,2.038-3.003,2.054c0.01,0.018,3.555-2.076,3.565-2.059c0.011,0.018-3.398,2.392-3.388,2.41
				c0.012,0.021,4.173-2.437,4.185-2.416c0.01,0.017-3.045,2.39-3.036,2.407c0.012,0.021,4.173-2.437,4.185-2.417
				c0.01,0.017-3.09,2.391-3.08,2.408c0.012,0.021,4.173-2.438,4.186-2.417c0.011,0.019-3.549,2.393-3.539,2.411
				c0.019,0.033,6.663-3.891,6.682-3.858c0.018,0.03-5.964,3.822-5.946,3.852c0.018,0.03,5.937-3.467,5.954-3.438
				c0.017,0.029-5.802,3.407-5.785,3.437c0.017,0.028,5.771-3.371,5.787-3.341c0.016,0.028-5.515,3.311-5.499,3.339
				c0.016,0.027,5.486-3.204,5.502-3.176c0.014,0.024-4.662,3.146-4.648,3.17c0.013,0.023,4.644-2.712,4.657-2.689
				c0.013,0.023-4.647,2.665-4.634,2.688c0.013,0.023,4.621-2.698,4.634-2.675c0.01,0.018-3.111,2.646-3.101,2.664
				c0.012,0.02,4.104-2.397,4.116-2.376c0.012,0.021-4.032,2.722-4.02,2.743c0.014,0.023,4.75-2.775,4.764-2.751
				c0.015,0.025-4.767,3.41-4.752,3.436c0.018,0.03,5.956-3.479,5.973-3.449c0.017,0.03-5.988,3.571-5.971,3.602
				c0.018,0.031,6.226-3.635,6.243-3.604c0.019,0.033-6.215,4.368-6.197,4.4c0.009,0.015,2.925-1.708,2.934-1.694
				c0.006,0.012-2.004,1.67-1.998,1.681c0.006,0.01,2.001-1.169,2.007-1.159c0.005,0.009-1.874,1.147-1.869,1.157
				s1.864-1.089,1.87-1.08c0.003,0.005-0.618,1.058-0.615,1.063c0.002,0.003,0.626-0.366,0.628-0.363
				c0.001,0.003-0.392,0.357-0.39,0.36c0.001,0.001,0.392-0.229,0.393-0.227c0.001,0.001-0.142,0.222-0.141,0.224
				c0,0,0.143-0.084,0.144-0.083"/>
		</g>
	</g>
</g>
</svg>
