<?xml version="1.0" encoding="utf-8"?>
<!-- Generator: Adobe Illustrator 15.1.0, SVG Export Plug-In . SVG Version: 6.00 Build 0)  -->
<!DOCTYPE svg PUBLIC "-//W3C//DTD SVG 1.1//EN" "http://www.w3.org/Graphics/SVG/1.1/DTD/svg11.dtd">
<svg version="1.1" id="圖層_1" xmlns="http://www.w3.org/2000/svg" xmlns:xlink="http://www.w3.org/1999/xlink" x="0px" y="0px"
	 width="108.08px" height="12.759px" viewBox="0 1.634 108.08 12.759" enable-background="new 0 1.634 108.08 12.759"
	 xml:space="preserve">
<g>
	<path fill="#FFFFFF" d="M4.101,4.11c0.138,0,0.386,0.042,0.386,0.317S4.239,4.744,4.101,4.744H0.385C0.233,4.744,0,4.703,0,4.428
		S0.248,4.11,0.385,4.11H4.101z M3.688,2.17c0.137,0,0.385,0.041,0.385,0.316c0,0.276-0.261,0.304-0.385,0.304H0.798
		c-0.138,0-0.385-0.027-0.385-0.304c0-0.289,0.261-0.316,0.385-0.316H3.688z M2.794,9.837c1.019,0,1.252,0.44,1.252,1.087v2.092
		c0,0.743-0.331,1.087-1.252,1.087H1.665c-1.019,0-1.252-0.44-1.252-1.087v-2.092c0-0.744,0.33-1.087,1.252-1.087H2.794z
		 M3.702,6.065c0.138,0,0.385,0.041,0.385,0.316c0,0.29-0.248,0.317-0.385,0.317H0.853c-0.124,0-0.385-0.042-0.385-0.317
		c0-0.289,0.261-0.316,0.385-0.316H3.702z M3.702,7.938c0.152,0,0.385,0.041,0.385,0.316c0,0.289-0.248,0.317-0.385,0.317H0.853
		c-0.138,0-0.385-0.042-0.385-0.317c0-0.275,0.261-0.302,0.385-0.316H3.702z M2.904,11.048c0-0.564-0.165-0.578-0.688-0.578
		c-0.496,0-0.579,0.111-0.579,0.578v1.844c0,0.579,0.152,0.579,0.771,0.579c0.496,0,0.496-0.261,0.496-0.579V11.048z M10.186,4.772
		c0,1.982,0.096,3.703,0.262,4.886c0.289-0.688,0.495-1.542,0.688-2.326c0.041-0.165,0.137-0.578,0.633-0.578
		c0.385,0,0.756,0.275,0.756,0.646c0,0.331-0.66,2.313-1.762,3.868c0.179,0.619,0.537,1.5,0.826,1.5c0.193,0,0.234-0.22,0.289-0.605
		c0.027-0.137,0.068-0.426,0.44-0.426c0.234,0,0.509,0.165,0.509,0.468c0,0.137-0.289,2.161-1.307,2.161
		c-0.757,0-1.308-0.923-1.707-1.955c-0.688,0.661-1.527,1.404-2.684,1.858c-0.056,0.028-0.138,0.041-0.193,0.041
		c-0.179,0-0.316-0.137-0.316-0.316s0.137-0.248,0.207-0.29c1.211-0.661,1.858-1.184,2.656-2.298
		c-0.496-2.01-0.563-4.322-0.578-6.634H6.937c-0.496,0-0.592,0.151-0.592,0.592v1.225h1.157c0.785,0,1.06,0.455,1.06,0.991
		c0,0.027-0.096,2.767-0.344,3.497c-0.22,0.674-0.812,0.674-1.128,0.674H6.538c-0.124,0-0.385-0.028-0.385-0.317
		c0-0.124,0.083-0.316,0.344-0.316h0.261c0.22,0,0.344-0.083,0.44-0.51c0.041-0.22,0.193-1.625,0.193-2.973
		c0-0.22-0.069-0.413-0.399-0.413H6.345v0.661c0,2.684-0.427,4.005-0.867,4.9c-0.206,0.399-0.771,1.404-1.087,1.404
		c-0.179,0-0.317-0.165-0.317-0.316c0-0.096,0.317-0.771,0.372-0.909c0.207-0.537,0.523-1.363,0.523-4.721V5.364
		c0-0.854,0.399-1.226,1.363-1.226h2.56c0-0.289-0.027-1.885,0.028-2.078c0.068-0.234,0.315-0.385,0.605-0.385
		c0.233,0,0.578,0.124,0.633,0.481c0.013,0.082,0.013,1.68,0.013,1.982h2.148c0.124,0,0.386,0.042,0.386,0.317
		c0,0.289-0.262,0.316-0.386,0.316H10.186z M12.512,3.12c0,0.399-0.358,0.62-0.662,0.62c-0.274,0-0.316-0.083-0.592-0.578
		C11.177,3.01,10.75,2.349,10.75,2.225c0-0.179,0.138-0.316,0.303-0.316S12.512,2.597,12.512,3.12z"/>
	<path fill="#FFFFFF" d="M16.981,2.569c0-0.385,0.11-0.895,0.743-0.895c0.605,0,0.757,0.455,0.757,0.895v0.482h3.291V2.583
		c0-0.358,0.096-0.909,0.742-0.909c0.634,0,0.771,0.481,0.771,0.909v0.468h2.78c0.138,0,0.373,0.041,0.373,0.302
		c0,0.29-0.248,0.317-0.373,0.317h-2.78v0.826c0,0.372-0.096,0.908-0.757,0.908c-0.619,0-0.756-0.468-0.756-0.908V3.671h-3.291V4.51
		c0,0.385-0.124,0.895-0.757,0.895c-0.606,0-0.743-0.44-0.743-0.895V3.671H14.16c-0.138,0-0.386-0.042-0.386-0.303
		c0-0.289,0.262-0.316,0.386-0.316h2.822V2.569z M19.376,6.313V5.267c0-0.729,0.661-0.743,0.758-0.743c0.055,0,0.757,0,0.757,0.743
		v1.047h5.162c0.138,0,0.386,0.041,0.386,0.316s-0.235,0.317-0.373,0.317h-6.854c0,0.715-0.042,1.252-0.097,1.83h4.941
		c0.289,0,1.032,0,1.032,0.785c0,0.233-0.137,1.569-0.426,2.863c-0.413,1.844-1.115,1.858-2.836,1.858h-1.789
		c-0.125,0-0.385-0.041-0.385-0.316s0.248-0.316,0.385-0.316h1.5c1.102,0,1.308-0.138,1.528-0.895
		c0.276-0.922,0.496-2.753,0.496-3.111c0-0.178-0.11-0.234-0.248-0.234h-4.267c-0.248,1.321-0.812,2.74-2.368,3.745
		c-1.073,0.688-2.339,1.184-2.491,1.184c-0.179,0-0.317-0.152-0.317-0.317c0-0.206,0.166-0.289,0.262-0.33
		c3.4-1.5,3.456-4.047,3.51-6.744H14.16c-0.124,0-0.386-0.028-0.386-0.317c0-0.275,0.248-0.316,0.386-0.316H19.376z"/>
	<path fill="#FFFFFF" d="M29.448,9.466c-0.111,1.28-0.413,2.533-0.978,3.689c-0.178,0.372-0.537,1.045-0.812,1.045
		c-0.193,0-0.317-0.165-0.317-0.316c0-0.096,0.221-0.592,0.262-0.688c0.261-0.771,0.564-2.133,0.564-4.033V3.244
		c0-0.826,0.413-1.088,1.267-1.088h1.514c0.963,0,1.266,0.372,1.266,1.088v9.952c0,0.812-0.413,1.087-1.266,1.087h-1.335
		c-0.111,0-0.399-0.014-0.399-0.303c0-0.303,0.289-0.317,0.399-0.317h0.688c0.496,0,0.578-0.124,0.578-0.578v-3.62H29.448z
		 M30.879,8.846v-2.74h-1.39v2.341c0,0.124,0,0.275-0.014,0.399H30.879z M30.879,5.474v-2.12c0-0.454-0.082-0.578-0.578-0.578
		h-0.248c-0.481,0-0.564,0.11-0.564,0.578v2.12H30.879z M33.109,8.254c-0.137,0-0.385-0.041-0.385-0.316s0.261-0.316,0.385-0.316
		h5.506c0.619,0,0.826,0.455,0.826,0.716s-0.385,1.968-2.188,3.689c0.936,0.84,1.418,1.087,2.739,1.679
		c0.137,0.055,0.22,0.138,0.22,0.29c0,0.192-0.151,0.33-0.303,0.33c-0.138,0-0.716-0.192-1.156-0.357
		c-1.184-0.468-1.94-1.033-2.298-1.294c-1.652,1.184-3.441,1.666-3.634,1.666c-0.179,0-0.303-0.152-0.303-0.317
		s0.096-0.247,0.261-0.317c1.087-0.44,1.844-0.729,2.918-1.679c-1.307-1.308-1.748-2.464-1.748-2.835
		c0-0.455,0.426-0.702,0.812-0.702c0.372,0,0.551,0.179,0.661,0.468c0.454,1.211,0.633,1.692,1.073,2.229
		c0.963-1.142,1.308-2.546,1.308-2.697c0-0.151-0.11-0.234-0.261-0.234H33.109z M37.775,6.74c-1.018,0-1.184-0.482-1.184-1.06V3.313
		c0-0.481-0.11-0.564-0.551-0.564h-0.234c-0.455,0-0.496,0.248-0.496,0.509v0.62c0,2.038-1.734,3.318-2.271,3.318
		c-0.151,0-0.302-0.125-0.302-0.304c0-0.11,0.054-0.192,0.234-0.357c0.715-0.675,0.936-1.542,0.936-2.85V3.175
		c0-0.633,0.219-1.06,1.196-1.06h1.694c1.018,0,1.197,0.481,1.197,1.06v2.492c0,0.439,0.234,0.439,0.537,0.439
		c0.207,0,0.358-0.041,0.455-0.592c0.124-0.715,0.179-0.95,0.646-0.95c0.193,0,0.647,0.083,0.647,0.592
		c0,0.289-0.152,0.881-0.372,1.197C39.703,6.63,39.386,6.74,38.917,6.74H37.775z"/>
	<path fill="#FFFFFF" d="M44.269,13.471c0,0.262,0,0.908-0.716,0.908s-0.716-0.646-0.716-0.908V6.809
		c-0.33,0.413-1.046,1.308-1.307,1.308c-0.18,0-0.303-0.151-0.303-0.303c0-0.096,0.014-0.137,0.151-0.331
		c0.426-0.646,1.734-2.629,2.299-4.968c0.083-0.331,0.179-0.757,0.784-0.757c0.51,0,0.922,0.343,0.922,0.771
		c0,0.413-0.812,1.762-1.114,2.258V13.471z M47.985,4.069c0,0.909-2.478,3.759-2.932,3.759c-0.165,0-0.316-0.152-0.316-0.317
		c0-0.151,0.523-0.839,0.62-0.991c0.496-0.798,0.867-1.638,1.102-2.504c0.082-0.275,0.178-0.62,0.742-0.62
		C47.531,3.396,47.985,3.643,47.985,4.069z M46.567,7.841c-0.124,0-0.385-0.028-0.385-0.317c0-0.288,0.276-0.315,0.385-0.315h4.846
		c0.908,0,1.211,0.563,1.211,1.073c0,0.881-0.137,3.799-0.316,4.611c-0.166,0.785-0.537,1.363-1.583,1.363h-1.776
		c-0.125,0-0.385-0.028-0.385-0.317c0-0.302,0.275-0.316,0.385-0.316h1.005c0.537,0,0.826-0.151,0.949-1.128
		c0.138-0.978,0.262-2.974,0.262-4.185c0-0.29-0.152-0.468-0.427-0.468h-1.569c-0.055,3.083-0.95,4.281-1.817,5.162
		c-0.744,0.744-1.638,1.266-1.831,1.266c-0.152,0-0.303-0.124-0.303-0.331c0-0.151,0.082-0.22,0.178-0.288
		c1.652-1.211,2.327-2.96,2.327-5.809H46.567z M47.407,2.734c-0.124,0-0.385-0.027-0.385-0.316c0-0.289,0.275-0.317,0.385-0.317
		h3.537c0.881,0,0.992,0.482,1.102,1.061c0.413,2.023,1.21,3.193,1.858,4.019C53.959,7.263,54,7.318,54,7.415
		c0,0.151-0.137,0.302-0.316,0.302c-0.193,0-1.693-0.963-2.74-3.359c-0.096-0.22-0.537-1.39-0.563-1.431
		c-0.151-0.193-0.344-0.193-0.469-0.193H47.407z"/>
	<path fill="#FFFFFF" d="M67.361,3.726c0.124,0,0.386,0.027,0.386,0.317c0,0.275-0.262,0.302-0.386,0.302h-6.496
		c-0.055,0.111-0.386,0.827-0.936,1.652h4.556c1.184,0,1.527,0.398,1.527,1.362v5.671c0,0.991-0.592,1.252-1.459,1.252h-1.748
		c-0.11,0-0.427,0-0.427-0.316s0.316-0.316,0.427-0.316h0.977c0.579,0,0.717-0.152,0.717-0.703v-1.624h-4.887v2.105
		c0,0.248,0,0.964-0.757,0.964s-0.757-0.688-0.757-0.964V8.13c-1.17,1.142-2.561,2.092-2.809,2.092
		c-0.179,0-0.303-0.151-0.303-0.316c0-0.138,0.083-0.22,0.234-0.33c0.825-0.606,2.987-2.327,4.102-5.231h-3.896
		c-0.123,0-0.386-0.027-0.386-0.302c0-0.303,0.275-0.317,0.386-0.317h4.115c0.124-0.413,0.206-0.744,0.317-1.376
		c0.096-0.523,0.316-0.715,0.798-0.715c0.371,0,0.881,0.233,0.881,0.715c0,0.399-0.316,1.184-0.399,1.376H67.361z M64.499,8.337
		V7.263c0-0.496-0.11-0.633-0.647-0.633h-3.606c-0.522,0-0.633,0.137-0.633,0.633v1.074H64.499z M59.612,8.97v1.721h4.887V8.97
		H59.612z"/>
	<path fill="#FFFFFF" d="M70.524,13.499c0,0.206,0,0.868-0.675,0.868s-0.688-0.633-0.688-0.868V3.257
		c0-0.798,0.399-1.087,1.253-1.087h2.505c0.55,0,0.908,0.275,0.908,0.729c0,0.179-0.082,0.44-0.192,0.675l-1.487,3.125
		c-0.041,0.082-0.082,0.151-0.082,0.206s0.041,0.11,0.097,0.165c0.66,0.716,1.609,2.271,1.609,3.689
		c0,0.991-0.315,1.721-1.376,1.721h-1.211c-0.151,0-0.385-0.041-0.385-0.317c0-0.192,0.137-0.316,0.357-0.316h0.289
		c0.468,0,0.949-0.042,0.949-1.349c0-1.335-0.522-2.161-1.197-3.221c-0.165-0.262-0.179-0.33-0.179-0.427
		c0-0.096,0.041-0.234,0.124-0.468l1.073-3.125c0.015-0.055,0.056-0.165,0.056-0.247c0-0.179-0.166-0.207-0.275-0.207h-0.909
		c-0.481,0-0.563,0.11-0.563,0.578V13.499z M78.37,8.006c0.026,0.427,0.109,1.322,0.454,2.298c0.302-0.261,0.729-0.661,1.28-1.376
		c0.247-0.331,0.371-0.413,0.604-0.413c0.399,0,0.703,0.345,0.703,0.73c0,0.165-0.041,0.344-0.399,0.62
		c-0.372,0.289-0.908,0.646-1.872,1.169c0.33,0.605,0.908,1.569,2.298,2.574c0.192,0.138,0.275,0.22,0.275,0.358
		c0,0.192-0.165,0.316-0.302,0.316c-0.18,0-1.032-0.455-1.721-1.019c-1.583-1.321-2.437-3.097-2.794-5.258h-0.909v4.391
		c0.399-0.124,1.598-0.44,1.68-0.44c0.151,0,0.288,0.179,0.288,0.316c0,0.193-0.067,0.234-0.618,0.469
		c-0.427,0.179-3.579,1.445-4.048,1.445c-0.274,0-0.522-0.275-0.522-0.619c0-0.262,0.097-0.427,0.468-0.523
		c0.248-0.068,1.128-0.248,1.335-0.302V3.396c0-0.854,0.399-1.225,1.363-1.225h3.592c0.854,0,1.363,0.275,1.363,1.225v3.386
		c0,0.854-0.398,1.225-1.363,1.225H78.37z M79.471,4.717V3.381c0-0.426-0.082-0.578-0.593-0.578H76.58
		c-0.509,0-0.592,0.151-0.592,0.578v1.335H79.471z M75.988,5.35v2.037h2.89c0.511,0,0.593-0.165,0.593-0.591V5.35H75.988z"/>
	<path fill="#FFFFFF" d="M87.135,2.817c0,0.537-0.868,2.423-2.271,4.074c-0.729,0.867-1.79,1.818-2.065,1.818
		c-0.165,0-0.303-0.152-0.303-0.317c0-0.082,0.015-0.138,0.221-0.344c0.771-0.826,2.065-2.561,2.629-4.983
		c0.178-0.771,0.316-1.019,0.867-1.019C86.556,2.046,87.135,2.308,87.135,2.817z M83.459,13.98c-0.455,0-0.634-0.385-0.634-0.661
		c0-0.233,0.124-0.51,0.427-0.592c0.193-0.055,1.239-0.068,1.474-0.083c1.403-2.573,2.202-4.735,2.656-6.221
		c0.165-0.551,0.289-0.95,0.881-0.95c0.454,0,0.991,0.289,0.991,0.813c0,0.33-0.579,1.472-0.881,2.05
		c-1.061,2.092-2.01,3.524-2.492,4.24c1.872-0.138,4.776-0.331,6.607-0.633c-0.633-1.156-0.854-1.569-1.72-2.781
		c-0.111-0.138-0.18-0.248-0.18-0.372c0-0.138,0.124-0.303,0.316-0.303c0.455,0,3.951,3.882,3.951,4.859
		c0,0.509-0.44,0.868-0.868,0.868c-0.274,0-0.454-0.124-0.578-0.317c-0.123-0.193-0.509-1.115-0.605-1.321
		C89.888,13.182,83.83,13.98,83.459,13.98z M88.882,2.68c-0.123,0-0.385-0.028-0.385-0.316c0-0.289,0.275-0.317,0.385-0.317h2.464
		c0.896,0,0.991,0.468,1.143,1.183c0.206,0.992,0.592,2.727,2.753,4.887c0.165,0.165,0.206,0.207,0.206,0.344
		c0,0.165-0.137,0.316-0.316,0.316c-0.233,0-2.216-1.418-3.33-3.428c-0.496-0.894-0.592-1.183-0.923-2.298
		c-0.109-0.372-0.44-0.372-0.62-0.372H88.882z"/>
	<path fill="#FFFFFF" d="M106.647,3.547c0-0.592-0.261-0.716-0.716-0.716h-8.864c-0.15,0-0.385-0.041-0.385-0.316
		c0-0.276,0.261-0.317,0.385-0.317h9.43c1.362,0,1.582,0.73,1.582,1.46v9.25c0,1.032-0.633,1.39-1.568,1.39h-1.845
		c-0.11,0-0.427-0.014-0.427-0.316c0-0.317,0.316-0.317,0.427-0.317h1.266c0.565,0,0.716-0.248,0.716-0.716V3.547z M105.12,4.91
		c0.138,0,0.386,0.041,0.386,0.302c0,0.289-0.262,0.316-0.386,0.316h-7.749c-0.124,0-0.387-0.028-0.387-0.303
		c0-0.289,0.263-0.315,0.387-0.315H105.12z M104.336,11.228c0,1.086-0.606,1.293-1.46,1.293h-3.605
		c-0.978,0-1.446-0.316-1.446-1.293V8.75c0-1.046,0.551-1.308,1.446-1.308h3.605c1.02,0,1.46,0.358,1.46,1.308V11.228z
		 M102.835,8.709c0-0.496-0.11-0.633-0.633-0.633h-2.229c-0.537,0-0.634,0.165-0.634,0.633v2.56c0,0.496,0.11,0.633,0.634,0.633
		h2.229c0.51,0,0.633-0.124,0.633-0.633V8.709z"/>
</g>
</svg>
