<?xml version="1.0" encoding="utf-8"?>
<!-- Generator: Adobe Illustrator 15.1.0, SVG Export Plug-In . SVG Version: 6.00 Build 0)  -->
<!DOCTYPE svg PUBLIC "-//W3C//DTD SVG 1.1//EN" "http://www.w3.org/Graphics/SVG/1.1/DTD/svg11.dtd">
<svg version="1.1" id="圖層_1" xmlns="http://www.w3.org/2000/svg" xmlns:xlink="http://www.w3.org/1999/xlink" x="0px" y="0px"
	 width="524.773px" height="396.333px" viewBox="0 0 524.773 396.333" enable-background="new 0 0 524.773 396.333"
	 xml:space="preserve">
<g>
	<path fill="#E72410" d="M510.954,57.453c25.396,34.79,9.121,81.143,3.361,119.765c-6.797,45.571,13.746,89.102,8.658,134.483
		c-4.695,41.937-23.89,75.422-65.313,82.666c-33.743,5.896-68.179-2.851-101.45-8.117c-58.242-9.205-117.657-6.032-176.174-2.076
		c-44.922,3.041-107.706,24.988-148.791-0.986c-22.78-14.4-28.846-43.191-30.926-69.23c-1.839-22.951,4.662-45.683,7.276-68.31
		c2.695-23.201,3.177-46.582,0.195-69.777C1.532,127.193-6.066,64.589,30.711,29.831c42.4-40.086,118.111-32.842,174.008-18.184
		c28.363,7.44,57.449,10.317,86.611,10.148c48.936-0.279,110.257-17.038,160.589-4.029
		C474.519,23.602,494.892,35.432,510.954,57.453z"/>
</g>
</svg>
