<?xml version="1.0" encoding="utf-8"?>
<!-- Generator: Adobe Illustrator 15.1.0, SVG Export Plug-In . SVG Version: 6.00 Build 0)  -->
<!DOCTYPE svg PUBLIC "-//W3C//DTD SVG 1.1//EN" "http://www.w3.org/Graphics/SVG/1.1/DTD/svg11.dtd">
<svg version="1.1" id="圖層_1" xmlns="http://www.w3.org/2000/svg" xmlns:xlink="http://www.w3.org/1999/xlink" x="0px" y="0px"
	 width="426.584px" height="416.297px" viewBox="0 0 426.584 416.297" enable-background="new 0 0 426.584 416.297"
	 xml:space="preserve">
<g opacity="0.2">
	<path fill="#B39E81" d="M425.459,296.22c-0.084-0.634-0.261-1.302-0.562-1.937c-0.391-1.021-0.951-2.059-1.637-2.938
		c-2.163-2.946-5.255-5.042-7.647-6.526c-1.163-0.708-2.312-1.375-3.454-1.979c1.897-1.924,3.699-3.976,4.948-5.957
		c0.326-0.475,0.813-1.146,1.39-1.9c0.83-1.152,1.855-2.486,2.792-4.01c0.81-1.348,1.735-3.021,2.285-5.042
		c0.31-1.165,0.516-2.404,0.5-3.761c-0.049-4.14-2.458-7.905-6.432-10.334l-0.255-0.159c-4.286-2.628-9.737-4.958-15.001-7.106
		l-2.026-0.793c-0.56-0.229-1.089-0.447-1.618-0.667c7.061-9.466,21.846-29.407,24.527-33.554c0.119-0.178,0.236-0.364,0.325-0.557
		c0.788-1.271,1.818-3.133,2.44-5.381c0.395-1.408,0.62-2.964,0.525-4.636c-0.191-4.505-2.85-8.527-7.294-11.224
		c-1.217-0.748-2.604-1.441-4.146-2.059c-0.799-0.307-1.717-0.611-2.707-0.875c-6.234-1.724-16.223-2.913-26.722-4.145l-1.862-0.229
		c-8.635-0.996-21.351-2.464-26.652-3.957c-0.585-0.159-1.101-0.317-1.462-0.461c-0.811-0.321-1.707-0.795-2.653-1.386
		c-3.788-2.306-7.782-6.166-10.415-8.963c-0.554-0.584-1.109-1.18-1.653-1.805c1.231-1.82,2.378-3.327,3.214-4.373
		c0.416-0.504,0.784-0.945,1.064-1.271c1.029-0.366,2.773-0.894,5.009-1.534c2.82-0.848,6.332-1.847,10.159-2.936
		c11.003-3.147,24.699-7.049,32.755-9.974c6.098-2.233,10.238-5.091,12.7-9.04c0.734-1.225,1.291-2.524,1.674-3.875
		c0.695-2.526,0.77-5.291,0.244-8.175c-0.673-3.755-2.184-7.512-3.66-10.991c-2.357-5.527-5.249-9.426-8.924-11.687
		c-1.285-0.77-2.53-1.319-3.751-1.663c-2.38-0.655-4.587-0.595-6.266-0.416c0.235-0.379,0.471-0.764,0.7-1.138
		c2.487-4.043,4.696-8.148,6.521-12.167c0.643-1.375,1.089-2.721,1.468-4c1.773-6.365,0.338-11.487-1.379-14.752
		c-2.257-4.35-6.103-8.089-11.611-11.477c-4.482-2.767-9.253-4.817-13.546-6.674c-1.327-0.579-2.6-1.027-3.839-1.383
		c-6.913-1.937-12.273-0.235-15.604,1.769c-5.289,3.146-9.014,8.389-12.241,13.437c-0.323,0.542-0.745,1.205-1.218,1.974
		c-6.331,10.324-26.827,45.152-38.777,67.316c-9.28-20.101-26.218-35.615-33.997-40.487c-1.191-0.71-2.274-1.266-3.37-1.688
		c-0.33-0.109-0.609-0.212-0.926-0.28c-5.772-1.591-13.016,0.251-23.498,5.307c-7.771,3.837-15.823,9.023-23.216,14.93
		c-2.129-25.972-8.203-73.527-9.78-83.421c-1.269-7.821-3.213-17.074-11.244-22.114c-1.532-0.941-3.208-1.662-5.04-2.174
		c-2.281-0.632-4.81-0.926-7.547-0.924c-5.055,0.015-11.409,0.013-17.426,1.223c-7.875,1.55-13.536,4.93-16.896,10.369
		c-0.967,1.581-1.705,3.288-2.228,5.139c-0.613,2.26-0.89,4.694-0.832,7.29c0.097,4.906,0.545,9.943,1.371,15.071
		c-0.973-0.531-2.303-1.196-3.942-1.653c-1.468-0.387-3.181-0.645-5.087-0.492c-4.648,0.375-9.171,2.893-13.822,7.354
		c-2.87,2.777-5.954,5.785-8.093,9.239c-0.975,1.606-1.702,3.236-2.172,4.896c-0.7,2.466-0.76,4.99-0.195,7.457
		c0.953,4.214,3.543,8.094,7.887,12.167c5.666,5.322,15.073,13.045,23.437,19.874l3.327,2.709c2.343,1.906,4.509,3.662,6.378,5.221
		c-0.7,1.47-1.412,2.938-2.106,4.391l-0.418,0.908c-0.154,0.303-0.311,0.597-0.412,0.741c-1.295,1.717-1.083,1.645-3.673,1.453
		c-0.3-0.058-0.679-0.144-1.087-0.257c-2.11-0.597-4.92-1.915-8.302-3.992l-0.278-0.173c-1.307-0.794-2.557-1.604-3.747-2.386
		c-1.002-0.64-1.948-1.25-2.837-1.808c-0.14-0.083-0.294-0.169-0.424-0.241c-4.426-2.72-9.034-5.315-13.383-7.759
		c-0.628-0.335-1.313-0.755-2.071-1.225c-2.11-1.26-4.835-2.955-8.063-3.837c-1.654-0.467-3.417-0.733-5.273-0.601
		c-3.851,0.241-7.25,2.343-9.21,5.694c-0.904,1.513-1.507,3.133-1.934,4.653c-0.413,1.459-0.656,2.841-0.864,3.99
		c-0.093,0.494-0.176,0.98-0.257,1.429c-0.622,2.991-1.148,6.009-1.672,8.967c-0.548,3.084-1.063,6.135-1.704,9.196
		c-0.148,0.813-0.272,1.618-0.399,2.374c-0.134,0.957-0.305,2.059-0.511,2.777c-0.029,0.084-0.063,0.177-0.082,0.264
		c-0.694,0.008-2.067-0.086-4.21-0.645c-0.145-0.043-0.276-0.066-0.429-0.111c-0.762-0.212-1.913-0.632-3.159-1.059
		c-1.651-0.607-3.528-1.287-5.538-1.846c-0.399-0.12-0.808-0.223-1.261-0.317c-1.841-0.412-4.73-0.963-7.811-0.403
		c-3.459,0.609-6.427,2.621-8.179,5.595l-0.163,0.237c-1.05,1.849-1.793,3.64-2.281,5.433c-1.663,6.048-0.764,11.944,0.008,17.103
		l0.179,1.118l0.107,0.638c0.223,1.239,0.694,4.294,0.851,6.421c-0.407-0.127-0.885-0.284-1.421-0.475
		c-0.71-0.245-1.407-0.511-2.135-0.772c-1.34-0.517-2.637-1.025-3.898-1.365c-0.018-0.002-0.078-0.037-0.221-0.053
		c-0.017-0.023-0.086-0.043-0.173-0.056c-4.817-1.359-9.923,0.768-12.364,5.128c-0.862,1.459-1.495,3.053-1.956,4.728
		c-1.248,4.488-1.248,9.21-1.281,12.066l-0.007,1.079c-0.026,8.476,0.782,16.773,2.426,24.687c0.961,4.533,2.411,8.695,3.845,12.666
		c-0.704,0.66-1.313,1.429-1.815,2.255c-0.563,0.998-1.028,2.054-1.344,3.207c-0.146,0.534-0.25,1.065-0.355,1.628
		c-4.735,2.369-9.61,5.384-13.436,10.564c-0.251,0.334-0.485,0.689-0.677,0.979c-0.628,0.997-1.097,2.063-1.415,3.171
		c-0.632,2.269-0.556,4.71,0.241,6.985c0.891,2.591,2.438,4.646,3.889,6.437c4.624,5.627,10.66,11.574,14.987,15.442
		c-0.589,0.9-1.219,1.94-1.877,3.021c-3.615,5.927-8.613,14.329-10.522,19.812c-0.099,0.289-0.204,0.625-0.294,0.962
		c-0.741,2.635,0.3,7.061,1.12,9.507c-0.655,0.688-9.952,14.357-9.774,33.436c-1.042,2.397-3.989,4.631-7.404,14.383
		c-2.979,8.537-3.506,21.778,0.961,33.009c0,0,2.516,7.313,10.705,14.345c5.34,4.865,13.999,7.825,19.61,8.96
		c3.652,0.771,5.503,1.106,9.28,1.317c3.522,1.654,23.096,7.731,38.748,6.505c14.674-0.821,22.688-8.179,26.534-13.068
		c1.628-2.059,4.906-8.623,5.673-10.979c11.79-4.752,21.319-5.393,33.789-3.452l0,0l0.088,0.004l0.188,0.015
		c0.011-0.005,0.181,0.028,0.521,0.061c0.117,0.147,0.251,0.287,0.369,0.439c-0.068,0.076,4.072,4.397,4.097,4.358
		c2.236,2.085,4.881,4.448,7.411,6.225c0.696,0.474,1.393,0.923,2.067,1.347c4.103,2.517,9.028,3.645,13.5,4.897
		c3.053,0.847,6.176,1.431,9.326,1.863l0.125,0.022h0.162h-0.021l0.163,0.002h0.033c9.546,1.644,19.146-0.822,23.813-2.19
		c14.454-4.944,24.286-9.752,35.987-17.679c1.861-1.026,3.1-1.859,4.784-3.213c-0.481,1.15-0.733,2.48-1.12,3.935
		c-0.09,0.288-0.165,0.622-0.259,0.979c-0.42,1.641-0.688,3.278-0.774,4.906c0,0-0.583,3.521,1.589,6.584
		c0.449,0.565,0.988,1.102,1.688,1.512l0.06,0.034l0.02,0.005c0.601,0.361,1.264,0.614,1.933,0.818
		c1.974,0.542,4.506,1.007,7.121,0.527c0.824-0.183,3.953-0.631,4.748-0.807c0.053,0.094,18.273-1.826,18.273-1.826
		c4.13-0.521,8.26-0.67,12.514-0.059c2.61,0.352,5.089,0.907,7.607,1.617c3.044,0.845,6.114,1.88,9.492,3.035
		c3.689,1.254,7.782,2.654,12.388,3.928c1.168,0.325,2.415,0.658,3.646,0.968c8.397,2.177,16.212-1.247,20.681-8.997
		c2.742-4.479,4.317-9.578,5.711-13.99c0.329-1.075,0.648-2.111,0.977-3.068c0.394-1.178,0.737-2.352,1.063-3.521
		c0.963-3.449,1.646-6.854,2.32-10.098l0.457-2.291l0.362-1.729c0.869-4.111,1.723-8.086,2.081-12.702
		c0.067-0.804,0.186-1.57,0.373-2.25c0.249-0.907,0.621-1.702,1.063-2.449c0.554-0.923,1.284-1.744,2.229-2.565
		c1.937-1.645,10.648-7.787,19.821-14.201l7.089-5.012c12.907-9.131,24.694-17.539,28.575-21.417
		c0.806-0.821,1.473-1.657,1.997-2.507c0.574-0.918,1.046-1.923,1.315-2.967C425.723,299.571,425.776,297.868,425.459,296.22z
		 M342.37,68.399c0.469-0.741,0.858-1.379,1.149-1.832l-1.235-0.793l1.245,0.768c3.13-5.015,6.147-8.725,9.085-10.413
		c2.435-1.377,4.758-1.797,8.312-0.85c0.849,0.22,1.742,0.558,2.731,0.986c4.026,1.717,8.541,3.691,12.388,6.052
		c3.741,2.29,6.761,4.968,8.227,7.825c1.163,2.331,1.561,4.723,0.677,8.014c-0.22,0.807-0.545,1.686-0.976,2.664
		c-1.729,3.761-3.725,7.516-5.945,11.142c-2.982,4.854-6.378,9.527-9.999,13.865l-5.955,7.177l9.095-2.415l0.016,0.008
		c0,0,0,0,0.006-0.008l0.05-0.027l0.015-0.002c1.168-0.307,10.164-2.67,13.54-3.179c1.621-0.259,2.951-0.387,4.179-0.051
		c0.44,0.125,0.901,0.305,1.408,0.628c1.412,0.828,3.315,2.847,5.232,7.391c1.492,3.5,2.635,6.542,3.058,8.972
		c0.295,1.665,0.273,2.97-0.028,4.063c-0.134,0.509-0.35,1.002-0.659,1.511c-0.969,1.624-3.271,3.469-7.95,5.169
		c-6.813,2.475-18.509,5.88-28.753,8.815c-5.137,1.445-9.934,2.818-13.622,3.911c-3.753,1.128-6.123,1.799-7.428,2.434l-0.23,0.134
		l-0.249,0.12l-0.314,0.358c-0.496,0.515-2.635,2.878-5.264,6.602c-1.274-4.307-2.993-8.648-5.445-12.522
		c-1.408-2.232-3.022-3.986-4.944-5.182c-0.897-0.554-1.824-0.953-2.807-1.221c-3.012-0.833-6.2-0.329-9.527,0.785
		c-3.973,1.34-8.084,2.767-12.086,4.566C309.21,124.394,334.832,80.67,342.37,68.399z M121.979,71.285
		c-3.32-3.108-4.778-5.593-5.183-7.419c-0.222-1.042-0.173-1.937,0.098-2.936c0.2-0.782,0.583-1.614,1.13-2.532
		c1.301-2.128,3.675-4.607,6.59-7.395c3.872-3.708,6.497-4.669,8.142-4.801c0.687-0.06,1.272,0.012,1.869,0.183
		c0.849,0.227,1.717,0.673,2.64,1.246c0.155,0.105,0.288,0.171,0.393,0.249c3.234,2.021,11.267,8.337,11.448,8.478l7.259,5.733
		l-2.631-8.978c-2.8-9.463-4.591-19.512-4.771-29.294c-0.06-1.803,0.146-3.319,0.514-4.599c0.281-1.066,0.679-1.97,1.169-2.763
		c1.958-3.234,5.801-5.134,10.799-6.153c4.974-0.978,10.808-1.004,15.852-1.023c1.9-0.019,3.49,0.202,4.798,0.552
		c1.037,0.3,1.927,0.689,2.713,1.173c3.709,2.172,5.678,7.504,6.941,15.668c1.371,8.665,6.536,48.971,9.016,75.342
		c-0.091-0.218-0.191-0.438-0.291-0.652c-4.496-9.254-9.923-19.018-16.605-23.275c-0.999-0.611-2.046-1.109-3.158-1.427
		c-1.405-0.395-2.928-0.483-4.426-0.103c-8.362,2.054-13.06,10.223-16.42,15.493c-0.045,0.049-0.115,0.175-0.218,0.332
		c-1.42,2.324-2.724,4.71-3.981,7.142C146.724,92.112,129.876,78.703,121.979,71.285z M23.269,249.574l-0.018-0.012
		c-1.132-1.343-1.986-2.672-2.267-3.539c-0.204-0.675-0.218-1.026-0.113-1.457c0.083-0.231,0.184-0.511,0.366-0.817
		c0.07-0.093,0.146-0.232,0.27-0.392c2.465-3.346,5.716-5.496,9.497-7.438c0.086,0.594,0.186,1.193,0.317,1.815
		c1.351,7.37,3.971,16.545,5.534,25.871C32.969,260.067,27.263,254.479,23.269,249.574z M41.181,254.424
		c0,0-3.123-12.826-3.998-17.736c-0.319-1.659-0.523-3.168-0.604-4.479l-0.017,0.002l0.017-0.002
		c-0.086-1.217-0.067-2.256,0.027-3.078c0.056-0.443,0.113-0.816,0.212-1.114c0.063-0.364,0.202-0.595,0.271-0.679
		c0.388-0.56,0.425-0.616,1.292-0.881c0.804-0.172,1.718-0.285,2.712-0.353c2.743-0.207,5.896,0.144,9.13,1.049
		c3.114,0.862,6.343,2.237,9.403,4.117l0.082,0.053c1.867,1.14,3.678,2.528,5.412,4.05c0.739,0.648,1.456,1.321,2.119,2.025
		c3.133,3.26,5.813,7.119,7.613,11.604c3.012,7.435,3.029,15.348,1.046,22.692c-0.999,3.509-2.45,6.865-4.271,9.986
		c-10.494-0.624-20.034,0.743-28.311,4.129C45.185,275.415,43.343,264.338,41.181,254.424z M36.716,287.987
		c-0.124,0.475-0.259,0.938-0.407,1.412c-3.199,1.971-6.118,4.316-8.749,7.001c1.47-4.049,6.009-11.938,9.531-17.647
		c0.347-0.541,0.676-1.088,0.986-1.584C38.07,280.952,37.659,284.603,36.716,287.987z M23.228,394.672L23.228,394.672
		c-2.252-1.396-4.368-3.068-6.258-5.139C5.73,377.42,5.942,364.09,8.834,353.6c0.198-0.75,0.412-1.482,0.655-2.16
		c0.313-0.97,0.655-1.912,0.978-2.783c0.068,4.535,0.479,9.213,1.278,13.842c0.059,0.324,0.113,0.651,0.152,1.002
		c2.375,12.914,7.786,25.5,17.587,34.158C27.322,396.868,25.218,395.897,23.228,394.672z M112.855,369.934
		c-1.002,0.771-1.879,1.33-2.497,1.717c-0.312,0.178-0.561,0.319-0.721,0.412c-0.091,0.039-0.141,0.076-0.21,0.115
		c-0.017,0.01-0.029,0.01-0.082,0.033c-0.007,0-0.018,0.021-0.068,0.041c-0.033,0.014-0.035,0.027-0.102,0.076l0,0
		c-0.03,0.014-0.032,0.021-0.049,0.025c0,0-0.002,0.006-0.017,0.011c-5.958,2.142-7.848,2.921-10.854,2.904
		c0.15-1.142-0.389-2.332-1.485-2.956c-0.175-0.128-0.42-0.229-0.692-0.292c-1.251-0.36-2.688,0.166-3.372,1.392
		c-0.461,0.799-0.955,1.817-1.277,2.971c-0.353,1.291-0.509,2.768-0.208,4.349c0.197,0.849,0.691,1.552,1.383,1.974
		c0.245,0.133,0.494,0.262,0.762,0.328c0.438,0.139,0.922,0.141,1.396,0.049c1.024-0.218,1.836-0.951,2.178-1.869
		c3.742,0.197,6.575-0.504,10.564-1.907c-0.073,0.778-0.169,1.639-0.316,2.565c-0.259,1.76-0.622,3.683-1.15,5.59
		c-0.719,2.552-1.711,5.129-3.041,7.273c-0.677,1.126-1.44,2.118-2.291,2.975c-10.252,10.61-28.284,11.66-44.247,7.215
		c-6.168-1.707-11.984-4.226-16.873-7.243c-1.658-1.011-3.215-2.103-4.636-3.233c-15.222-11.777-20.147-36.268-18.116-55.363
		c0.583-5.602,1.434-10.867,2.837-15.955c1.206-4.361,2.846-8.606,5.072-12.811l0.169-0.322c0.41-0.759,0.853-1.521,1.289-2.246
		c11.586-18.865,34.813-25.02,65.566-16.543c3.196,0.889,6.447,1.931,9.778,3.111c3.354,1.217,6.194,2.6,8.592,4.064
		c11.331,7.082,12.907,15.983,12.11,24.068l0,0c-0.224,1.947-0.628,3.816-1.091,5.529c-0.49,1.768-1.073,3.361-1.596,4.682
		c-0.537,1.284-1.021,2.313-1.381,3.008c-0.204,0.353-0.332,0.611-0.435,0.804c-0.084,0.065-0.177,0.116-0.255,0.19
		c-4.404,3.549-7.531,4.957-11.907,4.885c-0.173-0.793-0.65-1.502-1.403-1.95c-0.232-0.13-0.466-0.229-0.712-0.271
		c-1.267-0.371-2.686,0.145-3.368,1.368c-0.479,0.81-0.963,1.798-1.28,2.989c-0.367,1.271-0.515,2.757-0.208,4.357
		c0.171,0.854,0.72,1.523,1.356,1.932c0.271,0.161,0.522,0.271,0.791,0.336c0.437,0.119,0.887,0.148,1.342,0.076
		c1.175-0.253,2.025-1.098,2.304-2.137c0.08-0.244,0.125-0.486,0.117-0.748c5.464,0.312,10.207-1.383,14.724-4.652
		c3.111,6.316,3.229,11.234,2.112,15.277c-0.511,1.789-1.256,3.414-2.153,4.903C117.386,366.024,114.891,368.358,112.855,369.934z
		 M236.876,372.795c-0.369,1.423-0.883,2.605-1.355,3.354c-0.072,0.15-0.173,0.286-0.272,0.436c-0.112,0.151-0.216,0.313-0.3,0.492
		c-11.576,7.668-24.428,13.346-36.938,14.903c-4.982,0.616-10.273,0.226-15.18-1.124c-1.182-0.335-2.334-0.718-3.498-1.161
		c-3.16-1.237-6.205-2.771-9.126-4.563c-11.252-6.891-20.661-17.729-28.119-29.801c-0.026-0.166-0.037-0.332-0.08-0.513
		c-0.797-3.416-0.617-6.891,0.288-10.192c0.622-2.22,1.569-4.373,2.788-6.34c2.493-4.084,6.103-7.343,9.824-9.021
		c2.781-1.336,6.874-1.371,11.039-0.214c2.458,0.684,4.918,1.75,7.168,3.157c3.714,2.261,6.802,5.386,8.313,8.543
		c1.366,2.816,3.016,7.992,4.231,12.313c0.597,2.149,1.128,4.136,1.489,5.575c0.173,0.717,0.321,1.293,0.422,1.682
		c0.037,0.208,0.086,0.367,0.095,0.471c0.018,0.065,0.041,0.091,0.045,0.131l-0.002,0.039l0.006,0.022l0.018,0.021l0.004,0.025v0.02
		c0.271,0.994,1.054,1.805,2.085,2.085c0.144,0.034,0.173,0.043,0.181,0.05c1.357,0.236,2.541-0.328,3.178-1.341
		c0-0.024,0.391-0.652,1.654-2.283c1.289-1.675,3.419-4.263,6.674-7.865c3.022-3.317,6.688-5.862,10.915-6.735
		c2.508-0.522,5.253-0.492,8.378,0.365c2.242,0.637,4.657,1.661,7.31,3.305l0.434,0.262c5.822,3.718,8.278,9.064,8.982,14.465
		C237.978,366.792,237.614,370.22,236.876,372.795z M131.69,374.434c-0.655-0.002-1.338-0.014-1.997-0.014
		c0.453-0.599,0.867-1.17,1.248-1.756C131.356,373.304,131.57,373.891,131.69,374.434z M127.396,338.284
		c-0.774-1.139-1.544-2.274-2.314-3.373c0.132-0.36,0.271-0.738,0.429-1.11C126.107,335.292,126.73,336.771,127.396,338.284z
		 M124.303,366.147c1.169-1.85,2.12-3.975,2.772-6.295c0.282-0.994,0.49-2.034,0.64-3.09c0.066-0.078,0.137-0.124,0.215-0.178
		c1.124,1.527,2.1,3.766,1.078,7.545c-0.238,0.865-0.58,1.819-1.091,2.859l-0.227,0.463c-0.218,0.428-0.475,0.832-0.755,1.319
		c-1.077,1.754-2.638,3.767-4.722,5.97c-2.479,0.228-4.952,0.616-7.386,1.108C117.452,374.097,121.345,370.92,124.303,366.147z
		 M117.396,383.019l0.002-0.024l-0.799,0.236c-1.265,0.37-2.546,0.764-3.814,1.211c0.171-0.908,0.321-1.773,0.447-2.604
		c3.454-0.844,6.987-1.478,10.495-1.754c0.078,0.002,0.263,0,0.482-0.027c3.292-0.217,6.606-0.266,9.95-0.047
		c0.813,0.056,1.614,0.121,2.411,0.214C130.119,380.331,123.653,381.276,117.396,383.019z M137.223,374.809
		c-0.156-2.042-0.979-4.836-3.55-7.341c0.267-0.624,0.455-1.246,0.629-1.854c0.179-0.665,0.314-1.314,0.413-1.941
		c2.153,3.942,4.41,7.867,6.77,11.724C140.073,375.167,138.644,374.983,137.223,374.809z M416.039,299.315
		c-0.132,0.184-0.383,0.509-0.721,0.838c-2.596,2.705-15.12,11.79-27.285,20.334c-12.272,8.688-24.337,17.033-27.564,19.719
		c-1.644,1.416-3.025,3.002-4.141,4.771c-0.907,1.499-1.608,3.112-2.085,4.83c-0.353,1.272-0.583,2.604-0.682,3.989l0,0
		c-0.358,4.528-1.285,8.482-2.281,13.33c-0.848,4.088-1.589,8.016-2.646,11.828c-0.304,0.99-0.598,2.004-0.927,3.027
		c-1.613,4.902-3.229,11.033-5.788,15.128c-2.812,4.138-4.971,5.951-10.532,4.813c-1.172-0.286-2.355-0.602-3.52-0.914
		c-8.01-2.229-14.643-4.965-21.71-6.939c-2.854-0.775-5.773-1.438-8.865-1.878c-13.554-1.844-24.848,2.121-36.69,4.492
		c-2.079,0.433-3.446,0.332-4.076,0.146c-0.214-0.052-0.358-0.127-0.43-0.168c-0.271-0.234-0.395-0.229-0.551-1.527
		c-0.106-1.328,0.271-3.469,0.922-5.826c0.804-2.852,1.938-6.077,2.75-8.996c0.135-0.535,0.306-1.077,0.407-1.609
		c3.477-2.244,6.835-4.414,10.283-5.893c9.13-3.985,19.907-4.229,30.666-6.443c8.034-1.691,16.32-3.142,24.458-5.783
		c7.271-2.369,13.579-7.401,17.577-13.912c1.472-2.407,2.635-4.983,3.385-7.727c0.691-2.49,1.046-5.099,1.018-7.763
		c-0.089-7.136-1.325-14.517-3.699-21.367c12.675-2.774,25.803-9.628,35.252-23.958l0.191-0.329c0.444-0.682,0.784-1.407,1.001-2.17
		c0.142-0.563,0.229-1.149,0.22-1.733c0-1.57-0.794-3.091-2.237-3.951c-0.422-0.239-0.867-0.443-1.318-0.571
		c-1.378-0.364-2.758-0.231-4.092,0.112c-4.513,1.195-7.15,4.627-9.32,6.318c-12.432,10.359-29.354,15.424-45.484,14.293
		c-7.633-0.515-15.174-3.634-23.773-4.865c-7.362-1.004-16.909-1.994-24.909,0.857c0.043-0.078,0.074-0.154,0.104-0.243l0.455-1.1
		l-0.121-0.093c0.433-2.204,0.033-4.66-0.908-7.139v-0.004c-1.147-2.919-3.277-5.966-6.633-8.041
		c-0.966-0.597-2.044-1.097-3.172-1.463c-0.751-3.123-2.313-9.555-5.579-16.702c-4.156-9.13-11.154-19.712-22.991-26.985
		c-2.306-1.424-4.811-2.709-7.5-3.85c-1.867-0.771-3.703-1.426-5.527-1.918c-4.171-1.158-8.248-1.617-12.125-1.566
		c0.475-0.385,0.835-0.924,0.988-1.521c0.088-0.301,0.111-0.604,0.115-0.902c-0.371-8.675-0.819-17.588-2.536-26.375
		c-2.306-11.846-5.511-25.28-12.591-35.975c-5.678-8.504-12.974-15.189-21.251-20.268c-6.896-4.236-14.462-7.374-22.355-9.643
		c-0.134-0.039-0.29-0.095-0.465-0.148c-4.498-1.237-9.479-2.149-14.447-1.883c-1.585,0.175-4.797,0.375-6.817,3.244
		c-0.301,0.461-0.494,0.906-0.626,1.392c-0.193,0.632-0.239,1.301-0.173,2.024c0.24,2.287,0.775,5.061,1.349,7.545
		c-0.721-0.438-1.468-0.879-2.185-1.313c-0.613-0.371-1.229-0.755-1.836-1.141c-1.887-1.204-3.678-2.409-5.39-3.728
		c-0.316-0.239-0.606-0.459-0.947-0.648c-0.536-0.335-1.143-0.63-1.778-0.807c-0.767-0.208-1.62-0.294-2.479-0.084
		c-1.585,0.342-2.645,1.441-3.233,2.45c-0.459,0.774-0.774,1.591-0.997,2.425c-0.388,1.324-0.527,2.693-0.639,3.973
		c-0.179,2.083-0.13,4.064-0.147,4.953c-0.074,7.615,1.377,15.557,4.986,22.534c2.33,4.471,5.743,8.424,9.96,11.29l0.811-1.213
		l-0.735,1.269l0.045,0.033c0.254,0.144,0.512,0.255,0.733,0.311c1.21,0.333,2.528-0.117,3.292-1.18
		c0.183-0.299,0.307-0.604,0.41-0.885c0.317-1.215-0.104-2.537-1.221-3.27c-3.351-2.271-6.114-5.472-7.992-9.097
		c-3.07-5.894-4.399-12.902-4.34-19.728c0.043-1.04,0.002-2.79,0.146-4.543c0.068-1.087,0.228-2.178,0.445-2.944l0.039-0.115
		c1.948,1.507,3.876,2.79,5.856,4.037c0.626,0.414,1.276,0.813,1.9,1.189c2.787,1.723,5.604,3.358,8.428,4.972
		c0.233,0.128,0.475,0.237,0.694,0.276c0.922,0.257,1.87,0.049,2.619-0.502c0.543-0.41,0.89-0.98,1.054-1.563
		c0.136-0.529,0.148-1.063-0.004-1.612l-0.033-0.165l-0.017-0.004c-0.161-0.558-0.68-2.439-1.228-4.741
		c-0.642-2.629-1.326-5.879-1.604-8.229c0.492-0.249,1.497-0.467,1.875-0.445c4.045-0.216,8.41,0.527,12.482,1.649
		c0.187,0.052,0.367,0.103,0.499,0.146c7.515,2.153,14.579,5.087,20.929,9.004c7.638,4.689,14.258,10.752,19.4,18.47
		c6.283,9.429,9.471,22.207,11.727,33.83c1.613,8.222,2.08,16.836,2.434,25.453c0.021,1.013,0.552,1.884,1.317,2.384
		c-5.702,0.522-10.997,2.101-15.68,4.11c0.037-0.065,0.055-0.164,0.07-0.244c0.063-0.184,0.078-0.344,0.086-0.459
		c0.321-3.816-0.375-12.059-2.882-21.208l0,0c-2.561-9.062-6.831-18.959-14.518-24.988c-1.532-1.196-3.039-2.231-4.518-3.127
		c-3.231-2.012-6.365-3.341-9.291-4.154c-8.319-2.3-15.121-0.573-19.72,0.249c-1.179,0.177-2.083,1.05-2.384,2.135
		c-0.104,0.405-0.127,0.86-0.039,1.313c0.195,1.161,1.048,2.048,2.109,2.337c0.425,0.117,0.856,0.144,1.292,0.08
		c5.044-0.84,10.354-2.246,17.063-0.383c2.409,0.675,5.026,1.754,7.855,3.499c1.293,0.767,2.591,1.68,3.944,2.728
		c6.007,4.62,10.129,13.437,12.447,21.917c2.356,8.353,2.954,16.599,2.713,19.021c0.012,0.05,0.008,0.102,0.004,0.159
		c-1.579-4.733-4.759-9.215-7.131-12.93c-4.122-6.326-9.82-13.134-17.26-16.337c-1.228-0.513-2.487-0.956-3.776-1.306
		c-5.052-1.427-10.466-1.628-15.432-1.423c-5.079,0.239-10.226,1.187-14.803,0.505c-2.234-0.336-4.768-0.723-7.176-1.394
		c-5.509-1.586-10.24-4.293-11.446-11.088l-0.85-4.778l-1.95,4.448c-0.021,0.052-0.235,0.559-0.457,1.395
		c-0.614,2.235-1.449,7.021,1.057,12.069l-0.191,0.193l0.838,1.033c0,0,0.015,0.04,0.097,0.113c0.228,0.416,0.572,0.951,1.016,1.503
		c1.336,1.847,3.154,5.832,2.707,6.59c-0.037,0.124-0.037,0.109-0.095,0.152c-0.018,0.022-0.676,0.523-1.375,1.137
		c-0.722,0.73-1.413,1.162-1.883,2.382c-0.082,0.259-0.147,0.71,0.104,1.235c0.251,0.5,0.768,0.813,1.083,0.881
		c1.128,0.208,1.725-0.08,3.107-0.52c1.698-0.357,4.531-1.005,5.023-1.158c10.014-3.143,18.835-5.462,28.97-3.163
		c1.63,0.366,3.225,0.762,4.81,1.188c7.027,1.952,13.639,4.71,19.343,9.196c4.784,3.766,9.538,8.374,13.278,13.11
		c0.124,0.053-0.025,0.33,0.985,0.76c0.806,0.226,1.555-0.354,1.651-0.573l0.447-0.521l-0.148-0.707
		c-0.008-0.08-0.037-0.178-0.068-0.258c0.239,0.346,0.545,0.668,0.941,0.912c0.181,0.098,0.383,0.191,0.547,0.241
		c-4.784,2.431-8.901,5.13-12.144,7.362c-2.69,1.871-5.063,3.433-6.099,3.962c-1.11-0.16-3.146-0.354-5.536-0.089
		c-3.501,0.369-8.142,1.895-10.936,6.457c-0.727,1.144-1.258,2.455-1.68,3.92c-0.055,0.185-0.118,0.395-0.157,0.631
		c-0.29,1.287,0.284,2.551,1.33,3.207c0.239,0.132,0.49,0.242,0.745,0.328l0.013-0.014l0.058,0.022l0.1,0.009
		c1.515,0.374,3.025-0.523,3.48-1.991l0.023-0.032l0.058-0.205c0.027-0.127,0.066-0.252,0.074-0.356
		c0.271-0.983,0.644-1.748,1.038-2.396c1.515-2.461,3.94-3.334,6.522-3.647c1.233-0.142,2.42-0.118,3.252-0.017
		c0.446,0.039,0.762,0.095,0.978,0.107c0.105,0.033,0.179,0.049,0.237,0.053c0.041,0.008,0.058,0.008,0.058,0.019
		c0.031-0.011,0.045-0.009,0.07,0.006c0.023-0.01,0.021,0.009,0.086,0.013c0.381,0.053,0.823,0.061,1.275-0.07
		c2.54-0.779,4.914-2.687,8.354-5c9.438-6.442,24.629-15.963,42.312-11.029c1.607,0.445,3.197,0.992,4.853,1.697
		c2.409,0.996,4.62,2.149,6.67,3.406c10.516,6.455,16.846,15.949,20.702,24.369c2.512,5.538,3.914,10.465,4.75,13.801
		c-0.646,0.367-1.139,1.013-1.332,1.756c-0.049,0.148-0.115,0.389-0.097,0.671c-0.094,1.383,0.857,2.627,2.17,2.979
		c0.242,0.06,0.424,0.089,0.583,0.105c0.414,0.01,0.773,0.062,1.165,0.12c0.151,0.08,0.329,0.152,0.519,0.205
		c0.311,0.09,0.613,0.107,0.879,0.097c0.922,0.276,1.717,0.624,2.423,1.048c2.042,1.254,3.444,3.216,4.204,5.132
		c0.692,1.681,0.717,3.552,0.577,3.92c0,0,0,0.026-0.042,0.146c-0.014-0.021-0.032,0.06-0.073,0.201
		c-0.357,1.301,0.188,2.646,1.321,3.367c0.186,0.109,0.352,0.188,0.515,0.248c0.1,0.027,0.202,0.051,0.249,0.055
		c0.529,0.162,1.094,0.158,1.61,0c-0.093,0.186-0.178,0.365-0.221,0.546c-0.174,0.575-0.156,1.233,0.087,1.872
		c0.329,0.904,1.095,1.563,1.987,1.82c0.59,0.17,1.216,0.139,1.813-0.082c6.122-2.317,15.125-1.699,22.228-0.651
		c7.634,1.056,15.32,4.27,24.225,4.924c17.633,1.219,35.955-4.231,49.69-15.623c2.468-2.137,4.62-4.329,6.421-4.998
		c-10.463,15.423-25.393,20.812-39.24,22.091c-11.842,1.096-22.763-1.063-28.314-2.607c-0.997-0.271-1.806-0.521-2.438-0.721
		c-0.383-0.129-0.776-0.262-1.202-0.386c-4.984-1.368-11.104-1.651-16.758-1.375c-6.144,0.286-11.511,1.116-14.591,2.392
		c-0.857,0.367-1.472,1.108-1.693,1.927c-0.156,0.632-0.132,1.354,0.147,2.003c0.241,0.599,0.679,1.048,1.146,1.355
		c0.278,0.146,0.519,0.256,0.782,0.338c0.634,0.17,1.336,0.125,1.936-0.131c1.54-0.713,6.939-1.731,12.552-1.924
		c5.183-0.264,10.861,0.065,14.78,1.15c0.354,0.089,0.698,0.199,0.997,0.313c0.722,0.231,1.57,0.502,2.597,0.777
		c6.072,1.678,17.608,3.975,30.619,2.813c0.938-0.064,1.889-0.188,2.847-0.309c2.349,6.423,3.59,13.594,3.679,20.368
		c0.01,2.118-0.266,4.161-0.819,6.133c-0.589,2.166-1.516,4.241-2.703,6.188c-3.231,5.289-8.495,9.476-14.335,11.365
		c-7.615,2.469-15.702,3.902-23.854,5.623c-9.979,2.127-21.202,2.247-31.798,6.812c-5.945,2.588-11.015,6.421-15.961,9.419
		c-13.937,8.417-28.72,15.837-44.075,21.072c-3.582,1.27-9.22,1.834-13.772,2.011c-4.218,0.194-7.549,0.043-8.086,0.041
		c-2.769-0.374-5.587-0.933-8.344-1.702c-4.008-1.102-7.814-2.652-11.327-4.818c-0.616-0.369-1.212-0.779-1.818-1.179
		c-5.264-3.675-9.738-7.946-13.295-13.117c-3.057-4.509-5.912-9.211-8.608-14.04c6.947,9.771,15.308,18.43,25.208,24.532
		c3.181,1.954,6.505,3.619,9.995,4.983c1.299,0.498,2.637,0.947,3.985,1.326c5.587,1.545,11.517,1.963,17.189,1.256
		c24.791-3.135,49.273-20.504,65.284-38.1c3.133-3.441,6.199-6.975,9.123-10.65c0.299-0.401,0.981-1.336,1.737-2.326
		c0.358-0.492,0.735-0.988,1.035-1.348c0.015-0.052,0.087-0.112,0.136-0.164c8.904-4.318,16.288-10.179,17.887-11.586
		c0.501-0.5,1.453-0.683,1.697-0.566c0.039,0.021,0.05,0,0.055,0.027l0.361,0.229l0.383,0.251l0.257-0.015
		c0.112,0.042,0.19,0.081,0.29,0.104c0.912,0.24,1.791,0.203,2.512,0.078c1.104-0.241,2.466-0.764,3.331-2.108
		c0.201-0.313,0.337-0.651,0.426-0.965c0.473-1.813-0.416-3.502-1.767-4.559c-2.211-1.852-4.576-3.573-6.926-5.219l-0.085-0.006
		l0.039-0.039c-0.317-0.243-1.357-1.14-2.423-1.789c-0.461-0.293-1.035-0.603-1.717-0.801c-0.01,0,0,0-0.024,0
		c-0.028-0.026-0.063-0.029-0.132-0.043c-1.085-0.281-2.66-0.115-3.686,1.416c-0.049,0.077-0.088,0.153-0.121,0.211v0.022
		c-0.01,0.031-0.01,0.031-0.01,0.031l0.031,0.013c-0.031,0.008-0.031,0.008-0.031,0.008v-0.013
		c-0.104,0.198-0.192,0.412-0.245,0.635c-0.438,1.65,0.259,2.917,0.508,3.556c0.457,0.979,1.027,1.893,1.051,1.996
		c0.413,0.813,0.712,1.451,0.755,1.692c0.024,0.16,0.011,0.154,0.018,0.16c0,0-0.007,0.009-0.007,0.03
		c-0.427,0.354-2.078,1.57-3.398,2.465c-0.775,0.517-1.521,1.009-2.062,1.376c-0.29,0.166-0.495,0.317-0.671,0.422
		c-0.085,0.051-0.128,0.076-0.163,0.099l-0.045,0.026c-4.301,2.539-6.794,3.136-9.011,3.012c-0.723-0.039-1.462-0.177-2.267-0.391
		c-1.644-0.459-3.59-1.313-6.06-2.367c-5.44-2.317-14.029-6.151-21.73-8.286c-2.608-0.729-5.142-1.248-7.446-1.462
		c-12.029-0.849-21.381,6.495-30.719,6.878c-2.553,0.139-5.027-0.156-7.46-0.84c-2.866-0.797-5.638-2.105-8.317-3.732
		c-3.798-2.343-7.339-5.322-10.53-8.361c-4.375-4.15-8.662-8.553-15.704-12.885c-1.891-1.166-4.005-2.334-6.333-3.468
		c-1.738-0.877-3.546-1.503-5.345-2.006c-1.412-0.392-2.825-0.706-4.229-0.955c-5.544-0.989-10.991-1.071-16.323-1.202
		c-2.137-0.039-3.3-0.113-4.076-0.342c-0.4-0.093-0.721-0.236-1.128-0.482c-0.486-0.287-1.107-0.789-1.911-1.563
		c-3.508-3.263-6.542-5.715-8.7-9.295c-0.809-1.302-2.055-3.071-2.837-4.741c-0.721-1.363-0.854-2.613-0.738-2.878l-0.007-0.006
		c0.107-0.152,0.154-0.235,0.358-0.41c0.552-0.351,1.071-0.866,1.454-1.481c0.218-0.349,0.373-0.721,0.474-1.125
		c0.154-0.552,0.197-1.138,0.104-1.727c-0.227-1.148-0.938-2.053-1.84-2.604c-0.384-0.235-0.8-0.398-1.224-0.517
		c-0.626-0.188-1.266-0.243-1.933-0.22c-2.439,0.143-4.848,1.438-7.302,3.029c-2.426,1.603-4.719,3.546-6.177,5.728
		c-0.095,0.124-0.151,0.235-0.151,0.235c-0.111,0.16-0.198,0.305-0.29,0.451c-0.216-0.523-0.593-0.987-1.103-1.328l0,0
		c-1.778-1.229-2.087-2.03-2.196-2.547c-0.043-0.289-0.043-0.592,0.071-0.957c0.091-0.367,0.271-0.778,0.557-1.211
		c0.942-1.604,3.047-3.313,3.91-3.92c0.601-0.425,0.965-1.02,1.14-1.617c0.237-0.857,0.089-1.781-0.44-2.553
		c-0.418-0.572-0.989-0.959-1.634-1.136c-0.822-0.223-1.777-0.089-2.541,0.461c-1.122,0.834-3.72,2.757-5.515,5.607
		c-0.511,0.813-0.947,1.729-1.239,2.749c-0.289,1.089-0.394,2.336-0.186,3.633c0.459,2.488,2.145,4.706,4.784,6.452l0.072,0.043
		c0.269,0.155,0.513,0.266,0.789,0.342c1.095,0.284,2.277-0.056,3.03-0.91c0.21,0.828,0.737,1.513,1.556,1.993
		c0.338,0.189,0.651,0.303,0.973,0.396c1.252,0.338,2.289,0.119,3.025,0.054c1.182-0.161,2.295-0.392,2.768-0.466
		c0.411-0.049,0.597-0.016,0.688,0.006c0.08,0.022,0.117,0.046,0.204,0.085c0.33-0.048,1.417,2.259,2.808,4.612
		c0.745,1.127,1.549,2.231,2.393,3.308c-1.552-0.724-3.203-1.417-4.99-2.043c-3.413-1.253-6.785-2.343-10.1-3.25
		c-5.313-1.488-10.454-2.538-15.411-3.169c1.481-2.889,2.672-5.94,3.565-9.117c2.322-8.403,2.313-17.611-1.23-26.412
		c-1.918-4.785-4.673-8.958-7.884-12.496c1.251-1.189,2.403-2.232,3.374-3.056c2.007,1.786,4.086,3.298,6.178,4.587l0.146,0.084
		c5.063,3.113,10.108,4.895,14.231,6.038c0.836,0.219,1.641,0.425,2.413,0.635c0.27,0.051,0.49,0.115,0.725,0.175
		c4.475,1.225,10.501,4.286,16.265,7.844c4.85,2.967,9.515,6.27,13.201,9.146c3.609,2.771,6.43,5.451,6.82,6.075
		c0.399,0.614,0.995,1.004,1.651,1.175c0.824,0.225,1.729,0.104,2.454-0.391c0.628-0.438,1.024-1.043,1.199-1.672
		c0.245-0.832,0.096-1.75-0.426-2.515c-1.369-1.919-4.149-4.327-8.021-7.374c-3.876-3.01-8.72-6.427-13.737-9.518
		c-6.096-3.74-12.424-7.025-17.935-8.557c-0.237-0.064-0.505-0.147-0.789-0.197c-0.68-0.162-1.454-0.377-2.248-0.586
		c-3.786-1.053-8.253-2.666-12.682-5.395c-10.009-6.215-20.167-17.98-21.394-44.21c0.371,2.821,0.862,5.627,1.495,8.394
		c1.357,5.856,3.384,11.656,6.446,17.005c4.267,7.508,10.088,12.857,16.639,16.871c6.505,3.994,13.703,6.725,21.011,9.177
		c5.089,1.67,10.03,4.167,14.456,6.888c8.778,5.283,15.72,12.089,16.609,13.876c0.409,0.736,1.083,1.224,1.795,1.425
		c0.749,0.199,1.56,0.117,2.248-0.277c0.718-0.418,1.216-1.07,1.416-1.805c0.214-0.742,0.124-1.552-0.267-2.269
		c-2.278-3.769-9.167-10.122-18.674-16.019c-4.739-2.918-10.071-5.619-15.693-7.474c-7.144-2.399-13.923-5.002-19.779-8.604
		c-5.902-3.621-10.87-8.201-14.601-14.727c-2.687-4.732-4.549-9.972-5.803-15.408c-0.764-3.385-1.301-6.827-1.676-10.341
		c-0.074-0.624,0.022-2.363-0.139-4.115c-0.147-1.705-0.599-4.227-2.93-5.838c-0.09-0.068-0.161-0.113-0.177-0.113
		c-0.546-0.346-1.042-0.572-1.585-0.716c-0.865-0.251-1.818-0.291-2.75,0.033c-1.389,0.44-2.299,1.454-2.82,2.306
		c-0.414,0.702-0.708,1.423-0.904,2.149c-0.253,0.887-0.369,1.754-0.375,2.563c-0.43,23.194,5.659,38.041,13.791,47.404
		c-0.996,0.895-2.184,1.961-3.463,3.174c-1.725-1.441-3.531-2.756-5.392-3.905c-3.576-2.199-7.314-3.81-11.036-4.845
		c-3.741-1.026-7.45-1.475-10.932-1.234c-1.767-4.962-3.602-9.694-4.613-14.482c-1.542-7.459-2.265-15.099-2.234-22.738
		c-0.032-2.269,0.042-7.494,1-10.927c0.251-0.933,0.577-1.725,0.906-2.211c1.135-1.283,0.479-1.091,2.168-0.924l0.111,0.024
		c1.686,0.461,4.771,1.857,7.85,2.729c1.601,0.434,3.283,0.778,5.063,0.611c0.908-0.068,1.81-0.337,2.629-0.791l1.68,0.584
		l0.043-1.925c0.257-0.243,0.467-0.543,0.677-0.881c0.141-0.196,0.288-0.486,0.436-0.801c0.167-0.441,0.294-0.834,0.416-1.217
		c1.246-4.652-0.234-10.069-0.58-13.097c-0.381-2.388-0.694-4.675-0.873-6.909c0.088-2.349,0.189-4.698,0.323-6.72
		c0.086-0.315,0.158-0.617,0.227-0.904c0.3-1.062,0.679-2.069,1.267-3.009l0.019-0.043c0.663-0.935,0.964-1.107,1.993-1.326
		c1.083-0.28,2.927-0.039,4.928,0.527c2.96,0.811,6.223,2.207,8.922,2.964c0.165,0.045,0.319,0.063,0.416,0.115
		c2.909,0.554,8.182,2.314,12.496-1.15c0.716-0.636,1.271-1.324,1.692-2.024c0.634-1.05,1.042-2.11,1.326-3.135
		c0.604-2.217,0.695-4.311,1.007-5.622c1.273-6.164,2.172-12.257,3.38-18.182c0.309-1.602,0.578-3.393,0.99-4.844
		c0.258-0.943,0.569-1.728,0.881-2.246c0.712-0.961,0.809-1.081,1.988-1.271c0.548-0.062,1.204,0.013,1.961,0.227
		c2.392,0.64,5.456,2.681,8.244,4.33c4.498,2.516,8.966,5.013,13.287,7.677l0.08,0.06l0.098,0.035l0.028,0.031
		c1.731,1.035,4.013,2.596,6.548,4.154c3.288,2.016,7.041,4.107,10.928,5.192c0.693,0.179,1.375,0.332,2.063,0.479
		c4.665,0.931,10.038-0.521,13.105-5.694c0.316-0.507,0.613-1.056,0.91-1.657c3.211-6.781,6.327-13.488,10.119-19.685l0.182-0.257
		c3.17-5.369,7.889-11.983,12.657-12.856c0.478-0.111,0.944-0.101,1.526,0.043c0.455,0.136,1.018,0.375,1.623,0.747
		c4.389,2.528,10.219,11.897,14.336,20.787c3.257,6.826,5.793,13.48,6.987,16.899c-2.985,3.098-5.196,5.908-6.814,8.515
		c-1.433,2.324-2.38,4.49-2.939,6.516c-1.438,5.136-0.337,9.196,0.292,11.806c0.192,0.792,0.675,1.439,1.313,1.842
		c0.288,0.155,0.535,0.286,0.771,0.35c0.49,0.127,0.987,0.125,1.474,0.023c1.113-0.253,1.939-1.085,2.215-2.112
		c0.145-0.453,0.15-0.945,0.041-1.425c-0.62-2.907-1.367-5.196-0.402-8.723c0.418-1.476,1.117-3.149,2.341-5.161
		c1.985-3.271,5.394-7.302,10.954-12.235c8.638-7.689,18.362-14.122,26.684-18.205c7.714-3.985,14.773-5.445,16.762-4.782
		c0.127,0.037,0.191,0.066,0.191,0.066c0.496,0.189,1.128,0.498,1.873,0.951c8.428,5.048,30.102,26.845,34.688,48.665
		c0.182,0.774,0.327,1.563,0.479,2.336c-0.05,0.442,0.039,0.933,0.227,1.344c1.3,8.224,0.71,15.076-0.857,20.803
		c-1.114,3.985-2.718,7.442-4.56,10.411c-2.323,3.82-5.043,6.835-7.549,9.163c-11.471,5.176-23.543,13.517-35.718,26.293
		c-0.342,0.346-0.591,0.807-0.712,1.264c-0.301,1.025,0.014,2.166,0.811,2.957l0.059,0.065l0.078,0.052
		c0.024,0.028,0.151,0.127,0.35,0.266c0.292,0.17,0.545,0.264,0.789,0.321c1.006,0.294,2.135,0.015,2.915-0.756
		c23.98-25.098,46.456-31.796,64.409-31.718c6.898,0.039,13.163,1.087,18.538,2.604c8.62,2.371,15.012,5.842,18.304,7.861
		c0.934,0.566,1.601,1.014,1.997,1.315c2.124,1.417,3.87,2.623,4.792,3.409c-1.819,1.133-4.313,2.644-6.392,3.928
		c-1.118,0.684-2.129,1.315-2.851,1.752c-0.368,0.23-0.663,0.394-0.854,0.522l-0.024,0.052l-0.162,0.057l-0.132,0.076
		c-0.657,0.396-1.124,1.019-1.313,1.746c-0.08,0.259-0.14,0.564-0.124,0.891c0.024,1.016,0.593,1.995,1.555,2.521
		c0.864,0.476,1.865,0.847,2.954,1.145c2.388,0.648,5.232,0.988,8.354,1.242c4.523,0.294,9.503,0.294,13.703,0.115
		c0.637-0.023,1.039,0.037,1.284,0.082c-0.015,0.198-0.045,0.649-0.206,1.195c-0.411,1.477-1.408,3.641-2.159,5.109
		c-0.606,1.217-1.267,2.436-1.99,3.646c-4.125,6.715-10.677,13.243-17.637,17.728c0.461-1.173,0.802-2.235,1.064-3.181
		c0.569-2.052,0.729-3.442,0.761-3.834c0.235-1.256,0.221-2.146,0.231-2.226l-0.057-4.095l-2.56,3.189
		c-2.027,2.506-4.214,2.762-7.129,2.028c-1.717-0.468-3.559-1.414-5.347-2.524c-9.38-8.834-18.722-13.791-27.385-16.203
		c-0.035-0.013-0.063-0.013-0.093-0.028c-6.882-1.902-13.918-2.367-21.05-1.531c-11.4,1.356-20.178,5.64-22.675,6.993
		c-5.328,2.536-9.232,5.225-11.919,7.493c-1.291,0.862-2.596,1.928-3.722,3.144c-1.153,1.235-1.941,2.559-2.332,3.979
		c-0.223,0.809-0.332,1.644-0.28,2.459l-0.177,0.242l0.206,1.008c1.169,4.892,6.526,24.898,24.122,35.779l0.146,0.082
		c3.21,1.969,6.979,3.678,11.212,4.829c3.654,1.027,7.639,1.648,11.998,1.774c17.804,0.56,28.812-8.121,35.025-16.93
		c0.531-0.254,0.979-0.564,1.462-0.941c5.834-3.796,10.054-7.969,13.039-11.893l0.447-0.099l0.039-0.16
		c10.783-4.48,21.344-13.754,27.683-23.989c0.829-1.342,1.601-2.726,2.264-4.101c0.686-1.452,1.873-3.677,2.524-6.024
		c0.31-1.186,0.568-2.479,0.354-3.904c-0.175-1.508-1.005-3.069-2.59-4.045c-0.512-0.299-1.068-0.551-1.668-0.706
		c-0.977-0.263-2.031-0.345-3.153-0.294c-3.983,0.142-8.791,0.173-13.011-0.115c-0.897-0.066-1.774-0.141-2.619-0.258
		c1.683-1.027,3.424-2.112,4.747-2.936c0.854-0.559,1.685-1.24,2.282-2.179c0.23-0.36,0.389-0.78,0.521-1.184
		c0.251-0.99,0.212-1.987-0.157-2.905c-1.441-3.092-4.288-4.448-7.588-6.845c-0.502-0.33-1.276-0.847-2.298-1.477
		c-3.614-2.226-10.497-5.964-19.787-8.543c-5.834-1.627-12.628-2.781-20.145-2.839c-6.673-0.029-13.897,0.846-21.547,3.042
		c0.391-0.586,0.787-1.177,1.192-1.838c2.081-3.393,3.9-7.362,5.172-11.919c1.728-6.228,2.395-13.559,1.23-22.013
		c4.587-2.491,9.797-4.294,15.036-6.057c2.835-0.939,4.676-1.073,6.049-0.694c0.445,0.122,0.857,0.296,1.275,0.55
		c0.912,0.568,1.947,1.581,3.04,3.298c2.959,4.689,4.932,10.769,6.217,16.512c0.099,0.422,0.283,0.807,0.523,1.124l0.068,0.099
		l0.063,0.072h-0.004c1.046,1.313,8.938,11.234,17.63,16.641c1.33,0.821,2.686,1.523,4.068,2.094
		c0.729,0.273,1.529,0.543,2.419,0.786c6.297,1.758,17.109,2.936,28.063,4.249c10.872,1.256,21.899,2.594,27.164,4.056
		c0.722,0.199,1.319,0.395,1.765,0.601c1.139,0.449,2.014,0.873,2.71,1.317c2.497,1.618,2.791,2.584,2.907,3.821
		c0.044,0.446-0.01,1.007-0.2,1.624c-0.265,0.951-0.771,2.051-1.452,3.16l-0.162,0.216c-1.334,2.156-8.688,12.188-15.526,21.427
		c-3.424,4.632-6.769,9.122-9.262,12.461c-1.235,1.657-2.267,3.039-2.983,4.006c-0.361,0.48-0.642,0.843-0.816,1.108
		c-0.119,0.142-0.177,0.234-0.222,0.307c-0.029,0.032-0.064,0.065-0.068,0.084l-0.021,0.014v0.021l-0.015,0.01l-0.019,0.021
		c-0.191,0.282-0.349,0.598-0.438,0.934c-0.127,0.435-0.142,0.976-0.03,1.459c0.188,0.882,0.775,1.558,1.469,1.966
		c2.291,1.369,6.514,2.916,11.352,4.885c4.788,1.942,10.061,4.201,13.622,6.396l0.34,0.202c1.81,1.282,1.819,1.702,1.922,2.604
		c0,0.242-0.027,0.613-0.162,1.035c-0.21,0.776-0.651,1.715-1.245,2.713c-1.191,1.939-2.898,3.924-4.11,5.807
		c-0.997,1.629-3.494,4.277-5.642,6.287c-1.1,1.022-2.105,1.938-2.837,2.57c-0.372,0.338-0.672,0.594-0.877,0.772
		c-0.089,0.086-0.188,0.146-0.236,0.203c-0.028,0.028-0.032,0.036-0.071,0.056c-0.021,0.01-0.021,0.025-0.021,0.025l0,0
		c-0.027,0.027-0.073,0.06-0.112,0.078c0,0.019,0,0.023-0.059,0.053c-0.344,0.361-0.634,0.818-0.784,1.343
		c-0.064,0.247-0.104,0.578-0.099,0.935c0.054,0.918,0.52,1.744,1.211,2.26c0.396,0.277,0.747,0.506,1.185,0.775
		c2.656,1.604,6.526,3.412,9.834,5.438c2.259,1.381,4.244,2.925,5.028,4.105c0.671,1.058,0.683,1.268,0.574,1.735
		C416.323,298.745,416.202,298.993,416.039,299.315z M108.538,280.795l-0.117,0.055l0,0L108.538,280.795z M64.31,177.921
		c-0.037,0.026-0.055,0.06-0.098,0.08c0.002-0.017,0.018-0.021,0.02-0.022C64.256,177.956,64.288,177.948,64.31,177.921z
		 M278.292,234.172c-0.482,3.01-0.327,5.955,0.336,8.731c-0.806,0.332-1.581,0.743-2.276,1.239l0.344,0.486l0,0l-0.344-0.494
		c-1.482,1.061-2.738,2.285-3.586,3.664c-0.334,0.587-0.601,1.176-0.806,1.834c-0.55,1.703-0.024,3.947,1.869,5.041
		c0.511,0.313,1.074,0.527,1.713,0.72c0.524,0.138,1.093,0.255,1.702,0.308l0.033,0.196l1.457-0.173c0,0,0,0,0.011,0l1.377-0.069
		l-0.008-0.182c1.533-0.397,3.02-1.15,4.483-1.941c2.44,2.411,5.487,4.218,8.929,5.185c0.749,0.217,1.479,0.383,2.239,0.501
		c1.546,0.265,3.078,0.288,4.515,0.183c0.607,0.828,1.299,1.557,2.192,2.105c0.593,0.345,1.228,0.641,1.908,0.81
		c0.249,0.065,0.501,0.104,0.746,0.167c3.041,0.482,5.896-0.929,7.393-3.383c0.354-0.557,0.634-1.18,0.809-1.848
		c0.084-0.293,0.113-0.551,0.167-0.779c0.173-0.99,0.1-1.951-0.11-2.824c2.901-2.729,5.104-6.27,6.232-10.338
		c0.237-0.85,0.412-1.689,0.564-2.547c0.056-0.481,0.119-0.98,0.162-1.436c2.792,2.137,5.594,4.615,8.394,7.398
		c-0.161,0.959-0.383,1.893-0.622,2.779c-0.762,2.761-1.894,5.322-3.341,7.67c-6.168,10.031-17.966,15.938-30.322,13.986
		c-1.143-0.203-2.237-0.437-3.345-0.732c-2.753-0.778-5.328-1.921-7.685-3.337c-10.034-6.181-15.917-17.96-13.957-30.32
		c0.169-1.076,0.39-2.118,0.691-3.131c0.202-0.821,0.474-1.618,0.751-2.397c2.974-1.061,6.034-1.809,8.895-2.32
		c-0.401,0.91-0.734,1.865-1.01,2.854C278.583,232.538,278.398,233.336,278.292,234.172z M290.696,244.493
		c0.611,0.025,1.104,0.092,1.525,0.217c0.411,0.117,0.721,0.259,0.985,0.42c0.873,0.564,0.813,0.994,0.813,1.033
		c0,0-0.029,0.031-0.083,0.142c0.044-0.068-0.162,0.224-1.12,0.268c-5.797,0.243-11.198,5.585-14.412,5.669
		c-0.23,0.016-0.451,0.006-0.597-0.008c-0.531-0.043-1.012-0.105-1.342-0.208c-0.367-0.108-0.638-0.239-0.809-0.353
		c-0.486-0.409-0.461-0.32-0.348-1.041c0.063-0.286,0.229-0.615,0.45-0.996c0.515-0.832,1.462-1.809,2.604-2.613
		c2.639-1.951,8.595-2.67,12.313-2.523L290.696,244.493z M303.062,253.311c0.815-1.271,2.267-1.988,3.816-1.745
		c0.182,0.043,0.33,0.063,0.446,0.086c0.358,0.097,0.667,0.245,0.951,0.418c1.276,0.787,2.021,2.255,1.768,3.81
		c-0.035,0.123-0.055,0.285-0.094,0.441c-0.089,0.33-0.247,0.653-0.433,0.977c-0.766,1.232-2.252,1.994-3.796,1.724
		c-0.119-0.015-0.28-0.058-0.442-0.101c-0.334-0.096-0.663-0.234-0.99-0.422c-1.213-0.746-1.973-2.229-1.728-3.8
		c0.028-0.138,0.06-0.286,0.107-0.426c0.099-0.353,0.229-0.675,0.393-0.935L303.062,253.311L303.062,253.311z M281.29,270.592
		c2.675,1.615,5.59,2.906,8.724,3.772c1.24,0.347,2.508,0.609,3.803,0.837c14.05,2.201,27.456-4.469,34.451-15.873
		c1.61-2.638,2.891-5.557,3.745-8.645c0.027-0.091,0.053-0.186,0.071-0.282c0.354,0.765,0.589,1.41,0.706,2.021
		c-0.76,2.68-2.339,7.103-5.15,11.67c-5.414,8.725-14.867,17.795-32.625,17.332c-3.994-0.115-7.605-0.667-10.888-1.598
		c-3.807-1.037-7.183-2.578-10.165-4.396c-7.794-4.762-13.02-11.77-16.428-18.221c0.006-0.178,0.006-0.369,0-0.562
		c-0.978-5.414-3.362-9.633-2.263-13.304c0.255-0.883,0.643-1.737,1.33-2.655c2.125-2.933,5.792-5.47,9.383-7.313
		c-0.214,0.896-0.405,1.803-0.552,2.756C263.205,250.19,269.885,263.562,281.29,270.592z M157.682,270.831
		c2.139,1.924,4.864,3.086,7.584,3.834c1.479,0.41,2.941,0.692,4.311,0.904l4.282,0.652l0.718-2.318l0.303-0.331
		c0,0-0.008-0.002-0.086-0.159c-0.663-1.188-1.602-5.601-4.862-10.511c-1.895-2.887-4.806-4.603-7.6-5.381
		c-3.588-0.931-7.331-0.726-9.052,2.124l0.021,0.004c-0.149,0.271-0.271,0.579-0.357,0.873
		C152.038,264.75,155.521,268.734,157.682,270.831z M305.353,323.717L305.353,323.717c1.157,0.908,1.909,1.41,2.193,2.419
		c0.17,0.563,0.278,1.501-0.163,3.104c-0.388,1.358-1.14,3.164-2.569,5.497c-0.191,0.34-0.446,0.704-0.717,1.124
		c-0.166,0.251-0.285,0.507-0.372,0.81c-0.325,1.186,0.106,2.473,1.128,3.229l0.093,0.071l0.089,0.062
		c0.279,0.146,0.539,0.258,0.773,0.323c1.252,0.336,2.558-0.155,3.292-1.228c0.28-0.447,0.546-0.859,0.801-1.279
		c1.608-2.619,2.647-4.938,3.222-6.997c0.675-2.461,0.685-4.587,0.163-6.399c-1.007-3.377-3.731-4.945-4.21-5.383
		c-0.357-0.262-0.715-0.453-1.089-0.56c-1.118-0.313-2.378,0.043-3.144,1.046c-0.245,0.273-0.418,0.64-0.535,1.021
		C303.995,321.704,304.368,322.952,305.353,323.717z M244.907,295.956c0.657,0.178,1.305,0.306,1.968,0.379
		c2.93,0.135,8.431,0.076,10.452-4.041c0.061-0.164,0.104-0.287,0.146-0.414c0.766-3.857-2.859-7.449-7.444-8.848
		c-1.503-0.406-3.113-0.552-4.797-0.285c-3.211,0.525-5.739,1.465-7.56,2.244c-0.918,0.36-1.664,0.698-2.159,0.895
		c-0.249,0.085-0.442,0.141-0.542,0.154c-0.024-0.004-0.057-0.02-0.096-0.02l-5.048-0.803l6.761,5.88
		C238.845,293.033,241.675,295.055,244.907,295.956z"/>
</g>
</svg>
