<?xml version="1.0" encoding="utf-8"?>
<!-- Generator: Adobe Illustrator 22.0.1, SVG Export Plug-In . SVG Version: 6.00 Build 0)  -->
<svg version="1.1" id="圖層_1" xmlns="http://www.w3.org/2000/svg" xmlns:xlink="http://www.w3.org/1999/xlink" x="0px" y="0px"
	 viewBox="0 0 226.8 36.9" style="enable-background:new 0 0 226.8 36.9;" xml:space="preserve">
<style type="text/css">
	.st0{fill:#0097AC;}
	.st1{fill:#656464;}
</style>
<g>
	<g>
		<g>
			<path class="st0" d="M33.1,15.8L33,17.4c-0.2,0.1-0.5,0.9-0.5,0.9L30,21.3c0.9,0.1,1.5-0.1,1.5-0.1c-0.5-0.9,0.7-1.5,0.7-1.5
				l1.2-0.1c1.5-0.7,2.1-2,2.1-2c0.3-1.1,0.1-1.7,0-1.8L33.1,15.8z"/>
			<path class="st0" d="M42.4,13.8l-1-0.8l-2,0.2c-0.2,0.2-0.9,0.6-0.9,0.6c-0.3,0.2-0.4-0.3-0.4-0.3l-0.4-0.4l-0.3,1.7l1.5,0
				l0.5-0.7l0.7-0.4c0.1,0,0.3-0.2,0.4-0.2l0.9,0l0.1,0.7l0.4-0.4c0,0-0.1-0.1-0.1-0.1c0.3,0.1,0.3,0.8,0.3,0.8L42.4,13.8z"/>
			<path class="st0" d="M36.7,13l-1-0.6c0,0-0.8-0.9-0.8-1.5l2.6-5.7l0.1-0.1l0.1,0L38,5.2c0.1,0.2,0.3,0.5,0.5,0.6
				c0.1,0.3,0.2,0.6,0.3,0.8c0,0-0.2-0.8-0.1-1.3c-0.5-0.2-0.8-1.2-0.8-1.2l-0.4,0.2c-0.2,0-0.4,0-0.5,0c-0.3-0.1-0.6-0.3-0.7-0.3
				c-1.2-0.6-4.7-2.3-9.2-3c-5.6-1-19.5-1.1-22.8-0.6c-3.3,0.5-2,0.4-2,0.4s12.5,1.5,18.4,5.8l13,7.8L36.7,13z"/>
		</g>
		<path class="st1" d="M42.7,9.7c0,0-0.2-0.8-0.5-0.7c-0.2,0.1-0.7-0.1-1.1-0.3l-0.6-0.3l-1.8,0c-0.2,0-1.2,0-1.8,0.2
			c0,0,1.1-0.1,2.3,0.3c0.1,0,0.1,0,0.1,0.1c-0.4,0.1-2.6,0.6-2.9,0.6c-0.5,0,1.5,0.2,2.6,0.1l-0.7,0.7c-0.1,0.1-1.2,0.6-1.4,0.7
			c-0.3,0.1,0.7-0.1,0.7-0.1c-0.2,0.1-0.9,0.4-1.1,0.4c0,0,0.2,0.3,0.5,0.3c-0.4,0.1-1,0.2-1.2,0.2c0,0,0.3,0.1,0.5,0.2
			c-0.7,0.1-1.2,0.3-1.2,0.3l0.6,0.3L35.2,13c-1.3-0.8-1.2-1.7-1.2-1.7l2-5.3c0.1,0,0.2-0.1,0.2-0.1L36.5,6c0,0.1,0.1,0.1,0.2,0.2
			c0.1,0.8,0.9,1.6,0.7,1.3c-0.1-0.2-0.2-0.6-0.3-1l-0.1-0.8l-0.9-1L35.3,5c0,0-8.6-2.2-9.6-2.2c-1.6-0.5-23,1.7-23,1.7L0,5.2
			C1,5.1,2.4,5,3.8,5c0.9,0.1,1.9,0.1,3,0.2l3.5,0.6c13.8,2.4,5.3,8.2,5.3,8.2L15,14.6c4.6-2.8,8.2-2.8,8.2-2.8
			c3.6,0.2,1.1,5.1,1.1,5.1c2.9-2.9,5.9-3.3,7.5-3.3c0.4,0.1,0.8,0.2,1.1,0.3c-0.1,0.1-0.7,0.7-0.8,0.8l-2.6,0.6
			c-0.2,0.2,1.7,0,1.5,0.2c-0.3,0.2,0.1,0.1-0.2,0.3c-0.2,0.2-2.1,0.3-2.3,0.4c-0.2,0.1,1.3,0.2,1.1,0.3c-0.2,0.1-0.2,0.1-0.1,0.1
			c0,0-0.1,0-0.2,0.1c-0.2,0.1-2.8,0.1-3,0.2c-0.2,0.1,1.3,0.5,1,0.5c-2.3,0.6-2.6,1.3-5.9,0.3c-0.3,0-1.6-1.2-1.9-1.2
			c-0.2,0,0.7,1.1,0.5,1.1c-0.2,0-2.3-1-2.4-1c-0.5-0.1,1.1,0.9,1.1,0.9c-0.4-0.1-0.6-0.2-0.9-0.2c-0.3,0-2.2-0.8-2.5-0.8
			c-0.1,0,1.2,0.7,1,0.7c-0.5,0-0.8-0.1-1.2-0.1c-0.3,0-2.3-0.5-2.5-0.5c-0.3,0,1.2,0.6,1,0.6c-1.2,0.1-1.9,0.4-1.9,0.4
			c-1.6,0.6-0.4,0.4-0.4,0.4c5.3-0.9,7.2,0.4,9.6,1.2c5.5,1.7,11.1-1.7,11.1-1.7L31.8,18c0.1,0.7-0.7,1.4-0.7,1.4l-0.5,0.1l-0.4-0.3
			l-0.4,0.4l-0.1,0.8c0,0.1-0.1,0.5-0.2,0.9c-0.7,0.3-1.4,0.7-2.1,1.3c-3.4,2.9-3.9,8-1,11.4c2.9,3.4,8,3.9,11.4,1
			c0,0,0.1-0.1,0.1-0.1c-2.8,1.8-6.7,1.1-9-1.6c-2.5-3-2.3-7.4,0.6-9.8c2.9-2.4,7.2-1.9,9.8,1.1c0.3,0.4,0.6,0.8,0.9,1.3
			c-0.3-0.8-0.7-1.5-1.3-2.2c-2.1-2.5-5.5-3.4-8.5-2.6c0.2-0.5,0.6-0.9,0.6-0.9c0.4,0,0.2-0.1,0.8-0.4c0.2-0.2,1.2-0.4,1.2-0.4
			c0.7-0.2,1.4-0.7,1.9-1.5c0.4-0.7,0.3-1.4,0.3-1.4l2.2-1.6c0.7-0.1,0.8-0.1,0.8-0.1l0.6,0.1l2.3-0.8l-0.1,0.7l0.6-0.4
			c0,0.1,0.2,0.2,0.1,0.6c0,0.2,0.4-0.3,0.4-0.3l0.4-0.5l-1.2-0.8l-1.9,0.5c-0.1-0.1-0.6,0.4-0.1-0.1c0.2-0.2,0.6-1.2,0.6-1.2
			l0.1-1.2l0.6-0.8l0.3-0.1c0.1,0.1,0.3,0.1,0.5,0.1c0.1,0,0.3,0.1,0.4,0.2l0.1,0.1l0.5-0.4c0,0-0.1,0-0.3,0c0,0,0,0,0,0
			c0,0,0,0,0,0c0,0-0.1,0-0.2,0l0-0.1l-0.1,0c-0.2-0.2-0.5-0.5-0.5-0.5l0.4-0.4l0.5,0c0,0,0.2,0,0.2,0l0.2,0.2l0.1-0.1
			c0.3,0.1,0.2,0.3,0.2,0.3L42.7,9.7z M41,9.1l-0.5,0.1L40,8.8L41,9.1L41,9.1z"/>
	</g>
	<g>
		<g>
			<path class="st1" d="M104.7,36.6h18.2c2.4-0.6,3.9-1.5,4.5-2.8l3.2-11h-21.7L104.7,36.6z M111.3,32.1l1.5-4.9
				c0-0.1,0.1-0.3,0.3-0.4l0.5-0.3c0.2-0.1,0.4-0.2,0.6-0.2h8.9c0.3,0,0.6,0.1,0.8,0.3l0.3,0.3c0.1,0.2,0.2,0.3,0.1,0.5l-1.5,4.9
				c0,0.1-0.1,0.2-0.2,0.3c-0.2,0.2-0.5,0.4-0.8,0.5c-0.1,0.1-0.3,0.1-0.5,0.1h-8.8c-0.3,0-0.6-0.1-0.8-0.3l-0.3-0.3
				C111.3,32.4,111.2,32.3,111.3,32.1z"/>
			<path class="st1" d="M133.1,14.6c-0.4-2-0.7-3.7-0.9-5.2c0-0.5,0-0.8,0-1h-15c-0.4,0.5-1.6,1.9-1.6,1.9c-3.9,5.1-5.7,5.9-7,5.6
				c-0.4-0.1-0.7-0.4-0.6-0.8l2-6.6H95.3l-8.8,28.4h10.9c2.1,0,4.2-1.3,4.5-2.3l4.5-15c0-0.1,0.1-0.3,0.3-0.4l0.4-0.3
				c0.2-0.1,0.4-0.1,0.6-0.1h1.1c0.1,0,0.2,0,0.3,0c0.3,0.1,0.6,0.3,0.7,0.5c0.3,0.4,0.1,0.9-0.1,1.1c0,0.1-0.1,0.2-0.1,0.2H131
				c0.1-1,0.4-1.5,1-1.8c0.3-0.1,0.6-0.2,0.9-0.1c0.3,0,0.5,0,0.7,0l0.9-3.1C133.5,15.4,133.2,15,133.1,14.6z M103.3,11.8l-6.8,21.9
				c0,0.1,0,0.1-0.1,0.2c-0.2,0.3-0.5,0.5-1,0.7c-0.1,0-0.3,0.1-0.4,0.1h-0.7c-0.3,0-0.6-0.1-0.7-0.3l-0.3-0.3
				c-0.1-0.1-0.2-0.3-0.1-0.5l6.8-22.1c0-0.1,0.1-0.3,0.3-0.4l0.4-0.3c0.2-0.1,0.4-0.1,0.6-0.1h0.9c0.3,0,0.5,0.1,0.7,0.3l0.3,0.3
				C103.3,11.4,103.4,11.6,103.3,11.8z M126.9,17.3c-0.2,0.1-0.4,0.2-0.7,0.2h-9c-0.3,0-0.6-0.1-0.8-0.3c-0.2-0.2-0.1-0.5,0-0.7
				c0,0,2.2-2.5,2.2-2.5c1.7-2.3,2.1-2.6,2.7-2.5h3.8c0.4,0,0.8,0.2,0.9,0.5l1,4.7C127.2,16.9,127.1,17.1,126.9,17.3z"/>
		</g>
		<g>
			<path class="st1" d="M144.7,30.3c0-0.1,0.1-0.2,0.2-0.3l4.5-4.1l2.8-10.3c0-0.1,0.1-0.3,0.3-0.4l0.1-0.1c0.2-0.2,0.6-0.4,1-0.5
				l0.8-3c-0.5-0.2-0.8-0.5-0.8-0.7c0-0.1,0-0.2,0-0.3l0.6-2.2h-5.1l-0.7,2.5c0,0.1-0.1,0.3-0.3,0.4l-0.5,0.3
				c-0.2,0.1-0.4,0.2-0.6,0.2h-1c-0.3,0-0.5-0.1-0.7-0.2l-0.3-0.3c-0.2-0.1-0.2-0.3-0.2-0.5l0.6-2.1h-5.1l-0.7,2.4
				c0,0.2-0.2,0.3-0.3,0.4l-0.5,0.3c-0.2,0.1-0.3,0.1-0.5,0.1c-0.3,0-0.4,0-0.5,0l-0.9,3c0.6,0.1,1.3,0.4,1.3,1c0,0.1,0,0.1,0,0.2
				L135.5,26l0.1,0.3l2.6,4c0.1,0.1,0.1,0.3,0.1,0.4l-0.1,0.2c0,0.1-0.1,0.2-0.2,0.3c-3.1,2.7-4.3,3-5.1,3c-0.3,0-0.5-0.1-0.7-0.2
				c-0.1,0-0.2,0-0.3,0l-0.8,2.9h5.1c1.4-0.4,2.6-1.1,3.4-2c0.2-0.2,0.4-0.3,0.7-0.3h0.2c0.3,0,0.6,0.1,0.8,0.3
				c0.8,1.1,1.6,1.7,2.4,1.9h4.8l0.8-2.9c-2-0.1-2.6-0.3-2.9-0.6c-0.1-0.1-0.2-0.2-0.2-0.3l-1.3-2c-0.1-0.1-0.1-0.3-0.1-0.4
				L144.7,30.3z M144.5,25.2c0,0,0,0.1-0.1,0.1c-0.3,0.5-0.7,0.8-1.3,1.1c-0.1,0.1-0.3,0.1-0.5,0.1h-0.4c-0.2,0-0.4-0.1-0.6-0.2
				c-0.5-0.3-0.7-0.7-0.8-1.3c0-0.1,0-0.1,0-0.2l2.6-9.3c0-0.1,0.1-0.3,0.3-0.4l0.5-0.3c0.2-0.1,0.4-0.2,0.6-0.2h1
				c0.3,0,0.5,0.1,0.7,0.2l0.4,0.3c0.2,0.2,0.2,0.3,0.2,0.5L144.5,25.2z"/>
			<path class="st1" d="M178.7,18.5c0-0.1,0-0.1,0-0.2l2.6-9.9h-22.6l-2.8,10.1c0,0.1-0.1,0.2-0.2,0.3c-0.3,0.3-0.8,0.5-1.3,0.6
				l-0.9,3.3c0.5,0.2,0.7,0.5,0.9,0.7c0.1,0.1,0.1,0.3,0.1,0.4l-2.7,10h15.6c0.3,0,0.6-0.1,1,0.3c0.2,0.2,0.1,0.4,0.1,0.5
				c0,0.1-0.1,0.5-0.6,0.5c-0.1,0-0.4,0-0.5,0h-1.9l-0.2,1.6c7.7,0.1,6.9-0.1,7.3-0.2c0.1,0,0.1-0.1,0.2-0.1c1.3-0.5,1.7-0.9,1.6-2
				c0-0.1,0-0.1,0-0.2c0.2-0.6,0.9-0.3,1.6-0.5l0.8-3.1c-0.5-0.2-1-0.4-1.1-0.8c0-0.1,0-0.1,0-0.2l1.6-6c0-0.2,0.2-0.3,0.3-0.4
				L178,23c0.1-0.1,0.3-0.1,0.4-0.1c0.3,0,0.4-0.1,0.6-0.1l0.9-3.3C179.2,19.2,178.8,18.9,178.7,18.5z M170.5,30.1
				c-0.1,0.3-0.5,0.5-0.9,0.5H169c-0.3,0-1.4-0.1-1.6-0.2l-0.1-0.1c-0.1-0.1-0.2-0.3-0.2-0.4c0,0,0-4,0-4c0-0.3,0-0.5,0-0.7h-3.9
				l-0.2,4.9c0,0.4-0.4,0.7-0.9,0.7H159c-0.3,0-0.5-0.1-0.7-0.2l-0.2-0.2c-0.2-0.2-0.2-0.4-0.2-0.6l1.6-6.2c0-0.1,0.1-0.3,0.3-0.4
				l0.6-0.4c0.2-0.1,0.4-0.2,0.6-0.2h9.9c0.3,0,0.6,0.1,0.7,0.3l0.4,0.4c0.1,0.1,0.2,0.3,0.2,0.5L170.5,30.1z M173.5,18.6
				c0,0.2-0.1,0.3-0.3,0.4l-0.4,0.3c-0.2,0.1-0.4,0.2-0.6,0.2h-0.4c-0.3,0-1.4-0.1-1.6-0.2l-0.2-0.1c-0.1-0.1-0.2-0.3-0.2-0.4
				l-0.1-4.4c0,0,0-0.1,0-0.1c0,0,0,0,0-0.1h-3.6c0.1,3.5-0.1,4.4-0.2,4.8c-0.1,0.3-0.5,0.5-0.9,0.5h-3.2c-0.3,0-0.5-0.1-0.7-0.2
				l-0.1-0.1c-0.2-0.2-0.2-0.4-0.2-0.5l1.6-6.2c0-0.2,0.2-0.3,0.3-0.4l0.5-0.3c0.2-0.1,0.4-0.1,0.6-0.1h9.9c0.3,0,0.5,0.1,0.7,0.2
				l0.4,0.3c0.2,0.2,0.3,0.4,0.2,0.6L173.5,18.6z"/>
		</g>
		<g>
			<path class="st1" d="M217.3,13.6l0.4-0.2c0.2-0.1,0.4-0.1,0.6-0.1h7.6l0.8-3.2h-7.3c-0.2,0-0.3,0-0.5-0.1c-0.6-0.2-1-0.7-0.7-1.3
				c0-0.1,0.1-0.2,0.1-0.2h-5.3c-0.2,0.9-0.4,1.3-0.9,1.5c-0.2,0.1-0.5,0.1-0.8,0.1h-7.9l-0.9,3.2h7.6c0.3,0,0.5,0.1,0.7,0.2
				l0.3,0.2c0.2,0.1,0.3,0.4,0.3,0.5l-0.5,2c0,0.1-0.1,0.3-0.3,0.4l-0.4,0.3c-0.2,0.1-0.4,0.1-0.6,0.1h-8l-0.9,3.2h13.8
				c0.3,0,0.5,0.1,0.7,0.2l0.3,0.2c0.2,0.1,0.3,0.3,0.3,0.5l-0.3,1.2c0,0.2-0.2,0.3-0.4,0.4l-0.4,0.2c-0.2,0.1-0.4,0.1-0.6,0.1
				h-15.1l-0.9,3.4H213c0.3,0,0.6,0.1,0.8,0.3l0.3,0.3c0.2,0.1,0.2,0.3,0.2,0.5l-1.3,5.1c-0.1,0.3-0.4,0.9-1.7,1.1
				c-0.1,0-0.2,0-0.2,0h-2.3c-0.1,0-0.1,0-0.2,0c-0.4,0-0.7-0.2-0.9-0.4c-0.4-0.4-0.2-0.9,0-1.3c0.2-0.3,0.2-0.4,0.3-0.6
				c-0.1,0-0.2,0-0.2,0c-0.7,0-2.2,0-2.4-1.7c0-0.3-0.1-0.5-0.1-0.7h-7.4l0,0.1c0.1,0.3,0.4,1.1,0.4,1.1c0.5,2,1.2,3,2.5,3.6
				c0.9,0.5,2.1,0.6,3.6,0.4c1-0.1,1.8,0.1,2.2,0.4c0.7,0.6,0.1,1.4-0.1,1.7c0,0.1-0.1,0.2-0.1,0.3c1.1,0,8.2,0,8.2,0
				s0.1-0.1,0.2-0.1c2.5-0.5,3.1-1.4,3.5-2.4l1.8-7.1c0-0.1,0.1-0.2,0.1-0.2c0.5-0.5,1.3-0.7,2.1-0.6c-0.1,0-0.1,0-0.2,0
				c0.4,0,1.3,0.1,1.5,0.1l0.9-3.4c-1.1,0-2.5-0.1-2.9-0.5c-0.2-0.2-0.2-0.4-0.1-0.6l0.3-1.2c0-0.1,0.1-0.2,0.2-0.3
				c0.7-0.5,1.3-0.5,1.7-0.4c0.3,0,1.2,0.1,1.3,0.1l0.8-3.2h-8c-0.3,0-0.5-0.1-0.7-0.2l-0.3-0.3c-0.2-0.1-0.2-0.3-0.2-0.5l0.5-2
				C217,13.8,217.1,13.7,217.3,13.6z"/>
			<path class="st1" d="M198.6,15.1l0.8-3.1c-1.2,0.1-1.9,0-2.2-0.4c-0.2-0.2-0.2-0.4-0.1-0.6l0.7-2.7h-5.5l-0.8,2.9
				c0,0.2-0.2,0.3-0.3,0.4l-0.4,0.2c-0.2,0.1-0.3,0.1-0.5,0.1H189c-0.3,0-0.5-0.1-0.7-0.2c-0.2-0.1-0.2-0.3-0.2-0.5l0.1-0.5
				c0-0.1,0.1-0.2,0.2-0.2l0.3-0.8h-2.8c0,0.1,0,0.1,0,0.3c0,0,0,0.1,0,0.1c-1.3,4-2.1,5.4-2.8,5.8l0,3h0.3c1.3-0.2,2.3-0.9,2.9-2.1
				c0.1-0.8,0.3-1.2,0.8-1.4c0.3-0.1,0.6-0.2,0.9-0.2c0,0-0.1,0-0.2,0h1.2c0.3,0,0.5,0.1,0.7,0.2l0.3,0.3c0.2,0.1,0.2,0.3,0.2,0.5
				l-1.1,4c0,0.1-0.1,0.1-0.1,0.2c-4.6,5.3-6.9,6-8.1,6.5l-0.8,4c0.2,0,0.3,0,0.3,0l2-0.1c1-0.3,1.7-0.6,2.2-0.9
				c0.3-0.2,1-0.3,1.4-0.2c0.4,0.1,0.6,0.4,0.5,0.7l-1.7,6.5h5.6l3.5-13.7c0-0.1,0-0.1,0.1-0.2c0.2-0.3,0.7-0.8,2.1-0.6
				c0,0-0.1,0-0.1,0c0.3,0,0.6,0,0.7,0l0.8-3.1c-1.1,0.1-1.8,0-2.2-0.4c-0.2-0.2-0.2-0.4-0.1-0.6l0.6-2.4c0-0.1,0-0.1,0.1-0.2
				c0.2-0.2,0.7-0.8,2.1-0.6c0,0-0.1,0-0.1,0C198.2,15.1,198.5,15.1,198.6,15.1z"/>
		</g>
		<path class="st1" d="M85.1,33.6H55.8c-0.1,0-0.1,0-0.3,0c-0.4,0-0.6-0.1-0.7-0.1c-0.4-0.2-1.1-1-1-2.4c0-0.1,0.1-0.6,0.3-1.1
			c0,0,0.2-0.3,0.5-0.4c0.2-0.1,0.3-0.1,0.5-0.1c0,0,22.5,0,22.6,0c2.6,0.1,1.9,0,2.1,0c0.1,0,0.2-0.1,0.3-0.1
			c3.2-0.6,5-1.7,5.6-3.4l5.2-17.5H53.6c-0.9,2.6-7,22-7,22l-1,2.7c0.4,2.4,1.8,3.6,4.3,3.7h31.3c0,0,1.4,0.1,2.6-0.8
			C84.9,35.1,85.1,33.6,85.1,33.6z M70.7,24.8l3.9-11.9c0-0.1,0.1-0.2,0.3-0.3l0.5-0.3c0.1-0.1,0.3-0.1,0.5-0.1h5.5
			c0.3,0,0.5,0.1,0.6,0.2l0.3,0.3c0.1,0.1,0.2,0.3,0.1,0.5L79,23.9c-0.2,0.7-0.9,1.5-2.8,1.9c-0.1,0,0.7,0,0.6,0h-5.1
			c-0.2,0-0.4-0.1-0.6-0.2l-0.3-0.3C70.7,25.1,70.6,24.9,70.7,24.8z M55.8,24.7l4-11.9c0-0.1,0.1-0.2,0.3-0.3l0.5-0.3
			c0.1-0.1,0.3-0.1,0.5-0.1h5.2c0.3,0,0.5,0.1,0.6,0.2l0.3,0.3c0.1,0.1,0.2,0.3,0.1,0.5L63.4,25c0,0.1-0.2,0.3-0.3,0.3l-0.5,0.3
			c-0.1,0.1-0.3,0.1-0.5,0.1h-5.2c-0.2,0-0.4-0.1-0.6-0.2l-0.3-0.3C55.8,25.1,55.7,24.9,55.8,24.7z"/>
	</g>
</g>
</svg>
