<?xml version="1.0" encoding="utf-8"?>
<!-- Generator: Adobe Illustrator 15.0.0, SVG Export Plug-In . SVG Version: 6.00 Build 0)  -->
<!DOCTYPE svg PUBLIC "-//W3C//DTD SVG 1.1//EN" "http://www.w3.org/Graphics/SVG/1.1/DTD/svg11.dtd">
<svg version="1.1" id="圖層_1" xmlns="http://www.w3.org/2000/svg" xmlns:xlink="http://www.w3.org/1999/xlink" x="0px" y="0px"
	 width="90px" height="80px" viewBox="0 0 90 80" enable-background="new 0 0 90 80" xml:space="preserve">
<g>
	<path fill="#FFC549" d="M87.646,23.592c-1.296,0-2.351,1.054-2.351,2.347v41.097H15.479c-1.296,0-2.35,1.052-2.35,2.346
		c0,1.295,1.054,2.347,2.35,2.347H90V25.938C90,24.646,88.945,23.592,87.646,23.592z"/>
	<path fill="#FFC549" d="M81.63,17.599c0-1.295-1.057-2.349-2.353-2.349c-1.295,0-2.35,1.054-2.35,2.349v41.093H7.108
		c-1.296,0-2.35,1.054-2.35,2.347c0,1.294,1.054,2.35,2.35,2.35H81.63V17.599z"/>
	<path fill="#FFC549" d="M73.287,52.455V10.614c0-1.291-1.056-2.342-2.35-2.342H2.356C1.057,8.272,0,9.323,0,10.614v41.841
		c0,1.292,1.057,2.344,2.356,2.344h68.581C72.231,54.799,73.287,53.747,73.287,52.455z M33.609,49.406h-21.65l-0.003-0.008
		c-0.67-3.299-3.235-5.865-6.536-6.534L5.412,42.86V20.348l0.006-0.004c3.352-0.68,5.923-3.301,6.552-6.673l20.364-0.006
		l0.015,0.099c-7.158,2.095-12.131,9.295-12.131,17.633c0,8.91,5.615,16.395,13.398,17.936L33.609,49.406z M38.021,45.188h-2.727
		v-2.279c-1.573-0.154-2.953-0.76-4.13-1.819c-1.179-1.055-1.769-2.899-1.769-5.53v-1.152h5.898v1.441
		c0,1.589,0.062,2.571,0.186,2.956c0.123,0.383,0.415,0.573,0.882,0.573c0.397,0,0.698-0.136,0.892-0.399
		c0.192-0.272,0.29-0.669,0.29-1.194c0-1.321-0.098-2.268-0.283-2.838c-0.183-0.57-0.81-1.193-1.893-1.859
		c-1.802-1.136-3.026-1.965-3.675-2.492c-0.645-0.535-1.208-1.277-1.681-2.247c-0.468-0.963-0.705-2.051-0.705-3.269
		c0-1.761,0.501-3.146,1.499-4.148c0.996-1.002,2.494-1.621,4.488-1.857v-1.885h2.727v1.885c1.822,0.236,3.185,0.846,4.092,1.832
		c0.905,0.989,1.359,2.356,1.359,4.096c0,0.242-0.02,0.615-0.062,1.109h-5.898v-0.978c0-1.042-0.071-1.723-0.204-2.041
		c-0.135-0.322-0.426-0.483-0.873-0.483c-0.361,0-0.628,0.141-0.81,0.414c-0.181,0.278-0.27,0.695-0.27,1.253
		c0,0.923,0.188,1.569,0.554,1.939c0.361,0.37,1.422,1.089,3.184,2.163c1.5,0.908,2.522,1.602,3.065,2.08
		c0.545,0.486,1.004,1.162,1.378,2.046c0.374,0.885,0.563,1.981,0.563,3.294c0,2.104-0.503,3.755-1.516,4.951
		c-1.017,1.197-2.536,1.937-4.563,2.222V45.188z M67.878,42.852l-0.007,0.002c-3.357,0.644-5.964,3.213-6.641,6.547l-21.936,0.006
		l-0.007-0.074c7.779-1.543,13.393-9.028,13.393-17.936c-0.007-8.34-4.979-15.54-12.132-17.633l0.013-0.099h20.662v0.007
		c0.62,3.355,3.29,6.042,6.647,6.683l0.007,0.004V42.852z"/>
</g>
</svg>
