<?xml version="1.0" encoding="utf-8"?>
<!-- Generator: Adobe Illustrator 15.0.0, SVG Export Plug-In . SVG Version: 6.00 Build 0)  -->
<!DOCTYPE svg PUBLIC "-//W3C//DTD SVG 1.1//EN" "http://www.w3.org/Graphics/SVG/1.1/DTD/svg11.dtd">
<svg version="1.1" id="圖層_1" xmlns="http://www.w3.org/2000/svg" xmlns:xlink="http://www.w3.org/1999/xlink" x="0px" y="0px"
	 width="290px" height="100px" viewBox="0 0 290 100" enable-background="new 0 0 290 100" xml:space="preserve">
<g>
	<g>
		<path fill="#6F6C88" d="M125.692,52.162v-4.835h-9.469c-0.873,0-1.275-0.671-1.275-2.048c0-0.974,0.303-1.578,0.974-1.778h9.771
			v-4.097h-6.816c-0.672,0-1.041-0.37-1.176-1.108c-0.469,0.269-0.938,0.504-1.409,0.706c-0.94,0.537-1.88,0.806-2.786,0.806
			c-0.807,0-1.377-0.503-1.646-1.511c0-0.705,0.235-1.343,0.704-1.947c5.171-2.215,8.999-4.6,11.483-7.084h-6.01
			c-0.872,0-1.343-0.604-1.411-1.88c0-1.008,0.403-1.612,1.243-1.747h10.341c1.074,0.236,1.846,0.739,2.283,1.511
			c3.894,4.23,7.554,7.084,10.979,8.494c1.074,0.47,1.679,1.075,1.779,1.779c0,0.604-0.134,1.041-0.369,1.377
			c-0.269,0.637-0.839,0.94-1.713,0.94c-1.074-0.201-2.283-0.772-3.692-1.646c-0.102,0.874-0.437,1.31-1.042,1.31h-7.051V43.5
			h10.107c0.637,0.134,0.972,0.771,0.972,1.913c0,1.276-0.369,1.914-1.107,1.914h-9.972v4.835h12.893
			c0.604,0.135,0.94,0.738,0.94,1.847c0,1.208-0.369,1.813-1.074,1.813h-28.639c-0.84,0-1.243-0.672-1.243-1.947
			c0-0.94,0.301-1.512,0.94-1.713H125.692z M121.898,35.744h12.354c-1.846-1.478-3.861-3.358-6.043-5.574
			c-0.034,0-0.034-0.034-0.034-0.034C126.364,32.251,124.248,34.133,121.898,35.744z"/>
		<path fill="#6F6C88" d="M176.453,26.041c1.311,0.034,2.049,0.638,2.182,1.847v25.651c0,1.443-0.703,2.182-2.113,2.215h-24.912
			c-1.377-0.066-2.084-0.738-2.084-2.047V27.955c0-1.276,0.707-1.914,2.117-1.914H176.453z M161.748,51.826
			c0-0.471,0.1-0.939,0.303-1.376c0.502-0.37,0.973-0.772,1.443-1.175c-0.807,0.235-1.881,0.469-3.189,0.705
			c-1.881,0.437-3.693,0.705-5.373,0.805c-0.672,0-1.107-0.268-1.309-0.873c-0.168-0.47-0.234-0.974-0.234-1.511
			s0.199-0.873,0.604-1.007c4.164-0.537,7.486-1.176,9.973-1.914c0.469,0,0.805,0.135,1.039,0.403
			c0.338,0.335,0.504,0.806,0.537,1.343c0.572-0.605,1.109-1.242,1.578-1.914c-0.469-1.612-0.906-3.526-1.309-5.708
			c-0.27-1.611-0.469-3.123-0.605-4.532h-10.609c-0.738,0-1.074-0.571-1.074-1.713c0-0.772,0.27-1.243,0.807-1.444h10.576
			c-0.068-0.806-0.102-1.578-0.102-2.316c0.068-0.134,0.135-0.269,0.27-0.403H153.42c-0.334,0-0.537,0.201-0.604,0.538v22.326
			c0.066,0.403,0.336,0.571,0.74,0.571h8.627C161.982,52.43,161.848,52.162,161.748,51.826z M155.84,45.279
			c-1.109,0-1.68-0.604-1.746-1.746v-5.304c0-1.075,0.537-1.679,1.678-1.747h6.715c1.074,0.101,1.645,0.773,1.645,1.981v4.902
			c0,1.276-0.637,1.913-1.846,1.913H155.84z M157.014,39.974v1.813c0,0.403,0.27,0.571,0.74,0.571h2.752
			c0.471-0.034,0.705-0.268,0.705-0.671v-1.645c0-0.437-0.234-0.671-0.672-0.671h-2.955
			C157.248,39.37,157.082,39.572,157.014,39.974z M175.313,48.536c-0.605,2.486-1.713,3.693-3.357,3.693
			c-1.275,0-2.385-1.006-3.391-3.054c-1.008,1.208-2.148,2.349-3.426,3.357c-0.066,0.066-0.135,0.101-0.135,0.101h9.637
			c0.438,0,0.672-0.269,0.672-0.872V48.536z M168.262,30.204c0.033,0.571,0.066,1.142,0.135,1.712h2.047
			c-0.336-0.469-0.604-0.873-0.838-1.208c-0.135-0.135-0.201-0.437-0.201-0.874c0-0.235,0.031-0.437,0.166-0.638h-1.611
			C168.16,29.465,168.262,29.801,168.262,30.204z M173.432,31.144c0.102,0.335,0.168,0.538,0.201,0.672v0.1h0.27
			c0.537,0.101,0.805,0.638,0.805,1.578c0,1.075-0.301,1.579-0.906,1.579h-5.137c0.102,1.141,0.234,2.35,0.402,3.625
			c0.135,0.94,0.303,1.813,0.438,2.552c0.57-1.276,1.041-2.585,1.41-3.995c0.234-0.303,0.738-0.471,1.51-0.471
			c0.941,0.269,1.412,0.772,1.412,1.511c-0.203,1.847-1.277,4.5-3.225,7.991c0.336,1.075,0.639,1.645,0.906,1.712
			c0.572-0.134,1.008-1.377,1.311-3.727c0.336-0.403,0.805-0.638,1.342-0.638c0.537,0.067,0.908,0.167,1.143,0.369V29.936
			c-0.033-0.437-0.27-0.672-0.672-0.739h-2.551C172.424,29.6,172.895,30.237,173.432,31.144z"/>
		<path fill="#6F6C88" d="M187.732,47.126c0.301,0.201,0.469,0.47,0.502,0.772c-0.135,2.686-0.537,5.002-1.174,6.949
			c-0.203,0.438-0.572,0.705-1.143,0.773c-1.006,0-1.543-0.471-1.578-1.41c0-0.202,0.102-0.471,0.303-0.873
			c0.402-1.545,0.738-3.459,0.973-5.742c0.135-0.47,0.504-0.738,1.109-0.738C187.195,46.857,187.529,46.958,187.732,47.126z
			 M211.939,47.697c0.805,2.115,1.846,3.895,3.088,5.372c0.539,0.537,0.84,1.143,0.84,1.746c-0.066,0.873-0.604,1.344-1.545,1.344
			c-0.57,0-1.141-0.336-1.746-1.008c-0.805-1.142-1.543-2.351-2.148-3.761c-0.705,1.478-1.477,2.72-2.35,3.861
			c-0.471,0.604-1.008,0.94-1.578,0.94c-0.773-0.068-1.311-0.537-1.611-1.344c-0.537,0.738-1.545,1.176-3.057,1.311
			c-1.578,0-2.584-0.102-3.021-0.236c-0.537-0.201-0.771-0.771-0.771-1.779c0.066-0.503,0.201-0.839,0.438-1.006
			c0.199-0.202,0.568-0.303,1.074-0.303c0.703,0.234,1.309,0.369,1.846,0.369c0.605-0.066,1.041-0.336,1.309-0.94
			c0.033-0.202,0.068-1.241,0.102-3.123c0-0.336-0.135-0.537-0.336-0.537h-2.988c-0.672,2.752-1.846,5.137-3.525,7.286
			c-0.201,0.303-0.604,0.471-1.176,0.471c-0.939,0-1.477-0.504-1.645-1.444c0-0.302,0.135-0.671,0.469-1.108
			c0.371-0.436,0.707-0.872,1.008-1.309c-0.201,0.033-0.402,0.033-0.604,0.033c-0.471,0-0.738-0.269-0.773-0.84
			c-0.268-1.543-0.502-2.753-0.705-3.591c-0.133-0.471-0.166-0.874-0.166-1.142c0.268-0.403,0.672-0.638,1.209-0.638
			c0.502,0,0.871,0.201,1.074,0.571c0.334,0.772,0.672,2.082,0.939,3.927c0.906-1.846,1.443-3.961,1.578-6.378h-1.242
			c0,0.066,0.033,0.134,0.033,0.167c0,0.806-0.537,1.243-1.545,1.243c-0.67,0-1.074-0.335-1.176-1.007
			c-0.066-0.236-0.1-0.437-0.133-0.639c-1.678,0.47-3.357,0.839-5.037,1.074c-0.703,0.067-1.174,0.135-1.443,0.135
			c-1.344,0-2.014-0.806-2.049-2.484c0-0.336,0.168-0.605,0.572-0.773h1.209c0.906-1.375,1.779-2.954,2.619-4.7
			c-1.074-1.243-2.184-2.351-3.324-3.324c-0.672-0.404-1.041-0.84-1.076-1.31c0.203-0.974,0.74-1.578,1.578-1.813
			c0.27,0,0.639,0.167,1.043,0.437c0.67-1.579,1.342-3.358,1.979-5.306c0.203-0.57,0.539-0.939,1.008-1.074
			c0.672,0,1.143,0.135,1.41,0.402c0.203,0.236,0.303,0.605,0.303,1.108c-0.402,2.014-1.242,4.231-2.586,6.715
			c0.369,0.369,0.74,0.738,1.074,1.074c0.572-1.309,1.143-2.719,1.68-4.197c0.27-0.302,0.672-0.47,1.143-0.47
			c0.703,0.134,1.141,0.336,1.309,0.604c0.268,0.235,0.436,0.571,0.436,1.007c-1.881,4.701-3.691,8.227-5.404,10.644
			c1.006-0.1,1.912-0.269,2.787-0.47c-0.135-0.269-0.236-0.503-0.303-0.704c-0.135-0.202-0.234-0.37-0.27-0.571
			c0-0.94,0.438-1.443,1.344-1.545c0.537,0.068,0.906,0.336,1.141,0.806c0.201,0.37,0.537,1.142,0.975,2.283
			c0.135-0.168,0.336-0.301,0.57-0.369h2.887v-1.142c0-0.335,0.135-0.604,0.404-0.772h-2.148c-1.074,0-1.611-0.571-1.68-1.678
			v-8.058c0-1.007,0.537-1.578,1.613-1.68h1.811c0.27-0.638,0.471-1.343,0.639-2.115c0.303-0.537,0.805-0.839,1.545-0.839
			c1.041,0.033,1.611,0.47,1.68,1.276c-0.068,0.537-0.236,1.108-0.506,1.678h1.545c1.041,0.134,1.578,0.773,1.578,1.914v6.883
			c1.445-3.559,2.352-7.152,2.754-10.711c0.201-0.604,0.672-0.939,1.41-0.939c1.041,0,1.578,0.369,1.578,1.041
			c0,0.47-0.066,0.873-0.168,1.208c-0.135,0.94-0.303,1.813-0.471,2.619h5.035c0.605,0.067,0.908,0.538,0.908,1.478
			c0,1.175-0.336,1.746-1.008,1.746h-0.637C214.121,39.001,213.248,43.802,211.939,47.697z M191.324,47.529
			c0.336,1.074,0.639,2.988,0.906,5.708c0,0.537-0.135,0.873-0.336,1.008c-0.27,0.201-0.738,0.302-1.377,0.302
			c-0.469,0-0.738-0.302-0.771-0.872c-0.201-2.15-0.369-3.795-0.537-4.937c-0.102-0.47-0.135-0.873-0.135-1.142
			c0.27-0.403,0.672-0.638,1.209-0.638C190.752,46.992,191.123,47.193,191.324,47.529z M202.369,31.479
			c0-0.402-0.234-0.638-0.639-0.638h-3.154c-0.27,0-0.471,0.201-0.537,0.571v0.94h4.33V31.479z M198.039,36.147
			c0,0.369,0.234,0.537,0.705,0.537h2.955c0.436,0,0.67-0.202,0.67-0.604v-1.243h-4.33V36.147z M203.41,39.471h-1.98
			c0.234,0.202,0.369,0.47,0.369,0.806v1.108h4.398c0.57,0.201,0.873,0.706,0.873,1.511c0,1.041-0.369,1.545-1.041,1.545h-5.941
			c-0.035,0.469-0.068,0.94-0.135,1.343h4.162c1.008,0,1.512,0.738,1.512,2.182c-0.068,2.619-0.168,4.432-0.303,5.506
			c1.477-1.78,2.686-3.794,3.693-6.043c-0.738-2.485-1.275-5.272-1.611-8.36c-0.102,0.167-0.201,0.336-0.268,0.47
			c-0.338,0.705-0.707,1.041-1.109,1.041c-0.906,0-1.51-0.336-1.779-1.041c0-0.067,0-0.168,0.033-0.235
			C204.016,39.437,203.746,39.471,203.41,39.471z M209.354,33.931c0.135,3.424,0.504,6.479,1.143,9.165
			c0.805-2.92,1.309-6.177,1.51-9.803h-2.484C209.455,33.528,209.387,33.729,209.354,33.931z"/>
		<path fill="#6F6C88" d="M250.277,33.327c1.074,0.067,1.645,0.705,1.645,1.947c0,3.492-0.268,5.405-0.807,5.674
			c-0.469,0.537-1.309,0.773-2.449,0.773h-0.369l-0.033,8.125c0,1.007-0.672,1.477-1.982,1.477h-0.1
			c1.746,0.537,3.223,1.041,4.498,1.478c0.604,0.437,0.906,0.907,0.941,1.377c0,1.31-0.506,2.048-1.443,2.183
			c-0.438,0-0.773-0.068-0.975-0.201c-2.518-0.873-5.205-1.746-8.059-2.586c-0.57-0.201-0.906-0.571-0.973-1.108
			c0.033-0.47,0.133-0.839,0.268-1.142h-7.957c0.135,0.369,0.234,0.807,0.27,1.31c0,0.403-0.336,0.772-1.008,1.075
			c-1.713,0.805-4.197,1.611-7.453,2.484c-0.84,0.269-1.479,0.402-1.914,0.402c-0.873-0.303-1.311-1.142-1.311-2.551
			c0-0.571,0.404-1.008,1.209-1.311c1.982-0.436,3.861-0.906,5.641-1.41h-0.436c-1.277,0-1.947-0.47-2.014-1.477v-9.032
			c-0.941,0.303-1.746,0.437-2.451,0.437c-1.143,0-1.814-0.571-1.949-1.746c0-0.571,0.102-1.008,0.371-1.343
			c0.234-0.202,0.57-0.336,1.041-0.437c2.08-0.335,3.793-0.974,5.068-1.846h-3.66c-1.107,0-1.678-0.369-1.711-1.176v-3.491
			c0.033-0.672,0.537-1.075,1.477-1.142h7.186c0.033-0.335,0.066-0.672,0.135-1.075h-8.193c-0.771-0.033-1.141-0.469-1.141-1.343
			c0.066-0.772,0.369-1.208,0.973-1.275h8.596c0-0.168,0.033-0.336,0.033-0.537c0.336-0.537,0.873-0.839,1.645-0.839
			c1.074,0.134,1.646,0.503,1.646,1.175v0.202h4.432v-0.134c0-0.638,0.502-1.041,1.51-1.175c1.141,0.034,1.746,0.437,1.746,1.242
			v0.067h6.916c0.906,0.134,1.377,0.537,1.445,1.275v3.56c0,0.772-0.539,1.175-1.578,1.208h-6.783v0.907H250.277z M225.398,32.42
			c-0.201,0-0.27,0.101-0.27,0.269v0.168c0,0.335,0.135,0.47,0.471,0.47h4.197c0.135-0.269,0.27-0.571,0.369-0.907H225.398z
			 M228.756,40.511v0.37h16.049v-0.37c0-0.335-0.201-0.537-0.537-0.638h-15.041C228.891,40.008,228.756,40.243,228.756,40.511z
			 M228.756,43.433v1.041h16.049v-1.041H228.756z M228.756,47.126v0.705c0,0.437,0.201,0.672,0.537,0.705h14.941
			c0.336-0.067,0.537-0.302,0.57-0.705v-0.705H228.756z M232.248,35.878c-0.1,0.134-0.168,0.235-0.201,0.302
			c-0.201,0.302-0.404,0.571-0.605,0.806h7.521v-1.107H232.248z M233.76,32.42c-0.102,0.336-0.203,0.638-0.27,0.907h5.473V32.42
			H233.76z M234.396,28.995c-0.068,0.403-0.1,0.74-0.135,1.075h4.701v-1.075H234.396z M247.088,30.07
			c0.268,0,0.402-0.134,0.402-0.437c0-0.336-0.166-0.571-0.469-0.639h-4.803v1.075H247.088z M248.297,38.463v0.135
			c0.402-0.303,0.604-1.108,0.604-2.418c0-0.201-0.135-0.302-0.336-0.302h-6.346v1.107h4.332
			C247.691,37.054,248.264,37.557,248.297,38.463z"/>
		<path fill="#6F6C88" d="M261.119,47.126c0.336,0.235,0.504,0.503,0.535,0.839c-0.199,2.585-0.703,4.801-1.543,6.681
			c-0.201,0.471-0.637,0.773-1.242,0.84c-1.074,0-1.645-0.504-1.68-1.512c0-0.201,0.102-0.537,0.303-0.939
			c0.57-1.443,1.008-3.223,1.344-5.372c0.133-0.537,0.537-0.806,1.209-0.806C260.549,46.857,260.918,46.958,261.119,47.126z
			 M264.813,25.503c0.234,0.269,0.369,0.705,0.369,1.31c-0.436,1.88-1.311,3.995-2.652,6.345c0.469,0.47,0.939,0.906,1.342,1.31
			c0.74-1.478,1.512-3.089,2.252-4.835c0.266-0.302,0.637-0.47,1.174-0.47c0.705,0.134,1.141,0.37,1.342,0.638
			c0.27,0.235,0.438,0.57,0.438,1.041c-2.049,4.701-3.996,8.293-5.809,10.777c0.873-0.134,1.746-0.335,2.619-0.537
			c-0.102-0.201-0.201-0.403-0.27-0.604c-0.168-0.235-0.268-0.47-0.303-0.671c0-1.041,0.506-1.611,1.512-1.713
			c0.605,0.067,1.008,0.37,1.275,0.874c0.27,0.469,0.738,1.645,1.41,3.525c0.135,0.336,0.236,1.008,0.371,1.98
			c0,0.873-0.572,1.343-1.713,1.377c-0.738,0-1.176-0.37-1.311-1.142c-0.066-0.268-0.1-0.504-0.133-0.739
			c-1.881,0.638-3.828,1.108-5.844,1.411c-1.309,0-2.113,0.033-2.416,0.033c-0.807,0-1.176-0.57-1.176-1.646
			c0-0.672,0.201-1.242,0.672-1.678c0.402,0,0.838,0,1.275-0.068c1.008-1.343,2.014-2.854,3.021-4.565
			c-1.275-1.377-2.551-2.585-3.828-3.593c-0.736-0.403-1.107-0.873-1.141-1.376c0.201-1.008,0.771-1.646,1.645-1.88
			c0.303,0,0.672,0.167,1.143,0.503c0,0.034,0.033,0.034,0.033,0.034c0.672-1.478,1.275-3.089,1.846-4.868
			c0.236-0.672,0.639-1.108,1.209-1.276C263.973,25,264.51,25.168,264.813,25.503z M264.879,47.495
			c0.369,1.074,0.738,3.022,1.074,5.843c0,0.637-0.133,1.008-0.404,1.141c-0.301,0.201-0.803,0.336-1.51,0.336
			c-0.537,0-0.84-0.336-0.904-0.974c-0.236-2.183-0.438-3.861-0.641-5.002c-0.133-0.537-0.168-0.974-0.168-1.275
			c0.303-0.471,0.74-0.739,1.344-0.739C264.209,46.857,264.611,47.092,264.879,47.495z M267.9,46.891
			c0.672,1.007,1.275,2.753,1.814,5.304c0,0.604-0.135,0.941-0.338,1.074c-0.301,0.202-0.805,0.336-1.477,0.336
			c-0.537,0-0.807-0.336-0.84-0.939c-0.469-1.981-0.906-3.492-1.309-4.566c-0.135-0.471-0.168-0.874-0.168-1.142
			c0.268-0.403,0.705-0.638,1.242-0.638C267.297,46.32,267.666,46.521,267.9,46.891z M286.838,26.074
			c0.838,0.134,1.275,0.671,1.275,1.612v19.641c0,4.769-0.301,7.421-0.906,7.958c-0.537,0.672-1.611,1.006-3.291,1.006
			c-3.426-0.268-5.238-0.839-5.439-1.711c0-0.639,0.102-1.143,0.336-1.545c0.27-0.47,0.738-0.738,1.344-0.807
			c1.779,0.471,3.188,0.672,4.264,0.706c0.404,0,0.637-1.746,0.637-5.305V37.457h-11.684v18.03c0,0.805-0.57,1.242-1.711,1.242
			c-0.84-0.033-1.311-0.403-1.445-1.074V27.753c0.102-1.108,0.605-1.679,1.545-1.679H286.838z M275.891,34.501
			c-0.537-1.041-1.006-1.914-1.443-2.585c-0.135-0.134-0.168-0.369-0.168-0.772c0-0.604,0.371-1.041,1.143-1.242
			c0.605,0.034,1.006,0.201,1.209,0.537c0.402,0.335,0.973,1.243,1.711,2.753c0.102,0.302,0.168,0.504,0.203,0.638
			c0,0.303-0.068,0.537-0.135,0.671h1.477c0.471-1.208,0.939-2.619,1.41-4.264c0.236-0.269,0.57-0.436,1.041-0.436
			c0.604,0.135,1.006,0.335,1.176,0.57c0.236,0.202,0.369,0.47,0.369,0.874c-0.369,1.343-0.707,2.417-1.041,3.256h2.215v-4.264
			c0-0.436-0.232-0.704-0.637-0.839h-10.576c-0.336,0.135-0.471,0.302-0.471,0.538v4.565H275.891z M281.096,39.101v2.149h1.512
			c0.939,0,1.443,0.471,1.443,1.377c0,1.041-0.504,1.544-1.479,1.544h-4.365c-0.502,0-0.771,0.201-0.771,0.57v3.056
			c0,0.403,0.201,0.604,0.672,0.604h4.5c0.906,0.067,1.375,0.537,1.408,1.377c0,1.007-0.502,1.511-1.477,1.511h-5.674
			c-1.512,0-2.25-0.839-2.25-2.585v-4.869c0.035-1.679,0.738-2.552,2.148-2.585h1.209v-2.182c0-0.604,0.471-1.007,1.443-1.142
			C280.525,37.959,281.096,38.362,281.096,39.101z"/>
	</g>
	<g>
		<rect x="32.329" y="43.641" fill="#ABCD3D" width="9.865" height="4.062"/>
		<rect x="73.215" y="34.598" fill="#ABCD3D" width="4.111" height="21.229"/>
		<rect x="84.386" y="25.264" fill="#ABCD3D" width="4.111" height="30.563"/>
		<rect x="94.638" y="25.264" fill="#ABCD3D" width="4.111" height="30.563"/>
		<circle fill="#ABCD3D" cx="75.271" cy="30.125" r="2.249"/>
		<path fill="#ABCD3D" d="M25.219,45.962c-0.493,3.445-3.454,6.093-7.036,6.093c-3.926,0-7.108-3.183-7.108-7.108
			c0-3.926,3.182-7.109,7.108-7.109c1.909,0,3.64,0.755,4.917,1.979l-9.075,6.097l1.692,2.321l9.082-5.893l0,0l0.01-0.007
			l3.614-1.856c-1.724-3.945-5.659-6.703-10.239-6.703c-6.169,0-11.17,5.001-11.17,11.17c0,6.169,5,11.171,11.17,11.171
			c5.827,0,10.61-4.462,11.123-10.155H25.219z"/>
		<path fill="#ABCD3D" d="M62.58,39.344c2.037-1.445,3.359-3.772,3.359-6.399c0-4.385-3.683-7.938-8.227-7.938
			c-0.071,0-0.493,0-0.503,0c-5.876-0.189-10.349,4.103-10.349,8.251c0,0.874,0,22.354,0,22.354h3.425V33.558
			c0-2.176,2.133-4.384,5.209-4.739c1.787-0.193,2.933,0.22,3.394,0.365c1.863,0.588,3.238,2.384,3.238,4.361
			c0,2.039-1.461,3.658-3.384,4.293c-0.603,0.199-1.818,0.458-2.905,0.485c-1.766,0.045-3.304,0-3.581,0v3.654
			c0,0,7.734,0.054,8.251,0.054c1.73,0,3.134,2.104,3.134,4.7c0,2.596-1.404,4.701-3.134,4.701c-1.331,0-8.281,0-8.281,0v4.179
			c0,0,9.069,0,9.874,0c3.332,0,6.033-3.648,6.033-8.148C68.132,43.182,65.686,39.675,62.58,39.344z"/>
		<polygon fill="#F6B039" points="1.887,55.283 8.271,54.05 5.913,59.092 		"/>
	</g>
	<g>
		<path fill="#6F6C88" d="M112.318,73.354v-1.297c0.149,0.131,0.327,0.248,0.535,0.354c0.207,0.105,0.425,0.193,0.655,0.266
			s0.461,0.127,0.692,0.166c0.232,0.041,0.445,0.061,0.642,0.061c0.677,0,1.184-0.126,1.519-0.377
			c0.334-0.252,0.501-0.613,0.501-1.086c0-0.254-0.056-0.475-0.167-0.662c-0.112-0.188-0.266-0.359-0.463-0.516
			c-0.196-0.154-0.43-0.303-0.698-0.445c-0.269-0.142-0.559-0.291-0.869-0.449c-0.328-0.166-0.633-0.334-0.918-0.504
			c-0.284-0.172-0.531-0.359-0.741-0.564c-0.209-0.205-0.375-0.438-0.495-0.698c-0.121-0.26-0.181-0.565-0.181-0.915
			c0-0.428,0.094-0.801,0.282-1.117c0.188-0.317,0.435-0.578,0.74-0.783c0.307-0.207,0.655-0.359,1.047-0.459
			c0.391-0.102,0.789-0.152,1.196-0.152c0.926,0,1.602,0.111,2.026,0.335v1.239c-0.556-0.385-1.269-0.576-2.138-0.576
			c-0.24,0-0.48,0.025-0.721,0.074c-0.241,0.051-0.456,0.133-0.644,0.246s-0.34,0.26-0.459,0.439
			c-0.118,0.18-0.176,0.398-0.176,0.656c0,0.24,0.044,0.447,0.134,0.622s0.222,0.335,0.396,0.479c0.176,0.146,0.388,0.284,0.64,0.42
			s0.542,0.284,0.869,0.446c0.337,0.166,0.656,0.342,0.958,0.524c0.302,0.184,0.566,0.387,0.793,0.61
			c0.227,0.223,0.407,0.469,0.542,0.74c0.132,0.271,0.2,0.582,0.2,0.932c0,0.463-0.09,0.855-0.272,1.176
			c-0.181,0.322-0.425,0.584-0.733,0.785c-0.309,0.2-0.664,0.346-1.066,0.436s-0.826,0.135-1.272,0.135
			c-0.148,0-0.332-0.013-0.551-0.037c-0.218-0.023-0.44-0.059-0.669-0.105c-0.227-0.045-0.442-0.102-0.645-0.17
			C112.604,73.513,112.441,73.438,112.318,73.354z"/>
		<path fill="#6F6C88" d="M125.763,73.734h-1.076v-1.049h-0.026c-0.467,0.804-1.156,1.207-2.065,1.207
			c-0.669,0-1.192-0.178-1.57-0.531c-0.378-0.355-0.567-0.824-0.567-1.41c0-1.255,0.738-1.984,2.217-2.189l2.012-0.282
			c0-1.142-0.461-1.712-1.384-1.712c-0.809,0-1.538,0.275-2.19,0.826v-1.102c0.661-0.42,1.42-0.629,2.282-0.629
			c1.578,0,2.368,0.834,2.368,2.504V73.734z M124.687,70.338l-1.619,0.223c-0.498,0.07-0.874,0.193-1.128,0.371
			c-0.253,0.177-0.38,0.49-0.38,0.94c0,0.328,0.117,0.597,0.351,0.804c0.233,0.207,0.545,0.311,0.934,0.311
			c0.534,0,0.974-0.186,1.322-0.561c0.347-0.373,0.521-0.846,0.521-1.42V70.338z"/>
		<path fill="#6F6C88" d="M132.316,64.738c-0.21-0.117-0.449-0.178-0.715-0.178c-0.752,0-1.128,0.476-1.128,1.424v1.035h1.573v0.918
			h-1.573v5.797h-1.069v-5.797h-1.147V67.02h1.147v-1.088c0-0.704,0.203-1.26,0.61-1.668c0.406-0.409,0.914-0.613,1.521-0.613
			c0.328,0,0.586,0.039,0.781,0.117V64.738z"/>
		<path fill="#6F6C88" d="M139.805,70.646h-4.74c0.017,0.747,0.218,1.324,0.603,1.73c0.384,0.406,0.913,0.609,1.587,0.609
			c0.755,0,1.451-0.248,2.085-0.747v1.01c-0.59,0.429-1.371,0.644-2.341,0.644c-0.949,0-1.694-0.306-2.236-0.916
			c-0.542-0.609-0.813-1.467-0.813-2.573c0-1.045,0.296-1.896,0.889-2.554s1.328-0.986,2.207-0.986s1.558,0.283,2.039,0.852
			c0.48,0.568,0.721,1.357,0.721,2.367V70.646z M138.704,69.734c-0.005-0.62-0.154-1.104-0.449-1.449
			c-0.295-0.344-0.706-0.518-1.229-0.518c-0.507,0-0.938,0.182-1.292,0.545c-0.355,0.362-0.573,0.836-0.656,1.422H138.704z"/>
		<path fill="#6F6C88" d="M148.604,73.734h-1.076v-9.939h1.076V73.734z"/>
		<path fill="#6F6C88" d="M160.811,73.893c-1.33,0-2.4-0.439-3.207-1.318c-0.801-0.879-1.201-2.021-1.201-3.43
			c0-1.518,0.408-2.723,1.227-3.619c0.82-0.9,1.934-1.352,3.338-1.352c1.293,0,2.338,0.438,3.135,1.313
			c0.793,0.874,1.193,2.017,1.193,3.43c0,1.533-0.408,2.746-1.221,3.639c-0.193,0.213-0.398,0.397-0.615,0.551L166.102,75h-2
			l-1.771-1.324C161.867,73.82,161.359,73.893,160.811,73.893z M160.889,65.172c-0.988,0-1.791,0.355-2.408,1.068
			c-0.615,0.713-0.924,1.648-0.924,2.806c0,1.154,0.299,2.087,0.898,2.8c0.604,0.705,1.389,1.057,2.355,1.057
			c1.029,0,1.844-0.337,2.438-1.01c0.594-0.674,0.893-1.616,0.893-2.827c0-1.245-0.289-2.205-0.867-2.878
			C162.697,65.51,161.902,65.172,160.889,65.172z"/>
		<path fill="#6F6C88" d="M173.637,73.734h-1.076v-1.063h-0.025c-0.445,0.814-1.137,1.221-2.072,1.221c-1.6,0-2.4-0.953-2.4-2.859
			V67.02h1.068v3.843c0,1.417,0.543,2.124,1.627,2.124c0.523,0,0.957-0.193,1.295-0.58c0.34-0.387,0.508-0.893,0.508-1.518V67.02
			h1.076V73.734z"/>
		<path fill="#6F6C88" d="M177.566,65.315c-0.193,0-0.357-0.065-0.492-0.196c-0.135-0.132-0.203-0.298-0.203-0.498
			c0-0.201,0.068-0.369,0.203-0.502c0.135-0.135,0.299-0.2,0.492-0.2c0.197,0,0.363,0.065,0.502,0.2
			c0.137,0.133,0.205,0.301,0.205,0.502c0,0.191-0.068,0.355-0.205,0.491C177.93,65.247,177.764,65.315,177.566,65.315z
			 M178.09,73.734h-1.074V67.02h1.074V73.734z"/>
		<path fill="#6F6C88" d="M186.055,73.426c-0.518,0.312-1.129,0.467-1.836,0.467c-0.959,0-1.73-0.313-2.32-0.936
			c-0.588-0.623-0.881-1.43-0.881-2.422c0-1.105,0.316-1.994,0.951-2.666c0.633-0.672,1.479-1.006,2.537-1.006
			c0.59,0,1.109,0.109,1.561,0.327v1.103c-0.498-0.351-1.033-0.525-1.6-0.525c-0.688,0-1.25,0.246-1.689,0.738
			c-0.439,0.491-0.658,1.137-0.658,1.938c0,0.787,0.207,1.406,0.619,1.861c0.414,0.455,0.967,0.682,1.662,0.682
			c0.586,0,1.137-0.193,1.654-0.582V73.426z"/>
		<path fill="#6F6C88" d="M194.461,73.734h-1.508l-2.963-3.227h-0.027v3.227h-1.074v-9.939h1.074v6.301h0.027l2.818-3.076h1.41
			l-3.115,3.24L194.461,73.734z"/>
		<path fill="#6F6C88" d="M202.734,73.734h-1.076v-9.939h1.076V73.734z"/>
		<path fill="#6F6C88" d="M217.551,73.342c-0.695,0.366-1.563,0.551-2.598,0.551c-1.338,0-2.408-0.432-3.213-1.293
			s-1.205-1.99-1.205-3.389c0-1.504,0.451-2.72,1.355-3.646c0.904-0.926,2.053-1.391,3.443-1.391c0.891,0,1.629,0.13,2.217,0.387
			v1.174c-0.674-0.375-1.416-0.563-2.23-0.563c-1.08,0-1.955,0.359-2.625,1.081c-0.672,0.722-1.006,1.685-1.006,2.892
			c0,1.146,0.313,2.059,0.939,2.738c0.627,0.679,1.449,1.02,2.469,1.02c0.945,0,1.76-0.21,2.453-0.63V73.342z"/>
		<path fill="#6F6C88" d="M223.336,73.893c-0.992,0-1.785-0.314-2.377-0.941c-0.594-0.627-0.889-1.459-0.889-2.495
			c0-1.128,0.309-2.009,0.924-2.642c0.617-0.635,1.449-0.951,2.498-0.951c1.002,0,1.783,0.308,2.344,0.924
			c0.563,0.617,0.844,1.471,0.844,2.564c0,1.07-0.303,1.928-0.908,2.573S224.354,73.893,223.336,73.893z M223.414,67.768
			c-0.691,0-1.236,0.235-1.639,0.705s-0.604,1.117-0.604,1.944c0,0.796,0.203,1.423,0.609,1.882s0.951,0.688,1.633,0.688
			c0.695,0,1.229-0.225,1.604-0.675c0.373-0.45,0.561-1.091,0.561-1.921c0-0.84-0.188-1.486-0.561-1.941
			C224.643,67.995,224.109,67.768,223.414,67.768z"/>
		<path fill="#6F6C88" d="M235.178,73.734h-1.074v-3.829c0-1.425-0.52-2.138-1.561-2.138c-0.539,0-0.982,0.203-1.334,0.606
			c-0.352,0.405-0.527,0.915-0.527,1.531v3.829h-1.076V67.02h1.076v1.115h0.025c0.506-0.848,1.242-1.271,2.203-1.271
			c0.734,0,1.297,0.236,1.686,0.711s0.582,1.159,0.582,2.055V73.734z"/>
		<path fill="#6F6C88" d="M243.693,67.02l-2.676,6.715h-1.057l-2.543-6.715h1.18l1.705,4.879c0.127,0.357,0.205,0.672,0.236,0.938
			h0.027c0.041-0.336,0.111-0.641,0.207-0.912l1.785-4.904H243.693z"/>
		<path fill="#6F6C88" d="M251.451,70.646h-4.74c0.018,0.747,0.219,1.324,0.604,1.73c0.383,0.406,0.912,0.609,1.586,0.609
			c0.756,0,1.451-0.248,2.086-0.747v1.01c-0.59,0.429-1.371,0.644-2.342,0.644c-0.949,0-1.693-0.306-2.236-0.916
			c-0.541-0.609-0.813-1.467-0.813-2.573c0-1.045,0.295-1.896,0.889-2.554c0.592-0.658,1.328-0.986,2.207-0.986
			s1.557,0.283,2.039,0.852c0.48,0.568,0.721,1.357,0.721,2.367V70.646z M250.35,69.734c-0.006-0.62-0.154-1.104-0.449-1.449
			c-0.295-0.344-0.705-0.518-1.229-0.518c-0.508,0-0.938,0.182-1.293,0.545c-0.354,0.362-0.572,0.836-0.654,1.422H250.35z"/>
		<path fill="#6F6C88" d="M259.859,73.734h-1.076v-3.829c0-1.425-0.52-2.138-1.561-2.138c-0.537,0-0.982,0.203-1.334,0.606
			c-0.352,0.405-0.527,0.915-0.527,1.531v3.829h-1.074V67.02h1.074v1.115h0.025c0.508-0.848,1.244-1.271,2.203-1.271
			c0.734,0,1.297,0.236,1.686,0.711c0.391,0.475,0.584,1.159,0.584,2.055V73.734z"/>
		<path fill="#6F6C88" d="M263.645,65.315c-0.191,0-0.355-0.065-0.492-0.196c-0.135-0.132-0.203-0.298-0.203-0.498
			c0-0.201,0.068-0.369,0.203-0.502c0.137-0.135,0.301-0.2,0.492-0.2c0.195,0,0.363,0.065,0.502,0.2
			c0.139,0.133,0.207,0.301,0.207,0.502c0,0.191-0.068,0.355-0.207,0.491C264.008,65.247,263.84,65.315,263.645,65.315z
			 M264.17,73.734h-1.076V67.02h1.076V73.734z"/>
		<path fill="#6F6C88" d="M272.951,70.646h-4.74c0.018,0.747,0.219,1.324,0.604,1.73s0.914,0.609,1.586,0.609
			c0.756,0,1.451-0.248,2.086-0.747v1.01c-0.59,0.429-1.371,0.644-2.34,0.644c-0.949,0-1.695-0.306-2.236-0.916
			c-0.543-0.609-0.814-1.467-0.814-2.573c0-1.045,0.297-1.896,0.889-2.554s1.328-0.986,2.207-0.986s1.557,0.283,2.039,0.852
			c0.48,0.568,0.721,1.357,0.721,2.367V70.646z M271.85,69.734c-0.004-0.62-0.154-1.104-0.449-1.449
			c-0.295-0.344-0.705-0.518-1.229-0.518c-0.508,0-0.938,0.182-1.293,0.545c-0.354,0.362-0.572,0.836-0.654,1.422H271.85z"/>
		<path fill="#6F6C88" d="M281.359,73.734h-1.074v-3.829c0-1.425-0.521-2.138-1.563-2.138c-0.537,0-0.982,0.203-1.334,0.606
			c-0.352,0.405-0.527,0.915-0.527,1.531v3.829h-1.076V67.02h1.076v1.115h0.025c0.508-0.848,1.242-1.271,2.205-1.271
			c0.734,0,1.295,0.236,1.684,0.711s0.584,1.159,0.584,2.055V73.734z"/>
		<path fill="#6F6C88" d="M287.707,73.669c-0.252,0.14-0.586,0.21-1.002,0.21c-1.176,0-1.764-0.656-1.764-1.967v-3.975h-1.154V67.02
			h1.154v-1.639l1.076-0.348v1.986h1.689v0.918h-1.689v3.784c0,0.45,0.076,0.771,0.229,0.964s0.406,0.289,0.76,0.289
			c0.271,0,0.506-0.074,0.701-0.224V73.669z"/>
	</g>
</g>
</svg>
