<?xml version="1.0" encoding="utf-8"?>
<!-- Generator: Adobe Illustrator 15.0.0, SVG Export Plug-In . SVG Version: 6.00 Build 0)  -->
<!DOCTYPE svg PUBLIC "-//W3C//DTD SVG 1.1//EN" "http://www.w3.org/Graphics/SVG/1.1/DTD/svg11.dtd">
<svg version="1.1" id="圖層_1" xmlns="http://www.w3.org/2000/svg" xmlns:xlink="http://www.w3.org/1999/xlink" x="0px" y="0px"
	 width="24px" height="22px" viewBox="0 0 24 22" enable-background="new 0 0 24 22" xml:space="preserve">
<path fill="#FFFFFF" d="M22.933,18.574l-5.144-4.732c-0.282-0.258-0.648-0.359-1.001-0.317l-1.684-1.548
	c1.965-3.123,1.479-7.307-1.347-9.906C10.573-0.854,5.631-0.658,2.716,2.512c-2.912,3.17-2.697,8.113,0.488,11.037
	c2.722,2.502,6.729,2.719,9.654,0.748l1.691,1.553c-0.058,0.394,0.075,0.805,0.391,1.092l5.143,4.729
	c0.508,0.464,1.293,0.434,1.758-0.069l1.167-1.271C23.471,19.822,23.437,19.037,22.933,18.574 M12.412,11.425
	c-1.942,2.116-5.288,2.215-7.456,0.22c-2.17-1.995-2.354-5.334-0.41-7.452c1.943-2.115,5.289-2.211,7.459-0.217
	C14.173,5.973,14.358,9.314,12.412,11.425"/>
</svg>
