<svg xmlns="http://www.w3.org/2000/svg" viewBox="0 0 2054.83 218.31"><defs><style>.cls-1,.cls-4{fill:#15254b;}.cls-2{fill:#fff;}.cls-3{fill:#f5c51d;}.cls-4{font-size:242.43px;font-family:PingFangTC-Medium-B5pc-H, PingFang TC;letter-spacing:0.02em;}.cls-5{letter-spacing:0.02em;}.cls-6{letter-spacing:0.02em;}</style></defs><g id="圖層_2" data-name="圖層 2"><g id="圖層_1-2" data-name="圖層 1"><path class="cls-1" d="M1205.14,60.06,1233.49.42H974.06A92.79,92.79,0,0,0,916.55,20.7L931,0H860.87l-8.66,18.28C846.27,9.84,834.41.42,811,.42H563.16l-7,14.75C549.62,7.84,537.82.42,516.64.42H360.45L315.74,94.3c-6.12,12.72-9.56,17.12-35.47,17.12-7,0-11.65-.21-14.67-.48.62-1.48,1.38-3.16,2.31-5.08L318.12.42h-175C103.05.42,66.6,27.25,54.5,65.68,48.11,86,52.89,98.93,58,106.23a29.7,29.7,0,0,0,2,2.58H35.48L0,182.81H127.66a91.35,91.35,0,0,0,58-20.61q2.8-2.26,5.44-4.76a38.44,38.44,0,0,0,3.25,5.63c10.3,14.63,30.58,21.74,62,21.74,27.6,0,50.63-5.23,70.19-15.92L303,218.31l91.48-39.77,16.21-33.92h49.35a98.51,98.51,0,0,0,38-7.75L476.1,182.81H611.9L595,218.16l92-39.58L703.54,144H728l12.87,38.8h92.43L809,127.93c2.93-1.84,5.75-3.83,8.48-5.94l26.76,60.82h114.3A90.92,90.92,0,0,0,993,176.15l-3.18,6.66h75l26.57-55.6h81.28l25.71-53h.12l5.91-12.43.84-1.73Zm-316.2,46.17a31.79,31.79,0,0,0,2,2.58H869.16l14.07-15.94A35.69,35.69,0,0,0,888.94,106.23Z"/><path class="cls-2" d="M1222.74,7.42H973.2c-30,0-57.74,16.38-72.91,41.53H888.77L918,7H865L851.6,35.23A34.13,34.13,0,0,0,847,23.82c-6.9-10.73-19.64-16.4-36.84-16.4H567.25L556.45,30a31.34,31.34,0,0,0-3.76-7.22c-7.08-10.07-19.85-15.39-36.9-15.39H364.54L322,96.66c-8,16.59-14.9,21.76-42.62,21.76-15.3,0-20.81-1-22.6-1.94a17.57,17.57,0,0,1,.81-3.46,73.91,73.91,0,0,1,4-9.5l45.77-96.1H142.29c-36.69,0-70,24.5-81.08,59.59C56.82,81,57.77,93,64,101.78c6.41,9.11,17.84,14,33.08,14H39.56l-28.77,60H128.51A83.61,83.61,0,0,0,181.57,157a90.11,90.11,0,0,0,13-13,33.79,33.79,0,0,0,5.67,14.6c9.1,12.92,27.72,19.2,56.93,19.2,35.95,0,64.24-9.36,86.28-28.94l-26.69,56.18,72.77-31.64,17.11-35.79h54.28a93.43,93.43,0,0,0,51.94-16.26l-26,54.45H622.68L608.74,205l73.31-31.53L699.45,137h33.93l12.86,38.8h75.93l-22.23-50.26a101.59,101.59,0,0,0,42.59-44.2h7.91l-15.55,31a9.66,9.66,0,0,0-1,3.44H822.82l26.4,60H959.43a83.31,83.31,0,0,0,48.45-15.37l-7.34,15.37h60.11l26.57-55.6h81.31l25.71-53h.07Zm-1013,71.1c-3.76-5.35-9.56-9.13-17.31-11.3h27.05L212.12,82.7A24.59,24.59,0,0,0,209.75,78.52Zm224.9.5,5.64-11.8h54.24a9.25,9.25,0,0,1,2.14.2,6.17,6.17,0,0,1-.25,1C494.33,75.05,488.8,79,481.62,79Zm290.61,4,7.55-15.8H788.9a7.84,7.84,0,0,1,1.6.13,10.11,10.11,0,0,1-.51,2.46c-2.53,8-8.74,13.21-15.81,13.21Zm164.89-8c-1.82,10.52-.23,19.65,4.73,26.71,6.41,9.11,17.84,14,33.08,14H854.19Zm150.52,3.45c-3.77-5.35-9.56-9.13-17.31-11.3h29l-8.45,17.71A25.64,25.64,0,0,0,1040.67,78.52Z"/><path class="cls-1" d="M122.12,58.22h99.71l19.87-41.8H141.19a75.43,75.43,0,0,0-71.35,52.3c-7.4,23.5,3.59,38.1,28.68,38.1h59.76c3.2,0,8.27.94,6.27,7.3-2.14,6.79-7.84,10.69-15.63,10.69H44.8l-20.14,42h105a73.59,73.59,0,0,0,46.77-16.53,83.86,83.86,0,0,0,26.76-39.77C210.77,86.3,200.64,74,173,74h-59.4c-4.48,0-4.42-3.21-3.57-5.9C112,62,116.61,58.22,122.12,58.22Z"/><path class="cls-1" d="M408.07,16.42H369.8L330.14,99.71c-10.34,21.49-22,27.7-51.82,27.7-28.28,0-33.49-2.85-29.32-16.09a82.53,82.53,0,0,1,4.48-10.81l40-84.09H253.23L213.57,99.69a129.21,129.21,0,0,0-7.18,18c-11,34.86,5.5,51.09,51.88,51.09,53.47,0,87.32-21.06,109.75-68.3Z"/><path class="cls-1" d="M514.69,16.42H415.91L334.4,188l48.73-21.19L435,58.22h60.58c8.38,0,11.81,4.33,9.43,11.9A25.25,25.25,0,0,1,480.52,88H432.09l-19.3,40.6H462c37.63,0,72.5-27.27,84.8-66.3C555.87,33.57,543.86,16.42,514.69,16.42Z"/><path class="cls-3" d="M894,58H872.11L901.37,16H870.25L843.56,72.35h21l-21.7,43.25c0,.08.06.13.12.07Z"/><polygon class="cls-1" points="562.85 124.81 594.63 58.22 681.46 58.22 701.33 16.42 572.5 16.42 500.72 166.81 629.91 166.81 650.05 124.81 562.85 124.81"/><polygon class="cls-1" points="653.06 106.81 668.61 74.02 598.3 74.02 582.75 106.81 653.06 106.81"/><path class="cls-1" d="M840.44,63.52c4.46-14.18,4-26-1.26-34.23-5.41-8.42-15.83-12.87-30.12-12.87H708.44L626.4,188l49.25-21.19L727.56,58.22H790c8.26,0,11.33,4.72,8.62,13.3C794.75,83.78,784.49,92,773.08,92H722.82l-17.34,36h34.8l12.86,38.8h54.72l-19.94-45.07C812.89,111.59,831.93,90.56,840.44,63.52Z"/><path class="cls-1" d="M1004,74H944.56c-4.49,0-4.42-3.21-3.57-5.9,1.92-6.11,6.54-9.9,12-9.9h99.7l19.87-41.8H972.11a75.44,75.44,0,0,0-71.36,52.3c-7.4,23.5,3.59,38.1,28.68,38.1h59.76c3.2,0,8.27.94,6.27,7.3-2.14,6.79-7.83,10.69-15.62,10.69H837.1l18.48,42H960.52a73.59,73.59,0,0,0,46.77-16.53,83.87,83.87,0,0,0,26.77-39.77C1041.69,86.3,1031.56,74,1004,74Z"/><polygon class="cls-1" points="1086.18 16.42 1014.39 166.81 1055.39 166.81 1107.3 58.22 1189.05 58.22 1208.91 16.42 1086.18 16.42"/><polygon class="cls-1" points="1091.29 111.22 1163.32 111.22 1180.4 76 1108.24 75.82 1091.29 111.22"/><text class="cls-4" transform="matrix(0.81, 0, -0.42, 0.8, 1168.22, 166.36)">遊戲<tspan class="cls-5" x="496.97" y="0">論</tspan><tspan class="cls-6" x="743.76" y="0">壇</tspan></text></g></g></svg>